<svg width="622" height="686" viewBox="0 0 622 686" fill="none" xmlns="http://www.w3.org/2000/svg">
<path d="M319.03 686C277.551 686 242.348 659.133 229.872 621.853C225.301 608.197 213.83 596.651 199.429 596.651H50C22.386 596.651 6.92639e-05 574.265 0 546.651V27C0 12.0883 12.0883 0 27 0H367.401C395.016 0 417.401 22.3858 417.401 50V69.5773C417.401 78.6661 425.861 85.3779 434.95 85.3779V85.3779H539.831C585.118 85.3779 621.831 122.091 621.831 167.378V453.509C621.831 486.694 602.118 515.276 573.763 528.182C561.505 533.761 551.281 544.739 551.281 558.207V592C551.281 643.915 509.196 686 457.281 686H319.03Z" fill="white"/>
</svg>
