<svg width="500" height="500" viewBox="0 0 500 500" fill="none" xmlns="http://www.w3.org/2000/svg">
<path d="M174.731 46C174.731 71.4051 195.326 92 220.731 92H279.269C304.674 92 325.269 71.4051 325.269 46V46C325.269 20.5949 345.863 0 371.269 0H419C463.735 0 500 36.2649 500 81V377.136C500 389.764 489.764 400 477.136 400V400C464.509 400 454.272 410.236 454.272 422.864V450C454.272 477.614 431.887 500 404.272 500H108.272C80.6582 500 58.2725 477.614 58.2725 450V429.136C58.2725 413.045 45.2277 400 29.1362 400V400C13.0447 400 0 386.955 0 370.864V81C0 36.2649 36.2649 0 81 0H128.731C154.137 0 174.731 20.5949 174.731 46V46Z" fill="black"/>
</svg>
