<svg width="199" height="49" viewBox="0 0 199 49" fill="none" xmlns="http://www.w3.org/2000/svg">
<path d="M28.457 1C22.9326 5.59131 20.1548 9.29239 20.251 13.0781C20.2993 14.9734 21.068 16.8231 22.4531 18.7412C23.652 20.4013 25.3289 22.1352 27.4453 24.0215H2.52344L7.83984 15.8965L7.42188 15.623L7.00391 15.3486L1.17969 24.248L1 24.5215L1.17969 24.7959L7.00391 33.6943L7.42188 33.4209L7.83984 33.1465L2.52246 25.0215H27.5195C25.5503 26.9133 23.9749 28.6507 22.8398 30.3135C21.5317 32.2299 20.7894 34.0737 20.7217 35.96C20.5864 39.736 23.1552 43.4363 28.4482 48.0361L28.7764 47.6592L29.1045 47.2812C23.8192 42.6881 21.6043 39.2656 21.7217 35.9951C21.7805 34.358 22.4245 32.6968 23.666 30.8779C24.9098 29.0558 26.7354 27.1018 29.1172 24.8877L29.5264 24.5068L29.1025 24.1426C26.5283 21.9294 24.5784 19.9758 23.2637 18.1553C21.9515 16.3381 21.2925 14.6812 21.251 13.0527C21.1681 9.79085 23.5616 6.36892 29.0957 1.76953L28.457 1ZM160.49 9.87988L141.209 24.0215H45.5918L56.292 14.2109L55.6162 13.4746L44.3076 23.8418L32.9961 13.4746L32.3203 14.2109L43.5674 24.5205L32.3203 34.8311L32.6582 35.2002L32.9961 35.5684L44.3066 25.1982L55.6162 35.5684L55.9541 35.2002L56.292 34.8311L45.5928 25.0215H141.209L160.49 39.1631L160.622 39.2598H197.257L196.025 38.3564L177.163 24.5215L196.025 10.6865L197.257 9.7832H160.622L160.49 9.87988ZM86.5303 28.2012C86.8768 29.5974 87.926 30.9193 89.2148 32.0957C90.5145 33.2819 92.116 34.3724 93.6621 35.2949C95.2108 36.2189 96.7189 36.9833 97.8379 37.5166C98.3974 37.7832 98.8612 37.9928 99.1855 38.1357C99.3474 38.2071 99.4753 38.2626 99.5625 38.2998C99.606 38.3183 99.6403 38.3322 99.6631 38.3418C99.6744 38.3465 99.6835 38.3501 99.6895 38.3525C99.6923 38.3537 99.6947 38.3548 99.6963 38.3555L99.6982 38.3564L99.8896 37.8945L99.6992 38.3574L99.7412 38.374L99.7852 38.3838C104.755 39.4465 108.065 39.5857 110.354 38.5605C112.34 37.671 113.462 35.954 114.268 33.5205C115.136 34.1588 116.056 34.7567 116.958 35.2949C118.507 36.2189 120.015 36.9833 121.134 37.5166C121.693 37.7832 122.157 37.9928 122.481 38.1357C122.643 38.2071 122.771 38.2626 122.858 38.2998C122.902 38.3183 122.936 38.3322 122.959 38.3418C122.97 38.3465 122.979 38.3501 122.985 38.3525C122.988 38.3537 122.991 38.3548 122.992 38.3555L122.994 38.3564L123.186 37.8945L122.995 38.3574L123.037 38.374L123.081 38.3838C128.051 39.4465 131.361 39.5857 133.65 38.5605C135.994 37.5105 137.138 35.308 137.974 32.1338L137.49 32.0068L137.007 31.8789C136.189 34.9867 135.151 36.7924 133.242 37.6475C131.284 38.5244 128.281 38.4689 123.336 37.415C123.315 37.4064 123.286 37.395 123.251 37.3799C123.167 37.3442 123.043 37.2904 122.885 37.2207C122.568 37.0813 122.114 36.876 121.564 36.6143C120.464 36.0898 118.985 35.3399 117.471 34.4365C116.485 33.8482 115.49 33.1964 114.576 32.5049C114.61 32.3826 114.645 32.2591 114.678 32.1338L114.194 32.0068L113.822 31.9082C113.603 31.7262 113.389 31.5437 113.185 31.3574C111.943 30.2245 111.072 29.0679 110.797 27.9609L109.826 28.2012C110.173 29.5974 111.222 30.9193 112.511 32.0957C112.802 32.3611 113.109 32.62 113.426 32.875C112.648 35.3793 111.641 36.8882 109.946 37.6475C107.988 38.5244 104.985 38.4689 100.04 37.415C100.019 37.4064 99.9905 37.395 99.9551 37.3799C99.8714 37.3442 99.747 37.2904 99.5889 37.2207C99.2724 37.0813 98.8179 36.876 98.2686 36.6143C97.168 36.0898 95.689 35.3399 94.1748 34.4365C92.658 33.5316 91.1191 32.4804 89.8887 31.3574C88.6473 30.2245 87.7758 29.0679 87.501 27.9609L86.5303 28.2012ZM176.021 24.1182L175.471 24.5215L176.021 24.9248L194.202 38.2598H160.949L142.219 24.5215L160.949 10.7832H194.202L176.021 24.1182ZM110.354 10.4824C108.065 9.4573 104.755 9.59651 99.7852 10.6592L99.7412 10.6689L99.6992 10.6855L99.8896 11.1484L99.6982 10.6865L99.6963 10.6875C99.6947 10.6881 99.6923 10.6893 99.6895 10.6904C99.6835 10.6929 99.6744 10.6964 99.6631 10.7012C99.6403 10.7107 99.606 10.7247 99.5625 10.7432C99.4753 10.7803 99.3474 10.8359 99.1855 10.9072C98.8612 11.0501 98.3974 11.2597 97.8379 11.5264C96.7189 12.0596 95.2108 12.824 93.6621 13.748C92.116 14.6705 90.5145 15.7611 89.2148 16.9473C87.926 18.1236 86.8768 19.4456 86.5303 20.8418L87.501 21.082C87.7758 19.9751 88.6474 18.8185 89.8887 17.6855C91.1191 16.5625 92.6581 15.5114 94.1748 14.6064C95.689 13.703 97.168 12.9532 98.2686 12.4287C98.8179 12.1669 99.2725 11.9617 99.5889 11.8223C99.747 11.7526 99.8714 11.6987 99.9551 11.6631C99.9905 11.648 100.019 11.6366 100.04 11.6279C104.985 10.5741 107.988 10.5185 109.946 11.3955C111.641 12.1547 112.649 13.6633 113.426 16.167C113.109 16.4221 112.802 16.6817 112.511 16.9473C111.222 18.1236 110.173 19.4456 109.826 20.8418L110.797 21.082C111.072 19.9751 111.943 18.8185 113.185 17.6855C113.389 17.4991 113.603 17.3159 113.822 17.1338L114.194 17.0361L114.678 16.9092C114.645 16.7836 114.61 16.6597 114.576 16.5371C115.49 15.8458 116.485 15.1947 117.471 14.6064C118.985 13.703 120.464 12.9532 121.564 12.4287C122.114 12.1669 122.568 11.9617 122.885 11.8223C123.043 11.7526 123.167 11.6987 123.251 11.6631C123.286 11.648 123.315 11.6366 123.336 11.6279C128.281 10.5741 131.284 10.5185 133.242 11.3955C135.151 12.2506 136.189 14.0562 137.007 17.1641L137.49 17.0361L137.974 16.9092C137.138 13.7349 135.994 11.5325 133.65 10.4824C131.361 9.4573 128.051 9.59651 123.081 10.6592L123.037 10.6689L122.995 10.6855L123.186 11.1484L122.994 10.6865L122.992 10.6875C122.991 10.6881 122.988 10.6893 122.985 10.6904C122.979 10.6929 122.97 10.6964 122.959 10.7012C122.936 10.7107 122.902 10.7247 122.858 10.7432C122.771 10.7803 122.643 10.8359 122.481 10.9072C122.157 11.0501 121.693 11.2597 121.134 11.5264C120.015 12.0596 118.507 12.824 116.958 13.748C116.056 14.2862 115.136 14.8834 114.268 15.5215C113.462 13.0885 112.34 11.3718 110.354 10.4824Z" fill="white"/>
<path d="M28.457 1L28.1374 0.615465L28.5222 0.295667L28.8418 0.680677L28.457 1ZM20.251 13.0781L19.7511 13.0909L19.7511 13.0908L20.251 13.0781ZM22.4531 18.7412L22.0478 19.0339L22.0478 19.0339L22.4531 18.7412ZM27.4453 24.0215L27.778 23.6482L28.7578 24.5215H27.4453V24.0215ZM2.52344 24.0215V24.5215H1.59875L2.10504 23.7477L2.52344 24.0215ZM7.83984 15.8965L8.11357 15.4781L8.53203 15.7518L8.25824 16.1702L7.83984 15.8965ZM7.42188 15.623L7.14814 16.0415L7.14746 16.041L7.42188 15.623ZM7.00391 15.3486L6.58554 15.0748L6.85974 14.6558L7.27832 14.9307L7.00391 15.3486ZM1.17969 24.248L1.59806 24.5218L1.59754 24.5226L1.17969 24.248ZM1 24.5215L0.581699 24.7954L0.402024 24.521L0.582147 24.2469L1 24.5215ZM1.17969 24.7959L1.59799 24.522L1.59804 24.5221L1.17969 24.7959ZM7.00391 33.6943L7.27764 34.1128L6.85931 34.3864L6.58555 33.9682L7.00391 33.6943ZM7.42188 33.4209L7.69629 33.8389L7.69561 33.8393L7.42188 33.4209ZM7.83984 33.1465L8.25821 32.8727L8.53161 33.2904L8.11426 33.5645L7.83984 33.1465ZM2.52246 25.0215L2.10409 25.2953L1.59768 24.5215H2.52246V25.0215ZM27.5195 25.0215V24.5215H28.7617L27.8659 25.3821L27.5195 25.0215ZM22.8398 30.3135L22.4269 30.0316L22.4269 30.0316L22.8398 30.3135ZM20.7217 35.96L20.222 35.9421L20.222 35.942L20.7217 35.96ZM28.4482 48.0361L28.8254 48.3644L28.4974 48.7412L28.1203 48.4135L28.4482 48.0361ZM28.7764 47.6592L29.1539 47.987L29.1535 47.9875L28.7764 47.6592ZM29.1045 47.2812L29.4325 46.9038L29.8097 47.2317L29.482 47.609L29.1045 47.2812ZM21.7217 35.9951L21.222 35.9772L21.222 35.9771L21.7217 35.9951ZM23.666 30.8779L23.2531 30.596L23.2531 30.596L23.666 30.8779ZM29.1172 24.8877L29.4578 25.2537L29.4576 25.2539L29.1172 24.8877ZM29.5264 24.5068L29.8523 24.1276L30.2762 24.492L29.867 24.8728L29.5264 24.5068ZM29.1025 24.1426L28.7766 24.5218L28.7766 24.5217L29.1025 24.1426ZM23.2637 18.1553L22.8583 18.448L22.8583 18.448L23.2637 18.1553ZM21.251 13.0527L20.7511 13.0655L20.7511 13.0654L21.251 13.0527ZM29.0957 1.76953L29.4805 1.45021L29.7996 1.8347L29.4153 2.15406L29.0957 1.76953ZM160.49 9.87988L160.195 9.4767L160.195 9.47668L160.49 9.87988ZM141.209 24.0215L141.505 24.4247L141.373 24.5215H141.209V24.0215ZM45.5918 24.0215V24.5215H44.3066L45.2539 23.6529L45.5918 24.0215ZM56.292 14.2109L56.6604 13.8729L56.9986 14.2414L56.6299 14.5795L56.292 14.2109ZM55.6162 13.4746L55.2783 13.106L55.6467 12.7684L55.9846 13.1365L55.6162 13.4746ZM44.3076 23.8418L44.6455 24.2104L44.3077 24.5201L43.9698 24.2104L44.3076 23.8418ZM32.9961 13.4746L32.6277 13.1365L32.9656 12.7684L33.3339 13.106L32.9961 13.4746ZM32.3203 14.2109L31.9825 14.5795L31.6136 14.2415L31.9519 13.8729L32.3203 14.2109ZM43.5674 24.5205L43.9052 24.1519L44.3073 24.5205L43.9053 24.8891L43.5674 24.5205ZM32.3203 34.8311L31.9515 35.1687L31.6142 34.8001L31.9824 34.4625L32.3203 34.8311ZM32.6582 35.2002L32.2898 35.5383L32.2894 35.5378L32.6582 35.2002ZM32.9961 35.5684L33.334 35.9369L32.9656 36.2746L32.6277 35.9064L32.9961 35.5684ZM44.3066 25.1982L43.9687 24.8297L44.3067 24.5199L44.6446 24.8297L44.3066 25.1982ZM55.6162 35.5684L55.9846 35.9064L55.6467 36.2746L55.2783 35.9369L55.6162 35.5684ZM55.9541 35.2002L56.3229 35.5378L56.3225 35.5383L55.9541 35.2002ZM56.292 34.8311L56.6299 34.4625L56.9981 34.8001L56.6608 35.1687L56.292 34.8311ZM45.5928 25.0215L45.2549 25.39L44.3076 24.5215H45.5928V25.0215ZM141.209 25.0215V24.5215H141.373L141.505 24.6183L141.209 25.0215ZM160.49 39.1631L160.195 39.5663L160.195 39.5663L160.49 39.1631ZM160.622 39.2598V39.7598H160.458L160.326 39.663L160.622 39.2598ZM197.257 39.2598L197.553 38.8566L198.784 39.7598H197.257V39.2598ZM196.025 38.3564L196.321 37.9533L196.321 37.9533L196.025 38.3564ZM177.163 24.5215L176.867 24.9247L176.318 24.5215L176.867 24.1183L177.163 24.5215ZM196.025 10.6865L196.321 11.0897L196.321 11.0897L196.025 10.6865ZM197.257 9.7832V9.2832H198.784L197.553 10.1864L197.257 9.7832ZM160.622 9.7832L160.326 9.38L160.458 9.2832H160.622V9.7832ZM86.5303 28.2012L86.045 28.3216L85.9245 27.836L86.4102 27.7158L86.5303 28.2012ZM89.2148 32.0957L88.8778 32.465L88.8778 32.465L89.2148 32.0957ZM93.6621 35.2949L93.4059 35.7243L93.4059 35.7243L93.6621 35.2949ZM97.8379 37.5166L97.6228 37.968L97.6228 37.968L97.8379 37.5166ZM99.1855 38.1357L98.9839 38.5933L98.9839 38.5933L99.1855 38.1357ZM99.5625 38.2998L99.3665 38.7598L99.3665 38.7598L99.5625 38.2998ZM99.6631 38.3418L99.4698 38.8029L99.4697 38.8029L99.6631 38.3418ZM99.6895 38.3525L99.8816 37.8909L99.8824 37.8913L99.6895 38.3525ZM99.6963 38.3555L99.8879 37.8936L99.9041 37.9004L99.9199 37.9083L99.6963 38.3555ZM99.6982 38.3564L100.16 38.5479L99.9547 39.0437L99.4746 38.8037L99.6982 38.3564ZM99.8896 37.8945L99.4277 37.7031L100.352 38.0848L99.8896 37.8945ZM99.6992 38.3574L99.5154 38.8224L99.0439 38.636L99.2368 38.1672L99.6992 38.3574ZM99.7412 38.374L99.6327 38.8621L99.5941 38.8535L99.5574 38.839L99.7412 38.374ZM99.7852 38.3838L99.6806 38.8728L99.6767 38.8719L99.7852 38.3838ZM110.354 38.5605L110.559 39.0169L110.559 39.0169L110.354 38.5605ZM114.268 33.5205L113.793 33.3634L114.009 32.7102L114.564 33.1176L114.268 33.5205ZM116.958 35.2949L116.702 35.7243L116.702 35.7243L116.958 35.2949ZM121.134 37.5166L120.919 37.968L120.919 37.968L121.134 37.5166ZM122.481 38.1357L122.28 38.5933L122.28 38.5933L122.481 38.1357ZM122.858 38.2998L122.662 38.7598L122.662 38.7598L122.858 38.2998ZM122.959 38.3418L122.766 38.8029L122.766 38.8029L122.959 38.3418ZM122.985 38.3525L123.178 37.8909L123.178 37.8913L122.985 38.3525ZM122.992 38.3555L123.184 37.8936L123.2 37.9004L123.216 37.9083L122.992 38.3555ZM122.994 38.3564L123.456 38.5479L123.251 39.0437L122.771 38.8037L122.994 38.3564ZM123.186 37.8945L122.724 37.7031L123.648 38.0848L123.186 37.8945ZM122.995 38.3574L122.811 38.8224L122.34 38.636L122.533 38.1672L122.995 38.3574ZM123.037 38.374L122.929 38.8621L122.89 38.8535L122.853 38.839L123.037 38.374ZM123.081 38.3838L122.977 38.8728L122.973 38.8719L123.081 38.3838ZM133.65 38.5605L133.855 39.0169L133.855 39.0169L133.65 38.5605ZM137.974 32.1338L138.101 31.6502L138.584 31.7773L138.457 32.2611L137.974 32.1338ZM137.49 32.0068L137.363 32.4904L137.362 32.4902L137.49 32.0068ZM137.007 31.8789L136.523 31.7516L136.651 31.2675L137.135 31.3955L137.007 31.8789ZM133.242 37.6475L133.447 38.1038L133.447 38.1038L133.242 37.6475ZM123.336 37.415L123.232 37.9041L123.186 37.8942L123.142 37.876L123.336 37.415ZM123.251 37.3799L123.055 37.8399L123.055 37.8399L123.251 37.3799ZM122.885 37.2207L122.683 37.6782L122.683 37.6782L122.885 37.2207ZM121.564 36.6143L121.349 37.0656L121.349 37.0656L121.564 36.6143ZM117.471 34.4365L117.215 34.8659L117.215 34.8659L117.471 34.4365ZM114.576 32.5049L114.274 32.9036L114.003 32.6985L114.094 32.3709L114.576 32.5049ZM114.678 32.1338L114.805 31.6502L115.289 31.7773L115.161 32.2611L114.678 32.1338ZM114.194 32.0068L114.067 32.4904L114.066 32.4901L114.194 32.0068ZM113.822 31.9082L113.694 32.3915L113.588 32.3633L113.503 32.2932L113.822 31.9082ZM113.185 31.3574L112.848 31.7267L112.848 31.7267L113.185 31.3574ZM110.797 27.9609L110.677 27.4756L111.162 27.3555L111.282 27.8405L110.797 27.9609ZM109.826 28.2012L109.341 28.3216L109.22 27.836L109.706 27.7158L109.826 28.2012ZM112.511 32.0957L112.174 32.465L112.174 32.465L112.511 32.0957ZM113.426 32.875L113.739 32.4854L114.004 32.6985L113.903 33.0232L113.426 32.875ZM109.946 37.6475L110.151 38.1038L110.151 38.1038L109.946 37.6475ZM100.04 37.415L99.9358 37.9041L99.8897 37.8942L99.8462 37.876L100.04 37.415ZM99.9551 37.3799L99.7591 37.8399L99.7591 37.8399L99.9551 37.3799ZM99.5889 37.2207L99.3872 37.6782L99.3872 37.6782L99.5889 37.2207ZM98.2686 36.6143L98.0535 37.0656L98.0535 37.0656L98.2686 36.6143ZM94.1748 34.4365L93.9186 34.8659L93.9186 34.8659L94.1748 34.4365ZM89.8887 31.3574L89.5516 31.7267L89.5516 31.7267L89.8887 31.3574ZM87.501 27.9609L87.3809 27.4756L87.8659 27.3555L87.9862 27.8405L87.501 27.9609ZM176.021 24.1182L175.725 23.715L175.725 23.715L176.021 24.1182ZM175.471 24.5215L175.175 24.9246L174.625 24.5215L175.175 24.1183L175.471 24.5215ZM176.021 24.9248L175.725 25.328L175.725 25.328L176.021 24.9248ZM194.202 38.2598L194.498 37.8566L195.729 38.7598H194.202V38.2598ZM160.949 38.2598V38.7598H160.786L160.654 38.6629L160.949 38.2598ZM142.219 24.5215L141.923 24.9247L141.373 24.5215L141.923 24.1183L142.219 24.5215ZM160.949 10.7832L160.654 10.38L160.786 10.2832H160.949V10.7832ZM194.202 10.7832V10.2832H195.729L194.498 11.1864L194.202 10.7832ZM110.354 10.4824L110.559 10.0261L110.559 10.0261L110.354 10.4824ZM99.7852 10.6592L99.6767 10.1711L99.6806 10.1702L99.7852 10.6592ZM99.7412 10.6689L99.5574 10.204L99.5941 10.1894L99.6327 10.1809L99.7412 10.6689ZM99.6992 10.6855L99.2368 10.8758L99.0439 10.407L99.5154 10.2206L99.6992 10.6855ZM99.8896 11.1484L100.352 10.9582L99.4277 11.3398L99.8896 11.1484ZM99.6982 10.6865L99.4746 10.2393L99.9547 9.99928L100.16 10.4951L99.6982 10.6865ZM99.6963 10.6875L99.9199 11.1347L99.9041 11.1426L99.8879 11.1493L99.6963 10.6875ZM99.6895 10.6904L99.8824 11.1517L99.8816 11.152L99.6895 10.6904ZM99.6631 10.7012L99.4697 10.2401L99.4698 10.24L99.6631 10.7012ZM99.5625 10.7432L99.3665 10.2832L99.3665 10.2832L99.5625 10.7432ZM99.1855 10.9072L98.9839 10.4497L98.9839 10.4497L99.1855 10.9072ZM97.8379 11.5264L97.6228 11.075L97.6228 11.075L97.8379 11.5264ZM93.6621 13.748L93.4059 13.3187L93.4059 13.3187L93.6621 13.748ZM89.2148 16.9473L88.8778 16.578L88.8778 16.578L89.2148 16.9473ZM86.5303 20.8418L86.4102 21.3272L85.9245 21.207L86.045 20.7214L86.5303 20.8418ZM87.501 21.082L87.9862 21.2025L87.8659 21.6874L87.3809 21.5674L87.501 21.082ZM89.8887 17.6855L89.5516 17.3162L89.5516 17.3162L89.8887 17.6855ZM94.1748 14.6064L93.9186 14.1771L93.9186 14.1771L94.1748 14.6064ZM98.2686 12.4287L98.0535 11.9773L98.0535 11.9773L98.2686 12.4287ZM99.5889 11.8223L99.3872 11.3647L99.3872 11.3647L99.5889 11.8223ZM99.9551 11.6631L99.7591 11.2031L99.7591 11.2031L99.9551 11.6631ZM100.04 11.6279L99.8462 11.167L99.8897 11.1487L99.9358 11.1389L100.04 11.6279ZM109.946 11.3955L110.151 10.9392L110.151 10.9392L109.946 11.3955ZM113.426 16.167L113.903 16.0187L114.004 16.3435L113.739 16.5566L113.426 16.167ZM112.511 16.9473L112.174 16.578L112.174 16.578L112.511 16.9473ZM109.826 20.8418L109.706 21.3272L109.22 21.207L109.341 20.7214L109.826 20.8418ZM110.797 21.082L111.282 21.2025L111.162 21.6874L110.677 21.5674L110.797 21.082ZM113.185 17.6855L112.848 17.3162L112.848 17.3162L113.185 17.6855ZM113.822 17.1338L113.503 16.7488L113.588 16.6782L113.695 16.6502L113.822 17.1338ZM114.194 17.0361L114.321 17.5197L114.321 17.5198L114.194 17.0361ZM114.678 16.9092L115.161 16.7819L115.289 17.2657L114.805 17.3928L114.678 16.9092ZM114.576 16.5371L114.094 16.6711L114.003 16.3435L114.275 16.1384L114.576 16.5371ZM117.471 14.6064L117.215 14.1771L117.215 14.1771L117.471 14.6064ZM121.564 12.4287L121.349 11.9773L121.349 11.9773L121.564 12.4287ZM122.885 11.8223L122.683 11.3647L122.683 11.3647L122.885 11.8223ZM123.251 11.6631L123.055 11.2031L123.055 11.2031L123.251 11.6631ZM123.336 11.6279L123.142 11.167L123.186 11.1487L123.232 11.1389L123.336 11.6279ZM133.242 11.3955L133.447 10.9392L133.447 10.9392L133.242 11.3955ZM137.007 17.1641L137.135 17.6474L136.651 17.7755L136.523 17.2913L137.007 17.1641ZM137.49 17.0361L137.362 16.5528L137.363 16.5525L137.49 17.0361ZM137.974 16.9092L138.457 16.7819L138.584 17.2657L138.101 17.3928L137.974 16.9092ZM133.65 10.4824L133.855 10.0261L133.855 10.0261L133.65 10.4824ZM123.081 10.6592L122.973 10.1711L122.977 10.1702L123.081 10.6592ZM123.037 10.6689L122.853 10.204L122.89 10.1894L122.929 10.1809L123.037 10.6689ZM122.995 10.6855L122.533 10.8758L122.34 10.407L122.811 10.2206L122.995 10.6855ZM123.186 11.1484L123.648 10.9582L122.724 11.3398L123.186 11.1484ZM122.994 10.6865L122.771 10.2393L123.251 9.99928L123.456 10.4951L122.994 10.6865ZM122.992 10.6875L123.216 11.1347L123.2 11.1426L123.184 11.1493L122.992 10.6875ZM122.985 10.6904L123.178 11.1517L123.178 11.152L122.985 10.6904ZM122.959 10.7012L122.766 10.2401L122.766 10.24L122.959 10.7012ZM122.858 10.7432L122.662 10.2832L122.662 10.2832L122.858 10.7432ZM122.481 10.9072L122.28 10.4497L122.28 10.4497L122.481 10.9072ZM121.134 11.5264L120.919 11.075L120.919 11.075L121.134 11.5264ZM116.958 13.748L116.702 13.3187L116.702 13.3187L116.958 13.748ZM114.268 15.5215L114.564 15.9244L114.009 16.3318L113.793 15.6786L114.268 15.5215ZM28.457 1L28.7766 1.38453C23.2473 5.97992 20.6613 9.54158 20.7508 13.0654L20.251 13.0781L19.7511 13.0908C19.6483 9.0432 22.6179 5.2027 28.1374 0.615465L28.457 1ZM20.251 13.0781L20.7508 13.0654C20.7958 14.8272 21.5098 16.5808 22.8585 18.4485L22.4531 18.7412L22.0478 19.0339C20.6263 17.0654 19.8029 15.1195 19.7511 13.0909L20.251 13.0781ZM22.4531 18.7412L22.8585 18.4485C24.0271 20.0667 25.674 21.7731 27.778 23.6482L27.4453 24.0215L27.1126 24.3948C24.9837 22.4974 23.2768 20.7359 22.0478 19.0339L22.4531 18.7412ZM27.4453 24.0215V24.5215H2.52344V24.0215V23.5215H27.4453V24.0215ZM2.52344 24.0215L2.10504 23.7477L7.42145 15.6227L7.83984 15.8965L8.25824 16.1702L2.94183 24.2952L2.52344 24.0215ZM7.83984 15.8965L7.56611 16.3149L7.14814 16.0415L7.42188 15.623L7.69561 15.2046L8.11357 15.4781L7.83984 15.8965ZM7.42188 15.623L7.14746 16.041L6.72949 15.7666L7.00391 15.3486L7.27832 14.9307L7.69629 15.2051L7.42188 15.623ZM7.00391 15.3486L7.42228 15.6224L1.59806 24.5218L1.17969 24.248L0.761318 23.9742L6.58554 15.0748L7.00391 15.3486ZM1.17969 24.248L1.59754 24.5226L1.41785 24.7961L1 24.5215L0.582147 24.2469L0.761835 23.9735L1.17969 24.248ZM1 24.5215L1.4183 24.2476L1.59799 24.522L1.17969 24.7959L0.761386 25.0698L0.581699 24.7954L1 24.5215ZM1.17969 24.7959L1.59804 24.5221L7.42226 33.4205L7.00391 33.6943L6.58555 33.9682L0.761332 25.0697L1.17969 24.7959ZM7.00391 33.6943L6.73018 33.2759L7.14814 33.0025L7.42188 33.4209L7.69561 33.8393L7.27764 34.1128L7.00391 33.6943ZM7.42188 33.4209L7.14746 33.0029L7.56543 32.7285L7.83984 33.1465L8.11426 33.5645L7.69629 33.8389L7.42188 33.4209ZM7.83984 33.1465L7.42147 33.4203L2.10409 25.2953L2.52246 25.0215L2.94083 24.7477L8.25821 32.8727L7.83984 33.1465ZM2.52246 25.0215V24.5215H27.5195V25.0215V25.5215H2.52246V25.0215ZM27.5195 25.0215L27.8659 25.3821C25.908 27.263 24.3601 28.9732 23.2528 30.5954L22.8398 30.3135L22.4269 30.0316C23.5896 28.3282 25.1926 26.5636 27.1731 24.6609L27.5195 25.0215ZM22.8398 30.3135L23.2528 30.5954C21.9779 32.4631 21.2846 34.2162 21.2214 35.9779L20.7217 35.96L20.222 35.942C20.2942 33.9312 21.0855 31.9967 22.4269 30.0316L22.8398 30.3135ZM20.7217 35.96L21.2214 35.9779C21.0952 39.5011 23.4872 43.0623 28.7762 47.6587L28.4482 48.0361L28.1203 48.4135C22.8232 43.8102 20.0777 39.9709 20.222 35.9421L20.7217 35.96ZM28.4482 48.0361L28.0711 47.7078L28.3992 47.3309L28.7764 47.6592L29.1535 47.9875L28.8254 48.3644L28.4482 48.0361ZM28.7764 47.6592L28.3988 47.3314L28.7269 46.9535L29.1045 47.2812L29.482 47.609L29.1539 47.987L28.7764 47.6592ZM29.1045 47.2812L28.7765 47.6587C23.4872 43.062 21.0956 39.5005 21.222 35.9772L21.7217 35.9951L22.2214 36.013C22.1131 39.0307 24.1512 42.3142 29.4325 46.9038L29.1045 47.2812ZM21.7217 35.9951L21.222 35.9771C21.2853 34.2156 21.9783 32.4636 23.2531 30.596L23.666 30.8779L24.079 31.1598C22.8707 32.9299 22.2757 34.5005 22.2214 36.0131L21.7217 35.9951ZM23.666 30.8779L23.2531 30.596C24.528 28.7284 26.3851 26.7447 28.7768 24.5215L29.1172 24.8877L29.4576 25.2539C27.0856 27.4589 25.2917 29.3833 24.079 31.1598L23.666 30.8779ZM29.1172 24.8877L28.7765 24.5217L29.1857 24.1408L29.5264 24.5068L29.867 24.8728L29.4578 25.2537L29.1172 24.8877ZM29.5264 24.5068L29.2005 24.886L28.7766 24.5218L29.1025 24.1426L29.4284 23.7634L29.8523 24.1276L29.5264 24.5068ZM29.1025 24.1426L28.7766 24.5217C26.1915 22.2992 24.2071 20.3157 22.8583 18.448L23.2637 18.1553L23.669 17.8625C24.9497 19.6359 26.8651 21.5595 29.4285 23.7634L29.1025 24.1426ZM23.2637 18.1553L22.8583 18.448C21.5097 16.5803 20.7961 14.8272 20.7511 13.0655L21.251 13.0527L21.7508 13.04C21.789 14.5351 22.3934 16.0959 23.669 17.8626L23.2637 18.1553ZM21.251 13.0527L20.7511 13.0654C20.6616 9.54161 23.247 5.98025 28.7761 1.385L29.0957 1.76953L29.4153 2.15406C23.8762 6.75759 21.6746 10.0401 21.7508 13.04L21.251 13.0527ZM29.0957 1.76953L28.711 2.08885L28.0723 1.31932L28.457 1L28.8418 0.680677L29.4805 1.45021L29.0957 1.76953ZM160.49 9.87988L160.786 10.2831L141.505 24.4247L141.209 24.0215L140.913 23.6183L160.195 9.4767L160.49 9.87988ZM141.209 24.0215V24.5215H45.5918V24.0215V23.5215H141.209V24.0215ZM45.5918 24.0215L45.2539 23.6529L55.9541 13.8424L56.292 14.2109L56.6299 14.5795L45.9297 24.39L45.5918 24.0215ZM56.292 14.2109L55.9236 14.549L55.2478 13.8127L55.6162 13.4746L55.9846 13.1365L56.6604 13.8729L56.292 14.2109ZM55.6162 13.4746L55.9541 13.8432L44.6455 24.2104L44.3076 23.8418L43.9697 23.4732L55.2783 13.106L55.6162 13.4746ZM44.3076 23.8418L43.9698 24.2104L32.6583 13.8432L32.9961 13.4746L33.3339 13.106L44.6454 23.4732L44.3076 23.8418ZM32.9961 13.4746L33.3645 13.8127L32.6887 14.549L32.3203 14.2109L31.9519 13.8729L32.6277 13.1365L32.9961 13.4746ZM32.3203 14.2109L32.6582 13.8424L43.9052 24.1519L43.5674 24.5205L43.2295 24.8891L31.9825 14.5795L32.3203 14.2109ZM43.5674 24.5205L43.9053 24.8891L32.6582 35.1996L32.3203 34.8311L31.9824 34.4625L43.2295 24.1519L43.5674 24.5205ZM32.3203 34.8311L32.6891 34.4935L33.027 34.8626L32.6582 35.2002L32.2894 35.5378L31.9515 35.1687L32.3203 34.8311ZM32.6582 35.2002L33.0266 34.8621L33.3645 35.2303L32.9961 35.5684L32.6277 35.9064L32.2898 35.5383L32.6582 35.2002ZM32.9961 35.5684L32.6582 35.1998L43.9687 24.8297L44.3066 25.1982L44.6445 25.5668L33.334 35.9369L32.9961 35.5684ZM44.3066 25.1982L44.6446 24.8297L55.9541 35.1998L55.6162 35.5684L55.2783 35.9369L43.9687 25.5668L44.3066 25.1982ZM55.6162 35.5684L55.2478 35.2303L55.5857 34.8621L55.9541 35.2002L56.3225 35.5383L55.9846 35.9064L55.6162 35.5684ZM55.9541 35.2002L55.5853 34.8626L55.9232 34.4935L56.292 34.8311L56.6608 35.1687L56.3229 35.5378L55.9541 35.2002ZM56.292 34.8311L55.9541 35.1996L45.2549 25.39L45.5928 25.0215L45.9307 24.6529L56.6299 34.4625L56.292 34.8311ZM45.5928 25.0215V24.5215H141.209V25.0215V25.5215H45.5928V25.0215ZM141.209 25.0215L141.505 24.6183L160.786 38.7599L160.49 39.1631L160.195 39.5663L140.913 25.4247L141.209 25.0215ZM160.49 39.1631L160.786 38.7599L160.918 38.8566L160.622 39.2598L160.326 39.663L160.195 39.5663L160.49 39.1631ZM160.622 39.2598V38.7598H197.257V39.2598V39.7598H160.622V39.2598ZM197.257 39.2598L196.961 39.6629L195.73 38.7596L196.025 38.3564L196.321 37.9533L197.553 38.8566L197.257 39.2598ZM196.025 38.3564L195.73 38.7596L176.867 24.9247L177.163 24.5215L177.459 24.1183L196.321 37.9533L196.025 38.3564ZM177.163 24.5215L176.867 24.1183L195.73 10.2833L196.025 10.6865L196.321 11.0897L177.459 24.9247L177.163 24.5215ZM196.025 10.6865L195.73 10.2834L196.961 9.38004L197.257 9.7832L197.553 10.1864L196.321 11.0897L196.025 10.6865ZM197.257 9.7832V10.2832H160.622V9.7832V9.2832H197.257V9.7832ZM160.622 9.7832L160.918 10.1864L160.786 10.2831L160.49 9.87988L160.195 9.47668L160.326 9.38L160.622 9.7832ZM86.5303 28.2012L87.0156 28.0807C87.3261 29.3323 88.2867 30.5716 89.5519 31.7264L89.2148 32.0957L88.8778 32.465C87.5653 31.2671 86.4274 29.8625 86.045 28.3216L86.5303 28.2012ZM89.2148 32.0957L89.5519 31.7264C90.817 32.881 92.387 33.9519 93.9183 34.8655L93.6621 35.2949L93.4059 35.7243C91.8449 34.7929 90.212 33.6828 88.8778 32.465L89.2148 32.0957ZM93.6621 35.2949L93.9183 34.8655C95.4497 35.7792 96.9431 36.5363 98.053 37.0652L97.8379 37.5166L97.6228 37.968C96.4947 37.4304 94.972 36.6587 93.4059 35.7243L93.6621 35.2949ZM97.8379 37.5166L98.053 37.0652C98.6076 37.3295 99.0669 37.537 99.3872 37.6782L99.1855 38.1357L98.9839 38.5933C98.6556 38.4486 98.1873 38.237 97.6228 37.968L97.8379 37.5166ZM99.1855 38.1357L99.3872 37.6782C99.5482 37.7491 99.674 37.8038 99.7585 37.8398L99.5625 38.2998L99.3665 38.7598C99.2766 38.7215 99.1467 38.665 98.9839 38.5933L99.1855 38.1357ZM99.5625 38.2998L99.7585 37.8398C99.8024 37.8585 99.8245 37.8673 99.8565 37.8807L99.6631 38.3418L99.4697 38.8029C99.456 38.7972 99.4096 38.7781 99.3665 38.7598L99.5625 38.2998ZM99.6631 38.3418L99.8563 37.8806C99.8587 37.8816 99.8612 37.8827 99.8649 37.8841C99.866 37.8846 99.8694 37.886 99.8714 37.8868C99.8738 37.8877 99.8775 37.8892 99.8816 37.8909L99.6895 38.3525L99.4973 38.8141C99.4984 38.8146 99.4988 38.8148 99.4974 38.8142C99.4957 38.8135 99.495 38.8132 99.4917 38.8119C99.4865 38.8098 99.4788 38.8067 99.4698 38.8029L99.6631 38.3418ZM99.6895 38.3525L99.8824 37.8913C99.8871 37.8932 99.891 37.8949 99.8924 37.8955C99.8935 37.896 99.8932 37.8959 99.8929 37.8958C99.8927 37.8957 99.8907 37.8948 99.8879 37.8936L99.6963 38.3555L99.5047 38.8173C99.5011 38.8158 99.4982 38.8146 99.497 38.814C99.4958 38.8135 99.4944 38.8129 99.4943 38.8129C99.4934 38.8125 99.4946 38.813 99.4965 38.8138L99.6895 38.3525ZM99.6963 38.3555L99.9199 37.9083L99.9218 37.9092L99.6982 38.3564L99.4746 38.8037L99.4727 38.8027L99.6963 38.3555ZM99.6982 38.3564L99.2363 38.165L99.4277 37.7031L99.8896 37.8945L100.352 38.0859L100.16 38.5479L99.6982 38.3564ZM99.8896 37.8945L100.352 38.0848L100.162 38.5476L99.6992 38.3574L99.2368 38.1672L99.4272 37.7043L99.8896 37.8945ZM99.6992 38.3574L99.883 37.8924L99.925 37.909L99.7412 38.374L99.5574 38.839L99.5154 38.8224L99.6992 38.3574ZM99.7412 38.374L99.8497 37.8859L99.8936 37.8957L99.7852 38.3838L99.6767 38.8719L99.6327 38.8621L99.7412 38.374ZM99.7852 38.3838L99.8897 37.8948C104.86 38.9577 108.024 39.0565 110.15 38.1042L110.354 38.5605L110.559 39.0169C108.107 40.1148 104.65 39.9352 99.6806 38.8727L99.7852 38.3838ZM110.354 38.5605L110.15 38.1042C111.952 37.2971 113.008 35.7357 113.793 33.3634L114.268 33.5205L114.742 33.6776C113.917 36.1724 112.728 38.0449 110.559 39.0169L110.354 38.5605ZM114.268 33.5205L114.564 33.1176C115.417 33.7447 116.323 34.3339 117.214 34.8655L116.958 35.2949L116.702 35.7243C115.789 35.1794 114.855 34.5728 113.972 33.9235L114.268 33.5205ZM116.958 35.2949L117.214 34.8655C118.746 35.7792 120.239 36.5363 121.349 37.0652L121.134 37.5166L120.919 37.968C119.791 37.4304 118.268 36.6587 116.702 35.7243L116.958 35.2949ZM121.134 37.5166L121.349 37.0652C121.903 37.3295 122.363 37.537 122.683 37.6782L122.481 38.1357L122.28 38.5933C121.951 38.4486 121.483 38.237 120.919 37.968L121.134 37.5166ZM122.481 38.1357L122.683 37.6782C122.844 37.7491 122.97 37.8038 123.054 37.8398L122.858 38.2998L122.662 38.7598C122.573 38.7215 122.443 38.665 122.28 38.5933L122.481 38.1357ZM122.858 38.2998L123.054 37.8398C123.098 37.8585 123.12 37.8673 123.152 37.8807L122.959 38.3418L122.766 38.8029C122.752 38.7972 122.705 38.7781 122.662 38.7598L122.858 38.2998ZM122.959 38.3418L123.152 37.8806C123.155 37.8816 123.157 37.8827 123.161 37.8841C123.162 37.8846 123.165 37.886 123.167 37.8868C123.17 37.8877 123.173 37.8892 123.178 37.8909L122.985 38.3525L122.793 38.8141C122.794 38.8146 122.795 38.8148 122.793 38.8142C122.792 38.8135 122.791 38.8132 122.788 38.8119C122.782 38.8098 122.775 38.8067 122.766 38.8029L122.959 38.3418ZM122.985 38.3525L123.178 37.8913C123.183 37.8932 123.187 37.8949 123.188 37.8955C123.189 37.896 123.189 37.8959 123.189 37.8958C123.189 37.8957 123.187 37.8948 123.184 37.8936L122.992 38.3555L122.801 38.8173C122.797 38.8158 122.794 38.8146 122.793 38.814C122.792 38.8135 122.79 38.8129 122.79 38.8129C122.789 38.8125 122.791 38.813 122.792 38.8138L122.985 38.3525ZM122.992 38.3555L123.216 37.9083L123.218 37.9092L122.994 38.3564L122.771 38.8037L122.769 38.8027L122.992 38.3555ZM122.994 38.3564L122.532 38.165L122.724 37.7031L123.186 37.8945L123.647 38.0859L123.456 38.5479L122.994 38.3564ZM123.186 37.8945L123.648 38.0848L123.458 38.5476L122.995 38.3574L122.533 38.1672L122.723 37.7043L123.186 37.8945ZM122.995 38.3574L123.179 37.8924L123.221 37.909L123.037 38.374L122.853 38.839L122.811 38.8224L122.995 38.3574ZM123.037 38.374L123.146 37.8859L123.19 37.8957L123.081 38.3838L122.973 38.8719L122.929 38.8621L123.037 38.374ZM123.081 38.3838L123.186 37.8948C128.156 38.9577 131.319 39.0565 133.446 38.1042L133.65 38.5605L133.855 39.0169C131.403 40.1148 127.945 39.9352 122.977 38.8727L123.081 38.3838ZM133.65 38.5605L133.446 38.1042C135.572 37.1517 136.663 35.1478 137.49 32.0065L137.974 32.1338L138.457 32.2611C137.613 35.4683 136.417 37.8692 133.855 39.0169L133.65 38.5605ZM137.974 32.1338L137.847 32.6174L137.363 32.4904L137.49 32.0068L137.617 31.5232L138.101 31.6502L137.974 32.1338ZM137.49 32.0068L137.362 32.4902L136.879 32.3623L137.007 31.8789L137.135 31.3955L137.618 31.5235L137.49 32.0068ZM137.007 31.8789L137.49 32.0062C136.664 35.1474 135.573 37.1512 133.447 38.1038L133.242 37.6475L133.038 37.1912C134.729 36.4335 135.714 34.8261 136.523 31.7516L137.007 31.8789ZM133.242 37.6475L133.447 38.1038C131.326 39.0535 128.176 38.9577 123.232 37.9041L123.336 37.415L123.44 36.926C128.386 37.98 131.242 37.9954 133.038 37.1911L133.242 37.6475ZM123.336 37.415L123.142 37.876C123.135 37.8729 123.127 37.8695 123.11 37.8627C123.095 37.8565 123.076 37.8489 123.055 37.8399L123.251 37.3799L123.447 36.9199C123.494 36.9399 123.482 36.9342 123.53 36.9541L123.336 37.415ZM123.251 37.3799L123.055 37.8399C122.969 37.8032 122.843 37.7486 122.683 37.6782L122.885 37.2207L123.086 36.7632C123.243 36.8322 123.366 36.8852 123.447 36.9199L123.251 37.3799ZM122.885 37.2207L122.683 37.6782C122.363 37.5371 121.904 37.3298 121.349 37.0656L121.564 36.6143L121.78 36.1629C122.324 36.4223 122.774 36.6254 123.086 36.7632L122.885 37.2207ZM121.564 36.6143L121.349 37.0656C120.24 36.5368 118.746 35.7797 117.215 34.8659L117.471 34.4365L117.727 34.0071C119.224 34.9002 120.688 35.6427 121.78 36.1629L121.564 36.6143ZM117.471 34.4365L117.215 34.8659C116.217 34.2705 115.206 33.6086 114.274 32.9036L114.576 32.5049L114.878 32.1061C115.774 32.7841 116.753 33.4258 117.727 34.0071L117.471 34.4365ZM114.576 32.5049L114.094 32.3709C114.129 32.2472 114.162 32.1277 114.194 32.0065L114.678 32.1338L115.161 32.2611C115.127 32.3905 115.091 32.518 115.058 32.6388L114.576 32.5049ZM114.678 32.1338L114.551 32.6174L114.067 32.4904L114.194 32.0068L114.321 31.5232L114.805 31.6502L114.678 32.1338ZM114.194 32.0068L114.066 32.4901L113.694 32.3915L113.822 31.9082L113.95 31.4249L114.322 31.5235L114.194 32.0068ZM113.822 31.9082L113.503 32.2932C113.28 32.1085 113.06 31.9204 112.848 31.7267L113.185 31.3574L113.522 30.9881C113.718 31.167 113.925 31.3439 114.141 31.5232L113.822 31.9082ZM113.185 31.3574L112.848 31.7267C111.583 30.5722 110.622 29.333 110.312 28.0814L110.797 27.9609L111.282 27.8405C111.521 28.8028 112.304 29.8767 113.522 30.9881L113.185 31.3574ZM110.797 27.9609L110.917 28.4463L109.946 28.6865L109.826 28.2012L109.706 27.7158L110.677 27.4756L110.797 27.9609ZM109.826 28.2012L110.311 28.0807C110.622 29.3323 111.583 30.5716 112.848 31.7264L112.511 32.0957L112.174 32.465C110.861 31.2671 109.723 29.8625 109.341 28.3216L109.826 28.2012ZM112.511 32.0957L112.848 31.7264C113.129 31.9829 113.428 32.2349 113.739 32.4854L113.426 32.875L113.112 33.2646C112.79 33.0051 112.474 32.7393 112.174 32.465L112.511 32.0957ZM113.426 32.875L113.903 33.0232C113.109 35.5829 112.038 37.2581 110.151 38.1038L109.946 37.6475L109.742 37.1912C111.244 36.5183 112.188 35.1756 112.948 32.7268L113.426 32.875ZM109.946 37.6475L110.151 38.1038C108.03 39.0535 104.88 38.9577 99.9358 37.9041L100.04 37.415L100.144 36.926C105.09 37.98 107.946 37.9954 109.742 37.1911L109.946 37.6475ZM100.04 37.415L99.8462 37.876C99.839 37.8729 99.8306 37.8695 99.8139 37.8627C99.7989 37.8565 99.7802 37.8489 99.7591 37.8399L99.9551 37.3799L100.151 36.9199C100.198 36.9399 100.186 36.9342 100.234 36.9541L100.04 37.415ZM99.9551 37.3799L99.7591 37.8399C99.6731 37.8032 99.5468 37.7486 99.3872 37.6782L99.5889 37.2207L99.7905 36.7632C99.9472 36.8322 100.07 36.8852 100.151 36.9199L99.9551 37.3799ZM99.5889 37.2207L99.3872 37.6782C99.0669 37.5371 98.6078 37.3298 98.0535 37.0656L98.2686 36.6143L98.4836 36.1629C99.028 36.4223 99.478 36.6254 99.7905 36.7632L99.5889 37.2207ZM98.2686 36.6143L98.0535 37.0656C96.9438 36.5368 95.4502 35.7797 93.9186 34.8659L94.1748 34.4365L94.431 34.0071C95.9279 34.9002 97.3921 35.6427 98.4836 36.1629L98.2686 36.6143ZM94.1748 34.4365L93.9186 34.8659C92.387 33.9521 90.8167 32.8813 89.5516 31.7267L89.8887 31.3574L90.2257 30.9881C91.4216 32.0795 92.9291 33.111 94.431 34.0071L94.1748 34.4365ZM89.8887 31.3574L89.5516 31.7267C88.2866 30.5722 87.3264 29.333 87.0157 28.0814L87.501 27.9609L87.9862 27.8405C88.2251 28.8028 89.008 29.8767 90.2257 30.9881L89.8887 31.3574ZM87.501 27.9609L87.6211 28.4463L86.6504 28.6865L86.5303 28.2012L86.4102 27.7158L87.3809 27.4756L87.501 27.9609ZM176.021 24.1182L176.316 24.5213L175.766 24.9246L175.471 24.5215L175.175 24.1183L175.725 23.715L176.021 24.1182ZM175.471 24.5215L175.766 24.1183L176.316 24.5216L176.021 24.9248L175.725 25.328L175.175 24.9246L175.471 24.5215ZM176.021 24.9248L176.316 24.5216L194.498 37.8566L194.202 38.2598L193.906 38.6629L175.725 25.328L176.021 24.9248ZM194.202 38.2598V38.7598H160.949V38.2598V37.7598H194.202V38.2598ZM160.949 38.2598L160.654 38.6629L141.923 24.9247L142.219 24.5215L142.514 24.1183L161.245 37.8566L160.949 38.2598ZM142.219 24.5215L141.923 24.1183L160.654 10.38L160.949 10.7832L161.245 11.1864L142.514 24.9247L142.219 24.5215ZM160.949 10.7832V10.2832H194.202V10.7832V11.2832H160.949V10.7832ZM194.202 10.7832L194.498 11.1864L176.316 24.5213L176.021 24.1182L175.725 23.715L193.906 10.38L194.202 10.7832ZM110.354 10.4824L110.15 10.9388C108.024 9.98643 104.86 10.0853 99.8897 11.1481L99.7852 10.6592L99.6806 10.1702C104.65 9.10775 108.107 8.92817 110.559 10.0261L110.354 10.4824ZM99.7852 10.6592L99.8936 11.1473L99.8497 11.157L99.7412 10.6689L99.6327 10.1809L99.6767 10.1711L99.7852 10.6592ZM99.7412 10.6689L99.925 11.1339L99.883 11.1505L99.6992 10.6855L99.5154 10.2206L99.5574 10.204L99.7412 10.6689ZM99.6992 10.6855L100.162 10.4953L100.352 10.9582L99.8896 11.1484L99.4272 11.3387L99.2368 10.8758L99.6992 10.6855ZM99.8896 11.1484L99.4277 11.3398L99.2363 10.8779L99.6982 10.6865L100.16 10.4951L100.352 10.957L99.8896 11.1484ZM99.6982 10.6865L99.9218 11.1337L99.9199 11.1347L99.6963 10.6875L99.4727 10.2403L99.4746 10.2393L99.6982 10.6865ZM99.6963 10.6875L99.8879 11.1493C99.8907 11.1482 99.8927 11.1473 99.8929 11.1472C99.8931 11.1471 99.8935 11.147 99.8924 11.1474C99.891 11.148 99.8871 11.1497 99.8824 11.1517L99.6895 10.6904L99.4965 10.2292C99.4946 10.2299 99.4934 10.2305 99.4943 10.2301C99.4944 10.2301 99.4958 10.2294 99.497 10.2289C99.4982 10.2284 99.5011 10.2271 99.5047 10.2257L99.6963 10.6875ZM99.6895 10.6904L99.8816 11.152C99.8775 11.1537 99.8738 11.1552 99.8714 11.1562C99.8694 11.157 99.866 11.1584 99.8649 11.1588C99.8612 11.1603 99.8587 11.1613 99.8563 11.1623L99.6631 10.7012L99.4698 10.24C99.4788 10.2363 99.4865 10.2332 99.4917 10.2311C99.495 10.2298 99.4957 10.2295 99.4974 10.2288C99.4988 10.2282 99.4984 10.2284 99.4973 10.2288L99.6895 10.6904ZM99.6631 10.7012L99.8565 11.1622C99.8245 11.1757 99.8023 11.1845 99.7585 11.2032L99.5625 10.7432L99.3665 10.2832C99.4096 10.2648 99.456 10.2458 99.4697 10.2401L99.6631 10.7012ZM99.5625 10.7432L99.7585 11.2031C99.674 11.2392 99.5481 11.2938 99.3872 11.3648L99.1855 10.9072L98.9839 10.4497C99.1467 10.378 99.2766 10.3215 99.3665 10.2832L99.5625 10.7432ZM99.1855 10.9072L99.3872 11.3648C99.0669 11.5059 98.6076 11.7135 98.053 11.9777L97.8379 11.5264L97.6228 11.075C98.1873 10.806 98.6556 10.5944 98.9839 10.4497L99.1855 10.9072ZM97.8379 11.5264L98.053 11.9777C96.9431 12.5067 95.4497 13.2638 93.9183 14.1774L93.6621 13.748L93.4059 13.3187C94.972 12.3843 96.4947 11.6126 97.6228 11.075L97.8379 11.5264ZM93.6621 13.748L93.9183 14.1774C92.387 15.091 90.817 16.1619 89.5519 17.3166L89.2148 16.9473L88.8778 16.578C90.212 15.3602 91.8449 14.25 93.4059 13.3187L93.6621 13.748ZM89.2148 16.9473L89.5519 17.3166C88.2867 18.4713 87.3261 19.7106 87.0156 20.9622L86.5303 20.8418L86.045 20.7214C86.4274 19.1805 87.5653 17.7759 88.8778 16.578L89.2148 16.9473ZM86.5303 20.8418L86.6504 20.3564L87.6211 20.5967L87.501 21.082L87.3809 21.5674L86.4102 21.3272L86.5303 20.8418ZM87.501 21.082L87.0157 20.9616C87.3264 19.71 88.2867 18.4708 89.5516 17.3162L89.8887 17.6855L90.2257 18.0549C89.0081 19.1662 88.2251 20.2402 87.9862 21.2025L87.501 21.082ZM89.8887 17.6855L89.5516 17.3162C90.8167 16.1616 92.387 15.0909 93.9186 14.1771L94.1748 14.6064L94.431 15.0358C92.9291 15.9319 91.4216 16.9634 90.2257 18.0549L89.8887 17.6855ZM94.1748 14.6064L93.9186 14.1771C95.4502 13.2633 96.9438 12.5061 98.0535 11.9773L98.2686 12.4287L98.4836 12.8801C97.3921 13.4002 95.9278 14.1428 94.431 15.0358L94.1748 14.6064ZM98.2686 12.4287L98.0535 11.9773C98.6078 11.7132 99.0669 11.5059 99.3872 11.3647L99.5889 11.8223L99.7905 12.2798C99.478 12.4175 99.028 12.6207 98.4836 12.8801L98.2686 12.4287ZM99.5889 11.8223L99.3872 11.3647C99.5468 11.2944 99.6731 11.2397 99.7591 11.2031L99.9551 11.6631L100.151 12.1231C100.07 12.1578 99.9472 12.2108 99.7905 12.2798L99.5889 11.8223ZM99.9551 11.6631L99.7591 11.2031C99.7802 11.1941 99.7988 11.1864 99.8139 11.1803C99.8306 11.1735 99.839 11.1701 99.8462 11.167L100.04 11.6279L100.234 12.0888C100.186 12.1088 100.198 12.1031 100.151 12.1231L99.9551 11.6631ZM100.04 11.6279L99.9358 11.1389C104.88 10.0853 108.03 9.98947 110.151 10.9392L109.946 11.3955L109.742 11.8518C107.946 11.0476 105.09 11.0629 100.144 12.1169L100.04 11.6279ZM109.946 11.3955L110.151 10.9392C112.038 11.7848 113.109 13.4596 113.903 16.0187L113.426 16.167L112.948 16.3152C112.188 13.867 111.244 12.5246 109.742 11.8518L109.946 11.3955ZM113.426 16.167L113.739 16.5566C113.428 16.8068 113.129 17.0595 112.848 17.3166L112.511 16.9473L112.174 16.578C112.474 16.3039 112.789 16.0375 113.112 15.7774L113.426 16.167ZM112.511 16.9473L112.848 17.3166C111.583 18.4713 110.622 19.7106 110.311 20.9622L109.826 20.8418L109.341 20.7214C109.723 19.1805 110.861 17.7759 112.174 16.578L112.511 16.9473ZM109.826 20.8418L109.946 20.3564L110.917 20.5967L110.797 21.082L110.677 21.5674L109.706 21.3272L109.826 20.8418ZM110.797 21.082L110.312 20.9616C110.622 19.71 111.583 18.4708 112.848 17.3162L113.185 17.6855L113.522 18.0549C112.304 19.1662 111.521 20.2402 111.282 21.2025L110.797 21.082ZM113.185 17.6855L112.848 17.3162C113.059 17.1229 113.279 16.9343 113.503 16.7488L113.822 17.1338L114.141 17.5188C113.926 17.6975 113.718 17.8754 113.522 18.0549L113.185 17.6855ZM113.822 17.1338L113.695 16.6502L114.067 16.5525L114.194 17.0361L114.321 17.5198L113.949 17.6174L113.822 17.1338ZM114.194 17.0361L114.067 16.5525L114.551 16.4256L114.678 16.9092L114.805 17.3928L114.321 17.5197L114.194 17.0361ZM114.678 16.9092L114.194 17.0364C114.162 16.9147 114.129 16.794 114.094 16.6711L114.576 16.5371L115.058 16.4032C115.092 16.5253 115.127 16.6524 115.161 16.7819L114.678 16.9092ZM114.576 16.5371L114.275 16.1384C115.206 15.4334 116.217 14.7722 117.215 14.1771L117.471 14.6064L117.727 15.0358C116.753 15.6172 115.774 16.2581 114.878 16.9359L114.576 16.5371ZM117.471 14.6064L117.215 14.1771C118.746 13.2633 120.24 12.5061 121.349 11.9773L121.564 12.4287L121.78 12.8801C120.688 13.4002 119.224 14.1428 117.727 15.0358L117.471 14.6064ZM121.564 12.4287L121.349 11.9773C121.904 11.7132 122.363 11.5059 122.683 11.3647L122.885 11.8223L123.086 12.2798C122.774 12.4175 122.324 12.6207 121.78 12.8801L121.564 12.4287ZM122.885 11.8223L122.683 11.3647C122.843 11.2944 122.969 11.2397 123.055 11.2031L123.251 11.6631L123.447 12.1231C123.366 12.1578 123.243 12.2108 123.086 12.2798L122.885 11.8223ZM123.251 11.6631L123.055 11.2031C123.076 11.1941 123.095 11.1864 123.11 11.1803C123.127 11.1735 123.135 11.1701 123.142 11.167L123.336 11.6279L123.53 12.0888C123.482 12.1088 123.494 12.1031 123.447 12.1231L123.251 11.6631ZM123.336 11.6279L123.232 11.1389C128.176 10.0853 131.326 9.98947 133.447 10.9392L133.242 11.3955L133.038 11.8518C131.242 11.0476 128.386 11.0629 123.44 12.1169L123.336 11.6279ZM133.242 11.3955L133.447 10.9392C135.573 11.8918 136.664 13.8956 137.49 17.0368L137.007 17.1641L136.523 17.2913C135.714 14.2169 134.729 12.6094 133.038 11.8518L133.242 11.3955ZM137.007 17.1641L136.879 16.6807L137.362 16.5528L137.49 17.0361L137.618 17.5195L137.135 17.6474L137.007 17.1641ZM137.49 17.0361L137.363 16.5525L137.847 16.4256L137.974 16.9092L138.101 17.3928L137.617 17.5197L137.49 17.0361ZM137.974 16.9092L137.49 17.0364C136.663 13.8952 135.572 11.8913 133.446 10.9387L133.65 10.4824L133.855 10.0261C136.417 11.1737 137.613 13.5746 138.457 16.7819L137.974 16.9092ZM133.65 10.4824L133.446 10.9388C131.319 9.98643 128.156 10.0853 123.186 11.1481L123.081 10.6592L122.977 10.1702C127.945 9.10775 131.403 8.92817 133.855 10.0261L133.65 10.4824ZM123.081 10.6592L123.19 11.1473L123.146 11.157L123.037 10.6689L122.929 10.1809L122.973 10.1711L123.081 10.6592ZM123.037 10.6689L123.221 11.1339L123.179 11.1505L122.995 10.6855L122.811 10.2206L122.853 10.204L123.037 10.6689ZM122.995 10.6855L123.458 10.4953L123.648 10.9582L123.186 11.1484L122.723 11.3387L122.533 10.8758L122.995 10.6855ZM123.186 11.1484L122.724 11.3398L122.532 10.8779L122.994 10.6865L123.456 10.4951L123.647 10.957L123.186 11.1484ZM122.994 10.6865L123.218 11.1337L123.216 11.1347L122.992 10.6875L122.769 10.2403L122.771 10.2393L122.994 10.6865ZM122.992 10.6875L123.184 11.1493C123.187 11.1482 123.189 11.1473 123.189 11.1472C123.189 11.1471 123.189 11.147 123.188 11.1474C123.187 11.148 123.183 11.1497 123.178 11.1517L122.985 10.6904L122.792 10.2292C122.791 10.2299 122.789 10.2305 122.79 10.2301C122.79 10.2301 122.792 10.2294 122.793 10.2289C122.794 10.2284 122.797 10.2271 122.801 10.2257L122.992 10.6875ZM122.985 10.6904L123.178 11.152C123.173 11.1537 123.17 11.1552 123.167 11.1562C123.165 11.157 123.162 11.1584 123.161 11.1588C123.157 11.1603 123.155 11.1613 123.152 11.1623L122.959 10.7012L122.766 10.24C122.775 10.2363 122.782 10.2332 122.788 10.2311C122.791 10.2298 122.792 10.2295 122.793 10.2288C122.795 10.2282 122.794 10.2284 122.793 10.2288L122.985 10.6904ZM122.959 10.7012L123.152 11.1622C123.12 11.1757 123.098 11.1845 123.054 11.2032L122.858 10.7432L122.662 10.2832C122.705 10.2648 122.752 10.2458 122.766 10.2401L122.959 10.7012ZM122.858 10.7432L123.054 11.2031C122.97 11.2392 122.844 11.2938 122.683 11.3648L122.481 10.9072L122.28 10.4497C122.443 10.378 122.573 10.3215 122.662 10.2832L122.858 10.7432ZM122.481 10.9072L122.683 11.3648C122.363 11.5059 121.903 11.7135 121.349 11.9777L121.134 11.5264L120.919 11.075C121.483 10.806 121.952 10.5944 122.28 10.4497L122.481 10.9072ZM121.134 11.5264L121.349 11.9777C120.239 12.5067 118.746 13.2638 117.214 14.1774L116.958 13.748L116.702 13.3187C118.268 12.3843 119.791 11.6126 120.919 11.075L121.134 11.5264ZM116.958 13.748L117.214 14.1774C116.323 14.7091 115.417 15.2975 114.564 15.9244L114.268 15.5215L113.972 15.1185C114.856 14.4692 115.789 13.8633 116.702 13.3187L116.958 13.748ZM114.268 15.5215L113.793 15.6786C113.008 13.3069 111.952 11.7458 110.15 10.9387L110.354 10.4824L110.559 10.0261C112.728 10.9979 113.917 12.87 114.742 15.3644L114.268 15.5215Z" fill="white"/>
</svg>
