<svg width="199" height="49" viewBox="0 0 199 49" fill="none" xmlns="http://www.w3.org/2000/svg">
<path d="M170.8 1C176.324 5.59131 179.102 9.29239 179.006 13.0781C178.958 14.9734 178.189 16.8231 176.804 18.7412C175.605 20.4013 173.928 22.1352 171.812 24.0215H196.733L191.417 15.8965L191.835 15.623L192.253 15.3486L198.077 24.248L198.257 24.5215L198.077 24.7959L192.253 33.6943L191.835 33.4209L191.417 33.1465L196.734 25.0215H171.737C173.707 26.9133 175.282 28.6507 176.417 30.3135C177.725 32.2299 178.467 34.0737 178.535 35.96C178.67 39.736 176.102 43.4363 170.809 48.0361L170.48 47.6592L170.152 47.2812C175.438 42.6881 177.652 39.2656 177.535 35.9951C177.476 34.358 176.832 32.6968 175.591 30.8779C174.347 29.0558 172.521 27.1018 170.14 24.8877L169.73 24.5068L170.154 24.1426C172.729 21.9294 174.678 19.9758 175.993 18.1553C177.305 16.3381 177.964 14.6812 178.006 13.0527C178.089 9.79085 175.695 6.36892 170.161 1.76953L170.8 1ZM38.7666 9.87988L58.0479 24.0215H153.665L142.965 14.2109L143.641 13.4746L154.949 23.8418L166.261 13.4746L166.937 14.2109L155.689 24.5205L166.937 34.8311L166.599 35.2002L166.261 35.5684L154.95 25.1982L143.641 35.5684L143.303 35.2002L142.965 34.8311L153.664 25.0215H58.0479L38.7666 39.1631L38.6348 39.2598H2L3.23145 38.3564L22.0938 24.5215L3.23145 10.6865L2 9.7832H38.6348L38.7666 9.87988ZM112.727 28.2012C112.38 29.5974 111.331 30.9193 110.042 32.0957C108.742 33.2819 107.141 34.3724 105.595 35.2949C104.046 36.2189 102.538 36.9833 101.419 37.5166C100.859 37.7832 100.396 37.9928 100.071 38.1357C99.9094 38.2071 99.7815 38.2626 99.6943 38.2998C99.6509 38.3183 99.6166 38.3322 99.5938 38.3418C99.5825 38.3465 99.5733 38.3501 99.5674 38.3525C99.5646 38.3537 99.5621 38.3548 99.5605 38.3555L99.5586 38.3564L99.3672 37.8945L99.5576 38.3574L99.5156 38.374L99.4717 38.3838C94.5019 39.4465 91.1915 39.5857 88.9023 38.5605C86.9167 37.671 85.7944 35.954 84.9893 33.5205C84.1204 34.1588 83.201 34.7567 82.2988 35.2949C80.7501 36.2189 79.2421 36.9833 78.123 37.5166C77.5635 37.7832 77.0997 37.9928 76.7754 38.1357C76.6135 38.2071 76.4856 38.2626 76.3984 38.2998C76.355 38.3183 76.3207 38.3322 76.2979 38.3418C76.2866 38.3465 76.2774 38.3501 76.2715 38.3525C76.2687 38.3537 76.2662 38.3548 76.2646 38.3555L76.2627 38.3564L76.0713 37.8945L76.2617 38.3574L76.2197 38.374L76.1758 38.3838C71.206 39.4465 67.8956 39.5857 65.6064 38.5605C63.2623 37.5105 62.1187 35.308 61.2832 32.1338L61.7666 32.0068L62.25 31.8789C63.068 34.9867 64.106 36.7924 66.0146 37.6475C67.9726 38.5244 70.9758 38.4689 75.9209 37.415C75.9416 37.4064 75.9704 37.395 76.0059 37.3799C76.0895 37.3442 76.2139 37.2904 76.3721 37.2207C76.6885 37.0813 77.143 36.876 77.6924 36.6143C78.793 36.0898 80.2719 35.3399 81.7861 34.4365C82.7723 33.8482 83.7667 33.1964 84.6807 32.5049C84.6467 32.3826 84.6121 32.2591 84.5791 32.1338L85.0625 32.0068L85.4346 31.9082C85.6541 31.7262 85.8682 31.5437 86.0723 31.3574C87.3136 30.2245 88.1852 29.0679 88.46 27.9609L89.4307 28.2012C89.0842 29.5974 88.035 30.9193 86.7461 32.0957C86.4553 32.3611 86.148 32.62 85.8311 32.875C86.6084 35.3793 87.6158 36.8882 89.3105 37.6475C91.2684 38.5244 94.2717 38.4689 99.2168 37.415C99.2375 37.4064 99.2663 37.395 99.3018 37.3799C99.3854 37.3442 99.5098 37.2904 99.668 37.2207C99.9844 37.0813 100.439 36.876 100.988 36.6143C102.089 36.0898 103.568 35.3399 105.082 34.4365C106.599 33.5316 108.138 32.4804 109.368 31.3574C110.609 30.2245 111.481 29.0679 111.756 27.9609L112.727 28.2012ZM23.2363 24.1182L23.7861 24.5215L23.2363 24.9248L5.05469 38.2598H38.3076L57.0381 24.5215L38.3076 10.7832H5.05469L23.2363 24.1182ZM88.9023 10.4824C91.1915 9.4573 94.5019 9.59651 99.4717 10.6592L99.5156 10.6689L99.5576 10.6855L99.3672 11.1484L99.5586 10.6865L99.5605 10.6875C99.5621 10.6881 99.5646 10.6893 99.5674 10.6904C99.5733 10.6929 99.5825 10.6964 99.5938 10.7012C99.6166 10.7107 99.6509 10.7247 99.6943 10.7432C99.7815 10.7803 99.9094 10.8359 100.071 10.9072C100.396 11.0501 100.859 11.2597 101.419 11.5264C102.538 12.0596 104.046 12.824 105.595 13.748C107.141 14.6705 108.742 15.7611 110.042 16.9473C111.331 18.1236 112.38 19.4456 112.727 20.8418L111.756 21.082C111.481 19.9751 110.609 18.8185 109.368 17.6855C108.138 16.5625 106.599 15.5114 105.082 14.6064C103.568 13.703 102.089 12.9532 100.988 12.4287C100.439 12.1669 99.9844 11.9617 99.668 11.8223C99.5099 11.7526 99.3854 11.6987 99.3018 11.6631C99.2663 11.648 99.2375 11.6366 99.2168 11.6279C94.2717 10.5741 91.2684 10.5185 89.3105 11.3955C87.616 12.1547 86.6083 13.6633 85.8311 16.167C86.1482 16.4221 86.4552 16.6817 86.7461 16.9473C88.0349 18.1236 89.0842 19.4456 89.4307 20.8418L88.46 21.082C88.1852 19.9751 87.3136 18.8185 86.0723 17.6855C85.868 17.4991 85.6543 17.3159 85.4346 17.1338L85.0625 17.0361L84.5791 16.9092C84.6122 16.7836 84.6466 16.6597 84.6807 16.5371C83.7669 15.8458 82.7721 15.1947 81.7861 14.6064C80.2719 13.703 78.793 12.9532 77.6924 12.4287C77.143 12.1669 76.6885 11.9617 76.3721 11.8223C76.214 11.7526 76.0895 11.6987 76.0059 11.6631C75.9704 11.648 75.9416 11.6366 75.9209 11.6279C70.9758 10.5741 67.9726 10.5185 66.0146 11.3955C64.106 12.2506 63.068 14.0562 62.25 17.1641L61.7666 17.0361L61.2832 16.9092C62.1187 13.7349 63.2623 11.5325 65.6064 10.4824C67.8956 9.4573 71.206 9.59651 76.1758 10.6592L76.2197 10.6689L76.2617 10.6855L76.0713 11.1484L76.2627 10.6865L76.2646 10.6875C76.2662 10.6881 76.2687 10.6893 76.2715 10.6904C76.2774 10.6929 76.2866 10.6964 76.2979 10.7012C76.3207 10.7107 76.355 10.7247 76.3984 10.7432C76.4856 10.7803 76.6135 10.8359 76.7754 10.9072C77.0997 11.0501 77.5635 11.2597 78.123 11.5264C79.2421 12.0596 80.7501 12.824 82.2988 13.748C83.2008 14.2862 84.1206 14.8834 84.9893 15.5215C85.7944 13.0885 86.9169 11.3718 88.9023 10.4824Z" fill="white"/>
<path d="M170.8 1L171.119 0.615465L170.735 0.295667L170.415 0.680677L170.8 1ZM179.006 13.0781L179.506 13.0909L179.506 13.0908L179.006 13.0781ZM176.804 18.7412L177.209 19.0339L177.209 19.0339L176.804 18.7412ZM171.812 24.0215L171.479 23.6482L170.499 24.5215H171.812V24.0215ZM196.733 24.0215V24.5215H197.658L197.152 23.7477L196.733 24.0215ZM191.417 15.8965L191.143 15.4781L190.725 15.7518L190.999 16.1702L191.417 15.8965ZM191.835 15.623L192.109 16.0415L192.109 16.041L191.835 15.623ZM192.253 15.3486L192.671 15.0748L192.397 14.6558L191.979 14.9307L192.253 15.3486ZM198.077 24.248L197.659 24.5218L197.659 24.5226L198.077 24.248ZM198.257 24.5215L198.675 24.7954L198.855 24.521L198.675 24.2469L198.257 24.5215ZM198.077 24.7959L197.659 24.522L197.659 24.5221L198.077 24.7959ZM192.253 33.6943L191.979 34.1128L192.398 34.3864L192.671 33.9682L192.253 33.6943ZM191.835 33.4209L191.561 33.8389L191.561 33.8393L191.835 33.4209ZM191.417 33.1465L190.999 32.8727L190.725 33.2904L191.143 33.5645L191.417 33.1465ZM196.734 25.0215L197.153 25.2953L197.659 24.5215H196.734V25.0215ZM171.737 25.0215V24.5215H170.495L171.391 25.3821L171.737 25.0215ZM176.417 30.3135L176.83 30.0316L176.83 30.0316L176.417 30.3135ZM178.535 35.96L179.035 35.9421L179.035 35.942L178.535 35.96ZM170.809 48.0361L170.431 48.3644L170.759 48.7412L171.137 48.4135L170.809 48.0361ZM170.48 47.6592L170.103 47.987L170.103 47.9875L170.48 47.6592ZM170.152 47.2812L169.824 46.9038L169.447 47.2317L169.775 47.609L170.152 47.2812ZM177.535 35.9951L178.035 35.9772L178.035 35.9771L177.535 35.9951ZM175.591 30.8779L176.004 30.596L176.004 30.596L175.591 30.8779ZM170.14 24.8877L169.799 25.2537L169.799 25.2539L170.14 24.8877ZM169.73 24.5068L169.405 24.1276L168.981 24.492L169.39 24.8728L169.73 24.5068ZM170.154 24.1426L170.48 24.5218L170.48 24.5217L170.154 24.1426ZM175.993 18.1553L176.399 18.448L176.399 18.448L175.993 18.1553ZM178.006 13.0527L178.506 13.0655L178.506 13.0654L178.006 13.0527ZM170.161 1.76953L169.776 1.45021L169.457 1.8347L169.842 2.15406L170.161 1.76953ZM38.7666 9.87988L39.0623 9.4767L39.0623 9.47668L38.7666 9.87988ZM58.0479 24.0215L57.7521 24.4247L57.8841 24.5215H58.0479V24.0215ZM153.665 24.0215V24.5215H154.95L154.003 23.6529L153.665 24.0215ZM142.965 14.2109L142.596 13.8729L142.258 14.2414L142.627 14.5795L142.965 14.2109ZM143.641 13.4746L143.979 13.106L143.61 12.7684L143.272 13.1365L143.641 13.4746ZM154.949 23.8418L154.611 24.2104L154.949 24.5201L155.287 24.2104L154.949 23.8418ZM166.261 13.4746L166.629 13.1365L166.291 12.7684L165.923 13.106L166.261 13.4746ZM166.937 14.2109L167.274 14.5795L167.643 14.2415L167.305 13.8729L166.937 14.2109ZM155.689 24.5205L155.352 24.1519L154.95 24.5205L155.352 24.8891L155.689 24.5205ZM166.937 34.8311L167.305 35.1687L167.643 34.8001L167.274 34.4625L166.937 34.8311ZM166.599 35.2002L166.967 35.5383L166.967 35.5378L166.599 35.2002ZM166.261 35.5684L165.923 35.9369L166.291 36.2746L166.629 35.9064L166.261 35.5684ZM154.95 25.1982L155.288 24.8297L154.95 24.5199L154.612 24.8297L154.95 25.1982ZM143.641 35.5684L143.272 35.9064L143.61 36.2746L143.979 35.9369L143.641 35.5684ZM143.303 35.2002L142.934 35.5378L142.934 35.5383L143.303 35.2002ZM142.965 34.8311L142.627 34.4625L142.259 34.8001L142.596 35.1687L142.965 34.8311ZM153.664 25.0215L154.002 25.39L154.949 24.5215H153.664V25.0215ZM58.0479 25.0215V24.5215H57.8841L57.7521 24.6183L58.0479 25.0215ZM38.7666 39.1631L39.0623 39.5663L39.0623 39.5663L38.7666 39.1631ZM38.6348 39.2598V39.7598H38.7985L38.9304 39.663L38.6348 39.2598ZM2 39.2598L1.70426 38.8566L0.473033 39.7598H2V39.2598ZM3.23145 38.3564L2.93573 37.9533L2.93571 37.9533L3.23145 38.3564ZM22.0938 24.5215L22.3895 24.9247L22.9391 24.5215L22.3895 24.1183L22.0938 24.5215ZM3.23145 10.6865L2.93571 11.0897L2.93573 11.0897L3.23145 10.6865ZM2 9.7832V9.2832H0.473033L1.70426 10.1864L2 9.7832ZM38.6348 9.7832L38.9304 9.38L38.7985 9.2832H38.6348V9.7832ZM112.727 28.2012L113.212 28.3216L113.332 27.836L112.847 27.7158L112.727 28.2012ZM110.042 32.0957L110.379 32.465L110.379 32.465L110.042 32.0957ZM105.595 35.2949L105.851 35.7243L105.851 35.7243L105.595 35.2949ZM101.419 37.5166L101.634 37.968L101.634 37.968L101.419 37.5166ZM100.071 38.1357L100.273 38.5933L100.273 38.5933L100.071 38.1357ZM99.6943 38.2998L99.8903 38.7598L99.8903 38.7598L99.6943 38.2998ZM99.5938 38.3418L99.787 38.8029L99.7872 38.8029L99.5938 38.3418ZM99.5674 38.3525L99.3752 37.8909L99.3745 37.8913L99.5674 38.3525ZM99.5605 38.3555L99.369 37.8936L99.3527 37.9004L99.3369 37.9083L99.5605 38.3555ZM99.5586 38.3564L99.0967 38.5479L99.3021 39.0437L99.7822 38.8037L99.5586 38.3564ZM99.3672 37.8945L99.8291 37.7031L98.9048 38.0848L99.3672 37.8945ZM99.5576 38.3574L99.7414 38.8224L100.213 38.636L100.02 38.1672L99.5576 38.3574ZM99.5156 38.374L99.6241 38.8621L99.6627 38.8535L99.6995 38.839L99.5156 38.374ZM99.4717 38.3838L99.5762 38.8728L99.5801 38.8719L99.4717 38.3838ZM88.9023 38.5605L88.6979 39.0169L88.698 39.0169L88.9023 38.5605ZM84.9893 33.5205L85.4639 33.3634L85.2478 32.7102L84.6932 33.1176L84.9893 33.5205ZM82.2988 35.2949L82.555 35.7243L82.555 35.7243L82.2988 35.2949ZM78.123 37.5166L78.3381 37.968L78.3381 37.968L78.123 37.5166ZM76.7754 38.1357L76.977 38.5933L76.977 38.5933L76.7754 38.1357ZM76.3984 38.2998L76.5944 38.7598L76.5944 38.7598L76.3984 38.2998ZM76.2979 38.3418L76.4911 38.8029L76.4913 38.8029L76.2979 38.3418ZM76.2715 38.3525L76.0793 37.8909L76.0786 37.8913L76.2715 38.3525ZM76.2646 38.3555L76.0731 37.8936L76.0568 37.9004L76.041 37.9083L76.2646 38.3555ZM76.2627 38.3564L75.8008 38.5479L76.0062 39.0437L76.4863 38.8037L76.2627 38.3564ZM76.0713 37.8945L76.5332 37.7031L75.6089 38.0848L76.0713 37.8945ZM76.2617 38.3574L76.4455 38.8224L76.917 38.636L76.7241 38.1672L76.2617 38.3574ZM76.2197 38.374L76.3282 38.8621L76.3668 38.8535L76.4036 38.839L76.2197 38.374ZM76.1758 38.3838L76.2803 38.8728L76.2842 38.8719L76.1758 38.3838ZM65.6064 38.5605L65.402 39.0169L65.4021 39.0169L65.6064 38.5605ZM61.2832 32.1338L61.1562 31.6502L60.6723 31.7773L60.7997 32.2611L61.2832 32.1338ZM61.7666 32.0068L61.8936 32.4904L61.8945 32.4902L61.7666 32.0068ZM62.25 31.8789L62.7335 31.7516L62.6061 31.2675L62.1221 31.3955L62.25 31.8789ZM66.0146 37.6475L65.8102 38.1038L65.8103 38.1038L66.0146 37.6475ZM75.9209 37.415L76.0251 37.9041L76.0712 37.8942L76.1147 37.876L75.9209 37.415ZM76.0059 37.3799L76.2018 37.8399L76.2019 37.8399L76.0059 37.3799ZM76.3721 37.2207L76.5737 37.6782L76.5737 37.6782L76.3721 37.2207ZM77.6924 36.6143L77.9075 37.0656L77.9075 37.0656L77.6924 36.6143ZM81.7861 34.4365L82.0423 34.8659L82.0423 34.8659L81.7861 34.4365ZM84.6807 32.5049L84.9823 32.9036L85.2535 32.6985L85.1624 32.3709L84.6807 32.5049ZM84.5791 32.1338L84.4521 31.6502L83.9682 31.7773L84.0956 32.2611L84.5791 32.1338ZM85.0625 32.0068L85.1895 32.4904L85.1906 32.4901L85.0625 32.0068ZM85.4346 31.9082L85.5627 32.3915L85.669 32.3633L85.7536 32.2932L85.4346 31.9082ZM86.0723 31.3574L86.4093 31.7267L86.4093 31.7267L86.0723 31.3574ZM88.46 27.9609L88.5801 27.4756L88.0951 27.3555L87.9747 27.8405L88.46 27.9609ZM89.4307 28.2012L89.9159 28.3216L90.0364 27.836L89.5508 27.7158L89.4307 28.2012ZM86.7461 32.0957L87.0832 32.465L87.0832 32.465L86.7461 32.0957ZM85.8311 32.875L85.5177 32.4854L85.2527 32.6985L85.3535 33.0232L85.8311 32.875ZM89.3105 37.6475L89.1061 38.1038L89.1062 38.1038L89.3105 37.6475ZM99.2168 37.415L99.321 37.9041L99.3671 37.8942L99.4106 37.876L99.2168 37.415ZM99.3018 37.3799L99.4977 37.8399L99.4978 37.8399L99.3018 37.3799ZM99.668 37.2207L99.8696 37.6782L99.8696 37.6782L99.668 37.2207ZM100.988 36.6143L101.203 37.0656L101.203 37.0656L100.988 36.6143ZM105.082 34.4365L105.338 34.8659L105.338 34.8659L105.082 34.4365ZM109.368 31.3574L109.705 31.7267L109.705 31.7267L109.368 31.3574ZM111.756 27.9609L111.876 27.4756L111.391 27.3555L111.271 27.8405L111.756 27.9609ZM23.2363 24.1182L23.5321 23.715L23.532 23.715L23.2363 24.1182ZM23.7861 24.5215L24.0819 24.9246L24.6315 24.5215L24.0819 24.1183L23.7861 24.5215ZM23.2363 24.9248L23.532 25.328L23.5321 25.328L23.2363 24.9248ZM5.05469 38.2598L4.75898 37.8566L3.52753 38.7598H5.05469V38.2598ZM38.3076 38.2598V38.7598H38.4713L38.6033 38.6629L38.3076 38.2598ZM57.0381 24.5215L57.3338 24.9247L57.8835 24.5215L57.3338 24.1183L57.0381 24.5215ZM38.3076 10.7832L38.6033 10.38L38.4713 10.2832H38.3076V10.7832ZM5.05469 10.7832V10.2832H3.52753L4.75898 11.1864L5.05469 10.7832ZM88.9023 10.4824L88.698 10.0261L88.6979 10.0261L88.9023 10.4824ZM99.4717 10.6592L99.5801 10.1711L99.5762 10.1702L99.4717 10.6592ZM99.5156 10.6689L99.6995 10.204L99.6627 10.1894L99.6241 10.1809L99.5156 10.6689ZM99.5576 10.6855L100.02 10.8758L100.213 10.407L99.7414 10.2206L99.5576 10.6855ZM99.3672 11.1484L98.9048 10.9582L99.8291 11.3398L99.3672 11.1484ZM99.5586 10.6865L99.7822 10.2393L99.3021 9.99928L99.0967 10.4951L99.5586 10.6865ZM99.5605 10.6875L99.3369 11.1347L99.3527 11.1426L99.369 11.1493L99.5605 10.6875ZM99.5674 10.6904L99.3744 11.1517L99.3752 11.152L99.5674 10.6904ZM99.5938 10.7012L99.7872 10.2401L99.787 10.24L99.5938 10.7012ZM99.6943 10.7432L99.8903 10.2832L99.8903 10.2832L99.6943 10.7432ZM100.071 10.9072L100.273 10.4497L100.273 10.4497L100.071 10.9072ZM101.419 11.5264L101.634 11.075L101.634 11.075L101.419 11.5264ZM105.595 13.748L105.851 13.3187L105.851 13.3187L105.595 13.748ZM110.042 16.9473L110.379 16.578L110.379 16.578L110.042 16.9473ZM112.727 20.8418L112.847 21.3272L113.332 21.207L113.212 20.7214L112.727 20.8418ZM111.756 21.082L111.271 21.2025L111.391 21.6874L111.876 21.5674L111.756 21.082ZM109.368 17.6855L109.705 17.3162L109.705 17.3162L109.368 17.6855ZM105.082 14.6064L105.338 14.1771L105.338 14.1771L105.082 14.6064ZM100.988 12.4287L101.203 11.9773L101.203 11.9773L100.988 12.4287ZM99.668 11.8223L99.8696 11.3647L99.8696 11.3647L99.668 11.8223ZM99.3018 11.6631L99.4978 11.2031L99.4977 11.2031L99.3018 11.6631ZM99.2168 11.6279L99.4106 11.167L99.3671 11.1487L99.321 11.1389L99.2168 11.6279ZM89.3105 11.3955L89.1062 10.9392L89.1061 10.9392L89.3105 11.3955ZM85.8311 16.167L85.3535 16.0187L85.2527 16.3435L85.5177 16.5566L85.8311 16.167ZM86.7461 16.9473L87.0832 16.578L87.0832 16.578L86.7461 16.9473ZM89.4307 20.8418L89.5508 21.3272L90.0364 21.207L89.9159 20.7214L89.4307 20.8418ZM88.46 21.082L87.9747 21.2025L88.0951 21.6874L88.5801 21.5674L88.46 21.082ZM86.0723 17.6855L86.4093 17.3162L86.4093 17.3162L86.0723 17.6855ZM85.4346 17.1338L85.7536 16.7488L85.6685 16.6782L85.5615 16.6502L85.4346 17.1338ZM85.0625 17.0361L84.9355 17.5197L84.9356 17.5198L85.0625 17.0361ZM84.5791 16.9092L84.0956 16.7819L83.9682 17.2657L84.4521 17.3928L84.5791 16.9092ZM84.6807 16.5371L85.1624 16.6711L85.2535 16.3435L84.9823 16.1384L84.6807 16.5371ZM81.7861 14.6064L82.0423 14.1771L82.0423 14.1771L81.7861 14.6064ZM77.6924 12.4287L77.9075 11.9773L77.9075 11.9773L77.6924 12.4287ZM76.3721 11.8223L76.5737 11.3647L76.5737 11.3647L76.3721 11.8223ZM76.0059 11.6631L76.2019 11.2031L76.2018 11.2031L76.0059 11.6631ZM75.9209 11.6279L76.1147 11.167L76.0712 11.1487L76.0251 11.1389L75.9209 11.6279ZM66.0146 11.3955L65.8103 10.9392L65.8102 10.9392L66.0146 11.3955ZM62.25 17.1641L62.1221 17.6474L62.6061 17.7755L62.7335 17.2913L62.25 17.1641ZM61.7666 17.0361L61.8945 16.5528L61.8936 16.5525L61.7666 17.0361ZM61.2832 16.9092L60.7997 16.7819L60.6723 17.2657L61.1562 17.3928L61.2832 16.9092ZM65.6064 10.4824L65.4021 10.0261L65.402 10.0261L65.6064 10.4824ZM76.1758 10.6592L76.2842 10.1711L76.2803 10.1702L76.1758 10.6592ZM76.2197 10.6689L76.4036 10.204L76.3668 10.1894L76.3282 10.1809L76.2197 10.6689ZM76.2617 10.6855L76.7241 10.8758L76.917 10.407L76.4455 10.2206L76.2617 10.6855ZM76.0713 11.1484L75.6089 10.9582L76.5332 11.3398L76.0713 11.1484ZM76.2627 10.6865L76.4863 10.2393L76.0062 9.99928L75.8008 10.4951L76.2627 10.6865ZM76.2646 10.6875L76.041 11.1347L76.0568 11.1426L76.0731 11.1493L76.2646 10.6875ZM76.2715 10.6904L76.0785 11.1517L76.0793 11.152L76.2715 10.6904ZM76.2979 10.7012L76.4913 10.2401L76.4911 10.24L76.2979 10.7012ZM76.3984 10.7432L76.5944 10.2832L76.5944 10.2832L76.3984 10.7432ZM76.7754 10.9072L76.977 10.4497L76.977 10.4497L76.7754 10.9072ZM78.123 11.5264L78.3381 11.075L78.3381 11.075L78.123 11.5264ZM82.2988 13.748L82.555 13.3187L82.555 13.3187L82.2988 13.748ZM84.9893 15.5215L84.6932 15.9244L85.2478 16.3318L85.4639 15.6786L84.9893 15.5215ZM170.8 1L170.48 1.38453C176.01 5.97992 178.596 9.54158 178.506 13.0654L179.006 13.0781L179.506 13.0908C179.609 9.0432 176.639 5.2027 171.119 0.615465L170.8 1ZM179.006 13.0781L178.506 13.0654C178.461 14.8272 177.747 16.5808 176.398 18.4485L176.804 18.7412L177.209 19.0339C178.631 17.0654 179.454 15.1195 179.506 13.0909L179.006 13.0781ZM176.804 18.7412L176.398 18.4485C175.23 20.0667 173.583 21.7731 171.479 23.6482L171.812 24.0215L172.144 24.3948C174.273 22.4974 175.98 20.7359 177.209 19.0339L176.804 18.7412ZM171.812 24.0215V24.5215H196.733V24.0215V23.5215H171.812V24.0215ZM196.733 24.0215L197.152 23.7477L191.835 15.6227L191.417 15.8965L190.999 16.1702L196.315 24.2952L196.733 24.0215ZM191.417 15.8965L191.691 16.3149L192.109 16.0415L191.835 15.623L191.561 15.2046L191.143 15.4781L191.417 15.8965ZM191.835 15.623L192.109 16.041L192.527 15.7666L192.253 15.3486L191.979 14.9307L191.561 15.2051L191.835 15.623ZM192.253 15.3486L191.835 15.6224L197.659 24.5218L198.077 24.248L198.496 23.9742L192.671 15.0748L192.253 15.3486ZM198.077 24.248L197.659 24.5226L197.839 24.7961L198.257 24.5215L198.675 24.2469L198.495 23.9735L198.077 24.248ZM198.257 24.5215L197.839 24.2476L197.659 24.522L198.077 24.7959L198.495 25.0698L198.675 24.7954L198.257 24.5215ZM198.077 24.7959L197.659 24.5221L191.835 33.4205L192.253 33.6943L192.671 33.9682L198.496 25.0697L198.077 24.7959ZM192.253 33.6943L192.527 33.2759L192.109 33.0025L191.835 33.4209L191.561 33.8393L191.979 34.1128L192.253 33.6943ZM191.835 33.4209L192.109 33.0029L191.691 32.7285L191.417 33.1465L191.143 33.5645L191.561 33.8389L191.835 33.4209ZM191.417 33.1465L191.835 33.4203L197.153 25.2953L196.734 25.0215L196.316 24.7477L190.999 32.8727L191.417 33.1465ZM196.734 25.0215V24.5215H171.737V25.0215V25.5215H196.734V25.0215ZM171.737 25.0215L171.391 25.3821C173.349 27.263 174.897 28.9732 176.004 30.5954L176.417 30.3135L176.83 30.0316C175.667 28.3282 174.064 26.5636 172.084 24.6609L171.737 25.0215ZM176.417 30.3135L176.004 30.5954C177.279 32.4631 177.972 34.2162 178.035 35.9779L178.535 35.96L179.035 35.942C178.963 33.9312 178.171 31.9967 176.83 30.0316L176.417 30.3135ZM178.535 35.96L178.035 35.9779C178.162 39.5011 175.77 43.0623 170.481 47.6587L170.809 48.0361L171.137 48.4135C176.434 43.8102 179.179 39.9709 179.035 35.9421L178.535 35.96ZM170.809 48.0361L171.186 47.7078L170.858 47.3309L170.48 47.6592L170.103 47.9875L170.431 48.3644L170.809 48.0361ZM170.48 47.6592L170.858 47.3314L170.53 46.9535L170.152 47.2812L169.775 47.609L170.103 47.987L170.48 47.6592ZM170.152 47.2812L170.48 47.6587C175.77 43.062 178.161 39.5005 178.035 35.9772L177.535 35.9951L177.035 36.013C177.144 39.0307 175.106 42.3142 169.824 46.9038L170.152 47.2812ZM177.535 35.9951L178.035 35.9771C177.971 34.2156 177.279 32.4636 176.004 30.596L175.591 30.8779L175.178 31.1598C176.386 32.9299 176.981 34.5005 177.035 36.0131L177.535 35.9951ZM175.591 30.8779L176.004 30.596C174.729 28.7284 172.872 26.7447 170.48 24.5215L170.14 24.8877L169.799 25.2539C172.171 27.4589 173.965 29.3833 175.178 31.1598L175.591 30.8779ZM170.14 24.8877L170.48 24.5217L170.071 24.1408L169.73 24.5068L169.39 24.8728L169.799 25.2537L170.14 24.8877ZM169.73 24.5068L170.056 24.886L170.48 24.5218L170.154 24.1426L169.828 23.7634L169.405 24.1276L169.73 24.5068ZM170.154 24.1426L170.48 24.5217C173.065 22.2992 175.05 20.3157 176.399 18.448L175.993 18.1553L175.588 17.8625C174.307 19.6359 172.392 21.5595 169.828 23.7634L170.154 24.1426ZM175.993 18.1553L176.399 18.448C177.747 16.5803 178.461 14.8272 178.506 13.0655L178.006 13.0527L177.506 13.04C177.468 14.5351 176.863 16.0959 175.588 17.8626L175.993 18.1553ZM178.006 13.0527L178.506 13.0654C178.595 9.54161 176.01 5.98025 170.481 1.385L170.161 1.76953L169.842 2.15406C175.381 6.75759 177.582 10.0401 177.506 13.04L178.006 13.0527ZM170.161 1.76953L170.546 2.08885L171.185 1.31932L170.8 1L170.415 0.680677L169.776 1.45021L170.161 1.76953ZM38.7666 9.87988L38.4709 10.2831L57.7521 24.4247L58.0479 24.0215L58.3436 23.6183L39.0623 9.4767L38.7666 9.87988ZM58.0479 24.0215V24.5215H153.665V24.0215V23.5215H58.0479V24.0215ZM153.665 24.0215L154.003 23.6529L143.303 13.8424L142.965 14.2109L142.627 14.5795L153.327 24.39L153.665 24.0215ZM142.965 14.2109L143.333 14.549L144.009 13.8127L143.641 13.4746L143.272 13.1365L142.596 13.8729L142.965 14.2109ZM143.641 13.4746L143.303 13.8432L154.611 24.2104L154.949 23.8418L155.287 23.4732L143.979 13.106L143.641 13.4746ZM154.949 23.8418L155.287 24.2104L166.599 13.8432L166.261 13.4746L165.923 13.106L154.611 23.4732L154.949 23.8418ZM166.261 13.4746L165.892 13.8127L166.568 14.549L166.937 14.2109L167.305 13.8729L166.629 13.1365L166.261 13.4746ZM166.937 14.2109L166.599 13.8424L155.352 24.1519L155.689 24.5205L156.027 24.8891L167.274 14.5795L166.937 14.2109ZM155.689 24.5205L155.352 24.8891L166.599 35.1996L166.937 34.8311L167.274 34.4625L156.027 24.1519L155.689 24.5205ZM166.937 34.8311L166.568 34.4935L166.23 34.8626L166.599 35.2002L166.967 35.5378L167.305 35.1687L166.937 34.8311ZM166.599 35.2002L166.23 34.8621L165.892 35.2303L166.261 35.5684L166.629 35.9064L166.967 35.5383L166.599 35.2002ZM166.261 35.5684L166.599 35.1998L155.288 24.8297L154.95 25.1982L154.612 25.5668L165.923 35.9369L166.261 35.5684ZM154.95 25.1982L154.612 24.8297L143.303 35.1998L143.641 35.5684L143.979 35.9369L155.288 25.5668L154.95 25.1982ZM143.641 35.5684L144.009 35.2303L143.671 34.8621L143.303 35.2002L142.934 35.5383L143.272 35.9064L143.641 35.5684ZM143.303 35.2002L143.672 34.8626L143.334 34.4935L142.965 34.8311L142.596 35.1687L142.934 35.5378L143.303 35.2002ZM142.965 34.8311L143.303 35.1996L154.002 25.39L153.664 25.0215L153.326 24.6529L142.627 34.4625L142.965 34.8311ZM153.664 25.0215V24.5215H58.0479V25.0215V25.5215H153.664V25.0215ZM58.0479 25.0215L57.7521 24.6183L38.4709 38.7599L38.7666 39.1631L39.0623 39.5663L58.3436 25.4247L58.0479 25.0215ZM38.7666 39.1631L38.4709 38.7599L38.3391 38.8566L38.6348 39.2598L38.9304 39.663L39.0623 39.5663L38.7666 39.1631ZM38.6348 39.2598V38.7598H2V39.2598V39.7598H38.6348V39.2598ZM2 39.2598L2.29574 39.6629L3.52718 38.7596L3.23145 38.3564L2.93571 37.9533L1.70426 38.8566L2 39.2598ZM3.23145 38.3564L3.52716 38.7596L22.3895 24.9247L22.0938 24.5215L21.798 24.1183L2.93573 37.9533L3.23145 38.3564ZM22.0938 24.5215L22.3895 24.1183L3.52716 10.2833L3.23145 10.6865L2.93573 11.0897L21.798 24.9247L22.0938 24.5215ZM3.23145 10.6865L3.52718 10.2834L2.29574 9.38004L2 9.7832L1.70426 10.1864L2.93571 11.0897L3.23145 10.6865ZM2 9.7832V10.2832H38.6348V9.7832V9.2832H2V9.7832ZM38.6348 9.7832L38.3391 10.1864L38.4709 10.2831L38.7666 9.87988L39.0623 9.47668L38.9304 9.38L38.6348 9.7832ZM112.727 28.2012L112.241 28.0807C111.931 29.3323 110.97 30.5716 109.705 31.7264L110.042 32.0957L110.379 32.465C111.692 31.2671 112.829 29.8625 113.212 28.3216L112.727 28.2012ZM110.042 32.0957L109.705 31.7264C108.44 32.881 106.87 33.9519 105.339 34.8655L105.595 35.2949L105.851 35.7243C107.412 34.7929 109.045 33.6828 110.379 32.465L110.042 32.0957ZM105.595 35.2949L105.339 34.8655C103.807 35.7792 102.314 36.5363 101.204 37.0652L101.419 37.5166L101.634 37.968C102.762 37.4304 104.285 36.6587 105.851 35.7243L105.595 35.2949ZM101.419 37.5166L101.204 37.0652C100.649 37.3295 100.19 37.537 99.8697 37.6782L100.071 38.1357L100.273 38.5933C100.601 38.4486 101.07 38.237 101.634 37.968L101.419 37.5166ZM100.071 38.1357L99.8697 37.6782C99.7087 37.7491 99.5829 37.8038 99.4983 37.8398L99.6943 38.2998L99.8903 38.7598C99.9802 38.7215 100.11 38.665 100.273 38.5933L100.071 38.1357ZM99.6943 38.2998L99.4984 37.8398C99.4545 37.8585 99.4324 37.8673 99.4003 37.8807L99.5938 38.3418L99.7872 38.8029C99.8008 38.7972 99.8473 38.7781 99.8903 38.7598L99.6943 38.2998ZM99.5938 38.3418L99.4005 37.8806C99.3982 37.8816 99.3956 37.8827 99.392 37.8841C99.3908 37.8846 99.3874 37.886 99.3854 37.8868C99.3831 37.8877 99.3793 37.8892 99.3752 37.8909L99.5674 38.3525L99.7596 38.8141C99.7584 38.8146 99.758 38.8148 99.7594 38.8142C99.7612 38.8135 99.7619 38.8132 99.7651 38.8119C99.7703 38.8098 99.778 38.8067 99.787 38.8029L99.5938 38.3418ZM99.5674 38.3525L99.3745 37.8913C99.3697 37.8932 99.3658 37.8949 99.3644 37.8955C99.3633 37.896 99.3637 37.8959 99.3639 37.8958C99.3641 37.8957 99.3662 37.8948 99.369 37.8936L99.5605 38.3555L99.7521 38.8173C99.7557 38.8158 99.7586 38.8146 99.7598 38.814C99.7611 38.8135 99.7625 38.8129 99.7626 38.8129C99.7635 38.8125 99.7622 38.813 99.7603 38.8138L99.5674 38.3525ZM99.5605 38.3555L99.3369 37.9083L99.335 37.9092L99.5586 38.3564L99.7822 38.8037L99.7842 38.8027L99.5605 38.3555ZM99.5586 38.3564L100.021 38.165L99.8291 37.7031L99.3672 37.8945L98.9053 38.0859L99.0967 38.5479L99.5586 38.3564ZM99.3672 37.8945L98.9048 38.0848L99.0952 38.5476L99.5576 38.3574L100.02 38.1672L99.8296 37.7043L99.3672 37.8945ZM99.5576 38.3574L99.3738 37.8924L99.3318 37.909L99.5156 38.374L99.6995 38.839L99.7414 38.8224L99.5576 38.3574ZM99.5156 38.374L99.4072 37.8859L99.3632 37.8957L99.4717 38.3838L99.5801 38.8719L99.6241 38.8621L99.5156 38.374ZM99.4717 38.3838L99.3671 37.8948C94.3965 38.9577 91.2333 39.0565 89.1067 38.1042L88.9023 38.5605L88.698 39.0169C91.1497 40.1148 94.6073 39.9352 99.5762 38.8727L99.4717 38.3838ZM88.9023 38.5605L89.1068 38.1042C87.305 37.2971 86.2488 35.7357 85.4639 33.3634L84.9893 33.5205L84.5146 33.6776C85.34 36.1724 86.5283 38.0449 88.6979 39.0169L88.9023 38.5605ZM84.9893 33.5205L84.6932 33.1176C83.8395 33.7447 82.9337 34.3339 82.0426 34.8655L82.2988 35.2949L82.555 35.7243C83.4682 35.1794 84.4014 34.5728 85.2853 33.9235L84.9893 33.5205ZM82.2988 35.2949L82.0426 34.8655C80.5113 35.7792 79.0179 36.5363 77.908 37.0652L78.123 37.5166L78.3381 37.968C79.4662 37.4304 80.989 36.6587 82.555 35.7243L82.2988 35.2949ZM78.123 37.5166L77.908 37.0652C77.3534 37.3295 76.8941 37.537 76.5738 37.6782L76.7754 38.1357L76.977 38.5933C77.3053 38.4486 77.7737 38.237 78.3381 37.968L78.123 37.5166ZM76.7754 38.1357L76.5738 37.6782C76.4128 37.7491 76.287 37.8038 76.2024 37.8398L76.3984 38.2998L76.5944 38.7598C76.6843 38.7215 76.8142 38.665 76.977 38.5933L76.7754 38.1357ZM76.3984 38.2998L76.2025 37.8398C76.1586 37.8585 76.1365 37.8673 76.1044 37.8807L76.2979 38.3418L76.4913 38.8029C76.5049 38.7972 76.5514 38.7781 76.5944 38.7598L76.3984 38.2998ZM76.2979 38.3418L76.1046 37.8806C76.1023 37.8816 76.0997 37.8827 76.0961 37.8841C76.0949 37.8846 76.0915 37.886 76.0895 37.8868C76.0872 37.8877 76.0834 37.8892 76.0793 37.8909L76.2715 38.3525L76.4637 38.8141C76.4625 38.8146 76.4621 38.8148 76.4635 38.8142C76.4653 38.8135 76.466 38.8132 76.4692 38.8119C76.4744 38.8098 76.4821 38.8067 76.4911 38.8029L76.2979 38.3418ZM76.2715 38.3525L76.0786 37.8913C76.0739 37.8932 76.0699 37.8949 76.0685 37.8955C76.0674 37.896 76.0678 37.8959 76.068 37.8958C76.0682 37.8957 76.0703 37.8948 76.0731 37.8936L76.2646 38.3555L76.4562 38.8173C76.4598 38.8158 76.4627 38.8146 76.4639 38.814C76.4652 38.8135 76.4666 38.8129 76.4667 38.8129C76.4676 38.8125 76.4663 38.813 76.4644 38.8138L76.2715 38.3525ZM76.2646 38.3555L76.041 37.9083L76.0391 37.9092L76.2627 38.3564L76.4863 38.8037L76.4883 38.8027L76.2646 38.3555ZM76.2627 38.3564L76.7246 38.165L76.5332 37.7031L76.0713 37.8945L75.6094 38.0859L75.8008 38.5479L76.2627 38.3564ZM76.0713 37.8945L75.6089 38.0848L75.7993 38.5476L76.2617 38.3574L76.7241 38.1672L76.5337 37.7043L76.0713 37.8945ZM76.2617 38.3574L76.0779 37.8924L76.0359 37.909L76.2197 38.374L76.4036 38.839L76.4455 38.8224L76.2617 38.3574ZM76.2197 38.374L76.1113 37.8859L76.0673 37.8957L76.1758 38.3838L76.2842 38.8719L76.3282 38.8621L76.2197 38.374ZM76.1758 38.3838L76.0712 37.8948C71.1006 38.9577 67.9374 39.0565 65.8108 38.1042L65.6064 38.5605L65.4021 39.0169C67.8538 40.1148 71.3114 39.9352 76.2803 38.8727L76.1758 38.3838ZM65.6064 38.5605L65.8109 38.1042C63.6845 37.1517 62.5935 35.1478 61.7667 32.0065L61.2832 32.1338L60.7997 32.2611C61.6438 35.4683 62.8402 37.8692 65.402 39.0169L65.6064 38.5605ZM61.2832 32.1338L61.4102 32.6174L61.8936 32.4904L61.7666 32.0068L61.6396 31.5232L61.1562 31.6502L61.2832 32.1338ZM61.7666 32.0068L61.8945 32.4902L62.3779 32.3623L62.25 31.8789L62.1221 31.3955L61.6387 31.5235L61.7666 32.0068ZM62.25 31.8789L61.7665 32.0062C62.5932 35.1474 63.6841 37.1512 65.8102 38.1038L66.0146 37.6475L66.2191 37.1912C64.528 36.4335 63.5427 34.8261 62.7335 31.7516L62.25 31.8789ZM66.0146 37.6475L65.8103 38.1038C67.9306 39.0535 71.0809 38.9577 76.0251 37.9041L75.9209 37.415L75.8167 36.926C70.8707 37.98 68.0145 37.9954 66.219 37.1911L66.0146 37.6475ZM75.9209 37.415L76.1147 37.876C76.122 37.8729 76.1303 37.8695 76.147 37.8627C76.1621 37.8565 76.1808 37.8489 76.2018 37.8399L76.0059 37.3799L75.8099 36.9199C75.7629 36.9399 75.7744 36.9342 75.7271 36.9541L75.9209 37.415ZM76.0059 37.3799L76.2019 37.8399C76.2878 37.8032 76.4142 37.7486 76.5737 37.6782L76.3721 37.2207L76.1704 36.7632C76.0137 36.8322 75.8913 36.8852 75.8099 36.9199L76.0059 37.3799ZM76.3721 37.2207L76.5737 37.6782C76.894 37.5371 77.3531 37.3298 77.9075 37.0656L77.6924 36.6143L77.4773 36.1629C76.933 36.4223 76.4829 36.6254 76.1704 36.7632L76.3721 37.2207ZM77.6924 36.6143L77.9075 37.0656C79.0171 36.5368 80.5108 35.7797 82.0423 34.8659L81.7861 34.4365L81.53 34.0071C80.0331 34.9002 78.5688 35.6427 77.4773 36.1629L77.6924 36.6143ZM81.7861 34.4365L82.0423 34.8659C83.0402 34.2705 84.0506 33.6086 84.9823 32.9036L84.6807 32.5049L84.379 32.1061C83.4829 32.7841 82.5043 33.4258 81.5299 34.0071L81.7861 34.4365ZM84.6807 32.5049L85.1624 32.3709C85.128 32.2472 85.0945 32.1277 85.0626 32.0065L84.5791 32.1338L84.0956 32.2611C84.1296 32.3905 84.1653 32.518 84.1989 32.6388L84.6807 32.5049ZM84.5791 32.1338L84.7061 32.6174L85.1895 32.4904L85.0625 32.0068L84.9355 31.5232L84.4521 31.6502L84.5791 32.1338ZM85.0625 32.0068L85.1906 32.4901L85.5627 32.3915L85.4346 31.9082L85.3064 31.4249L84.9344 31.5235L85.0625 32.0068ZM85.4346 31.9082L85.7536 32.2932C85.9764 32.1085 86.1971 31.9204 86.4093 31.7267L86.0723 31.3574L85.7352 30.9881C85.5392 31.167 85.3318 31.3439 85.1155 31.5232L85.4346 31.9082ZM86.0723 31.3574L86.4093 31.7267C87.6743 30.5722 88.6345 29.333 88.9452 28.0814L88.46 27.9609L87.9747 27.8405C87.7358 28.8028 86.9529 29.8767 85.7352 30.9881L86.0723 31.3574ZM88.46 27.9609L88.3398 28.4463L89.3105 28.6865L89.4307 28.2012L89.5508 27.7158L88.5801 27.4756L88.46 27.9609ZM89.4307 28.2012L88.9454 28.0807C88.6348 29.3323 87.6742 30.5716 86.409 31.7264L86.7461 32.0957L87.0832 32.465C88.3957 31.2671 89.5336 29.8625 89.9159 28.3216L89.4307 28.2012ZM86.7461 32.0957L86.409 31.7264C86.128 31.9829 85.829 32.2349 85.5177 32.4854L85.8311 32.875L86.1445 33.2646C86.4671 33.0051 86.7826 32.7393 87.0832 32.465L86.7461 32.0957ZM85.8311 32.875L85.3535 33.0232C86.148 35.5829 87.2185 37.2581 89.1061 38.1038L89.3105 37.6475L89.515 37.1912C88.0131 36.5183 87.0687 35.1756 86.3086 32.7268L85.8311 32.875ZM89.3105 37.6475L89.1062 38.1038C91.2265 39.0535 94.3768 38.9577 99.321 37.9041L99.2168 37.415L99.1126 36.926C94.1666 37.98 91.3104 37.9954 89.5149 37.1911L89.3105 37.6475ZM99.2168 37.415L99.4106 37.876C99.4179 37.8729 99.4262 37.8695 99.4429 37.8627C99.458 37.8565 99.4767 37.8489 99.4977 37.8399L99.3018 37.3799L99.1058 36.9199C99.0588 36.9399 99.0703 36.9342 99.023 36.9541L99.2168 37.415ZM99.3018 37.3799L99.4978 37.8399C99.5837 37.8032 99.71 37.7486 99.8696 37.6782L99.668 37.2207L99.4663 36.7632C99.3096 36.8322 99.1872 36.8852 99.1058 36.9199L99.3018 37.3799ZM99.668 37.2207L99.8696 37.6782C100.19 37.5371 100.649 37.3298 101.203 37.0656L100.988 36.6143L100.773 36.1629C100.229 36.4223 99.7788 36.6254 99.4663 36.7632L99.668 37.2207ZM100.988 36.6143L101.203 37.0656C102.313 36.5368 103.807 35.7797 105.338 34.8659L105.082 34.4365L104.826 34.0071C103.329 34.9002 101.865 35.6427 100.773 36.1629L100.988 36.6143ZM105.082 34.4365L105.338 34.8659C106.87 33.9521 108.44 32.8813 109.705 31.7267L109.368 31.3574L109.031 30.9881C107.835 32.0795 106.328 33.111 104.826 34.0071L105.082 34.4365ZM109.368 31.3574L109.705 31.7267C110.97 30.5722 111.93 29.333 112.241 28.0814L111.756 27.9609L111.271 27.8405C111.032 28.8028 110.249 29.8767 109.031 30.9881L109.368 31.3574ZM111.756 27.9609L111.636 28.4463L112.606 28.6865L112.727 28.2012L112.847 27.7158L111.876 27.4756L111.756 27.9609ZM23.2363 24.1182L22.9406 24.5213L23.4904 24.9246L23.7861 24.5215L24.0819 24.1183L23.5321 23.715L23.2363 24.1182ZM23.7861 24.5215L23.4904 24.1183L22.9406 24.5216L23.2363 24.9248L23.5321 25.328L24.0819 24.9246L23.7861 24.5215ZM23.2363 24.9248L22.9406 24.5216L4.75898 37.8566L5.05469 38.2598L5.35039 38.6629L23.532 25.328L23.2363 24.9248ZM5.05469 38.2598V38.7598H38.3076V38.2598V37.7598H5.05469V38.2598ZM38.3076 38.2598L38.6033 38.6629L57.3338 24.9247L57.0381 24.5215L56.7424 24.1183L38.0119 37.8566L38.3076 38.2598ZM57.0381 24.5215L57.3338 24.1183L38.6033 10.38L38.3076 10.7832L38.0119 11.1864L56.7424 24.9247L57.0381 24.5215ZM38.3076 10.7832V10.2832H5.05469V10.7832V11.2832H38.3076V10.7832ZM5.05469 10.7832L4.75898 11.1864L22.9406 24.5213L23.2363 24.1182L23.532 23.715L5.35039 10.38L5.05469 10.7832ZM88.9023 10.4824L89.1067 10.9388C91.2333 9.98643 94.3965 10.0853 99.3671 11.1481L99.4717 10.6592L99.5762 10.1702C94.6073 9.10775 91.1497 8.92817 88.698 10.0261L88.9023 10.4824ZM99.4717 10.6592L99.3632 11.1473L99.4072 11.157L99.5156 10.6689L99.6241 10.1809L99.5801 10.1711L99.4717 10.6592ZM99.5156 10.6689L99.3318 11.1339L99.3738 11.1505L99.5576 10.6855L99.7414 10.2206L99.6995 10.204L99.5156 10.6689ZM99.5576 10.6855L99.0952 10.4953L98.9048 10.9582L99.3672 11.1484L99.8296 11.3387L100.02 10.8758L99.5576 10.6855ZM99.3672 11.1484L99.8291 11.3398L100.021 10.8779L99.5586 10.6865L99.0967 10.4951L98.9053 10.957L99.3672 11.1484ZM99.5586 10.6865L99.335 11.1337L99.3369 11.1347L99.5605 10.6875L99.7842 10.2403L99.7822 10.2393L99.5586 10.6865ZM99.5605 10.6875L99.369 11.1493C99.3662 11.1482 99.3642 11.1473 99.3639 11.1472C99.3637 11.1471 99.3634 11.147 99.3644 11.1474C99.3658 11.148 99.3697 11.1497 99.3744 11.1517L99.5674 10.6904L99.7603 10.2292C99.7622 10.2299 99.7635 10.2305 99.7625 10.2301C99.7625 10.2301 99.761 10.2294 99.7598 10.2289C99.7586 10.2284 99.7557 10.2271 99.7521 10.2257L99.5605 10.6875ZM99.5674 10.6904L99.3752 11.152C99.3793 11.1537 99.3831 11.1552 99.3854 11.1562C99.3874 11.157 99.3908 11.1584 99.392 11.1588C99.3956 11.1603 99.3982 11.1613 99.4005 11.1623L99.5938 10.7012L99.787 10.24C99.778 10.2363 99.7703 10.2332 99.7651 10.2311C99.7619 10.2298 99.7612 10.2295 99.7594 10.2288C99.758 10.2282 99.7584 10.2284 99.7596 10.2288L99.5674 10.6904ZM99.5938 10.7012L99.4003 11.1622C99.4324 11.1757 99.4545 11.1845 99.4984 11.2032L99.6943 10.7432L99.8903 10.2832C99.8473 10.2648 99.8008 10.2458 99.7872 10.2401L99.5938 10.7012ZM99.6943 10.7432L99.4983 11.2031C99.5829 11.2392 99.7087 11.2938 99.8697 11.3648L100.071 10.9072L100.273 10.4497C100.11 10.378 99.9802 10.3215 99.8903 10.2832L99.6943 10.7432ZM100.071 10.9072L99.8697 11.3648C100.19 11.5059 100.649 11.7135 101.204 11.9777L101.419 11.5264L101.634 11.075C101.07 10.806 100.601 10.5944 100.273 10.4497L100.071 10.9072ZM101.419 11.5264L101.204 11.9777C102.314 12.5067 103.807 13.2638 105.339 14.1774L105.595 13.748L105.851 13.3187C104.285 12.3843 102.762 11.6126 101.634 11.075L101.419 11.5264ZM105.595 13.748L105.339 14.1774C106.87 15.091 108.44 16.1619 109.705 17.3166L110.042 16.9473L110.379 16.578C109.045 15.3602 107.412 14.25 105.851 13.3187L105.595 13.748ZM110.042 16.9473L109.705 17.3166C110.97 18.4713 111.931 19.7106 112.241 20.9622L112.727 20.8418L113.212 20.7214C112.829 19.1805 111.692 17.7759 110.379 16.578L110.042 16.9473ZM112.727 20.8418L112.606 20.3564L111.636 20.5967L111.756 21.082L111.876 21.5674L112.847 21.3272L112.727 20.8418ZM111.756 21.082L112.241 20.9616C111.93 19.71 110.97 18.4708 109.705 17.3162L109.368 17.6855L109.031 18.0549C110.249 19.1662 111.032 20.2402 111.271 21.2025L111.756 21.082ZM109.368 17.6855L109.705 17.3162C108.44 16.1616 106.87 15.0909 105.338 14.1771L105.082 14.6064L104.826 15.0358C106.328 15.9319 107.835 16.9634 109.031 18.0549L109.368 17.6855ZM105.082 14.6064L105.338 14.1771C103.807 13.2633 102.313 12.5061 101.203 11.9773L100.988 12.4287L100.773 12.8801C101.865 13.4002 103.329 14.1428 104.826 15.0358L105.082 14.6064ZM100.988 12.4287L101.203 11.9773C100.649 11.7132 100.19 11.5059 99.8696 11.3647L99.668 11.8223L99.4663 12.2798C99.7788 12.4175 100.229 12.6207 100.773 12.8801L100.988 12.4287ZM99.668 11.8223L99.8696 11.3647C99.7101 11.2944 99.5837 11.2397 99.4978 11.2031L99.3018 11.6631L99.1058 12.1231C99.1872 12.1578 99.3096 12.2108 99.4663 12.2798L99.668 11.8223ZM99.3018 11.6631L99.4977 11.2031C99.4767 11.1941 99.458 11.1864 99.4429 11.1803C99.4262 11.1735 99.4179 11.1701 99.4106 11.167L99.2168 11.6279L99.023 12.0888C99.0703 12.1088 99.0588 12.1031 99.1058 12.1231L99.3018 11.6631ZM99.2168 11.6279L99.321 11.1389C94.3768 10.0853 91.2265 9.98947 89.1062 10.9392L89.3105 11.3955L89.5149 11.8518C91.3104 11.0476 94.1666 11.0629 99.1126 12.1169L99.2168 11.6279ZM89.3105 11.3955L89.1061 10.9392C87.2188 11.7848 86.148 13.4596 85.3535 16.0187L85.8311 16.167L86.3086 16.3152C87.0686 13.867 88.0133 12.5246 89.515 11.8518L89.3105 11.3955ZM85.8311 16.167L85.5177 16.5566C85.8287 16.8068 86.1274 17.0595 86.409 17.3166L86.7461 16.9473L87.0832 16.578C86.7829 16.3039 86.4678 16.0375 86.1444 15.7774L85.8311 16.167ZM86.7461 16.9473L86.409 17.3166C87.6742 18.4713 88.6348 19.7106 88.9454 20.9622L89.4307 20.8418L89.9159 20.7214C89.5336 19.1805 88.3957 17.7759 87.0832 16.578L86.7461 16.9473ZM89.4307 20.8418L89.3105 20.3564L88.3398 20.5967L88.46 21.082L88.5801 21.5674L89.5508 21.3272L89.4307 20.8418ZM88.46 21.082L88.9452 20.9616C88.6345 19.71 87.6743 18.4708 86.4093 17.3162L86.0723 17.6855L85.7352 18.0549C86.9529 19.1662 87.7358 20.2402 87.9747 21.2025L88.46 21.082ZM86.0723 17.6855L86.4093 17.3162C86.1975 17.1229 85.9774 16.9343 85.7536 16.7488L85.4346 17.1338L85.1155 17.5188C85.3312 17.6975 85.5385 17.8754 85.7352 18.0549L86.0723 17.6855ZM85.4346 17.1338L85.5615 16.6502L85.1894 16.5525L85.0625 17.0361L84.9356 17.5198L85.3076 17.6174L85.4346 17.1338ZM85.0625 17.0361L85.1895 16.5525L84.7061 16.4256L84.5791 16.9092L84.4521 17.3928L84.9355 17.5197L85.0625 17.0361ZM84.5791 16.9092L85.0626 17.0364C85.0947 16.9147 85.1282 16.794 85.1624 16.6711L84.6807 16.5371L84.1989 16.4032C84.165 16.5253 84.1296 16.6524 84.0956 16.7819L84.5791 16.9092ZM84.6807 16.5371L84.9823 16.1384C84.0505 15.4334 83.0399 14.7722 82.0423 14.1771L81.7861 14.6064L81.5299 15.0358C82.5043 15.6172 83.4832 16.2581 84.379 16.9359L84.6807 16.5371ZM81.7861 14.6064L82.0423 14.1771C80.5108 13.2633 79.0171 12.5061 77.9075 11.9773L77.6924 12.4287L77.4773 12.8801C78.5688 13.4002 80.0331 14.1428 81.53 15.0358L81.7861 14.6064ZM77.6924 12.4287L77.9075 11.9773C77.3531 11.7132 76.894 11.5059 76.5737 11.3647L76.3721 11.8223L76.1704 12.2798C76.4829 12.4175 76.933 12.6207 77.4773 12.8801L77.6924 12.4287ZM76.3721 11.8223L76.5737 11.3647C76.4142 11.2944 76.2878 11.2397 76.2019 11.2031L76.0059 11.6631L75.8099 12.1231C75.8913 12.1578 76.0137 12.2108 76.1704 12.2798L76.3721 11.8223ZM76.0059 11.6631L76.2018 11.2031C76.1808 11.1941 76.1621 11.1864 76.147 11.1803C76.1303 11.1735 76.122 11.1701 76.1147 11.167L75.9209 11.6279L75.7271 12.0888C75.7744 12.1088 75.7629 12.1031 75.8099 12.1231L76.0059 11.6631ZM75.9209 11.6279L76.0251 11.1389C71.0809 10.0853 67.9306 9.98947 65.8103 10.9392L66.0146 11.3955L66.219 11.8518C68.0145 11.0476 70.8707 11.0629 75.8167 12.1169L75.9209 11.6279ZM66.0146 11.3955L65.8102 10.9392C63.684 11.8918 62.5932 13.8956 61.7665 17.0368L62.25 17.1641L62.7335 17.2913C63.5427 14.2169 64.528 12.6094 66.2191 11.8518L66.0146 11.3955ZM62.25 17.1641L62.3779 16.6807L61.8945 16.5528L61.7666 17.0361L61.6387 17.5195L62.1221 17.6474L62.25 17.1641ZM61.7666 17.0361L61.8936 16.5525L61.4102 16.4256L61.2832 16.9092L61.1562 17.3928L61.6396 17.5197L61.7666 17.0361ZM61.2832 16.9092L61.7667 17.0364C62.5935 13.8952 63.6845 11.8913 65.8109 10.9387L65.6064 10.4824L65.402 10.0261C62.8402 11.1737 61.6438 13.5746 60.7997 16.7819L61.2832 16.9092ZM65.6064 10.4824L65.8108 10.9388C67.9374 9.98643 71.1006 10.0853 76.0712 11.1481L76.1758 10.6592L76.2803 10.1702C71.3114 9.10775 67.8538 8.92817 65.4021 10.0261L65.6064 10.4824ZM76.1758 10.6592L76.0673 11.1473L76.1113 11.157L76.2197 10.6689L76.3282 10.1809L76.2842 10.1711L76.1758 10.6592ZM76.2197 10.6689L76.0359 11.1339L76.0779 11.1505L76.2617 10.6855L76.4455 10.2206L76.4036 10.204L76.2197 10.6689ZM76.2617 10.6855L75.7993 10.4953L75.6089 10.9582L76.0713 11.1484L76.5337 11.3387L76.7241 10.8758L76.2617 10.6855ZM76.0713 11.1484L76.5332 11.3398L76.7246 10.8779L76.2627 10.6865L75.8008 10.4951L75.6094 10.957L76.0713 11.1484ZM76.2627 10.6865L76.0391 11.1337L76.041 11.1347L76.2646 10.6875L76.4883 10.2403L76.4863 10.2393L76.2627 10.6865ZM76.2646 10.6875L76.0731 11.1493C76.0703 11.1482 76.0683 11.1473 76.068 11.1472C76.0678 11.1471 76.0675 11.147 76.0685 11.1474C76.0699 11.148 76.0738 11.1497 76.0785 11.1517L76.2715 10.6904L76.4644 10.2292C76.4663 10.2299 76.4676 10.2305 76.4666 10.2301C76.4666 10.2301 76.4651 10.2294 76.4639 10.2289C76.4627 10.2284 76.4598 10.2271 76.4562 10.2257L76.2646 10.6875ZM76.2715 10.6904L76.0793 11.152C76.0834 11.1537 76.0872 11.1552 76.0895 11.1562C76.0915 11.157 76.0949 11.1584 76.0961 11.1588C76.0997 11.1603 76.1023 11.1613 76.1046 11.1623L76.2979 10.7012L76.4911 10.24C76.4821 10.2363 76.4745 10.2332 76.4692 10.2311C76.466 10.2298 76.4653 10.2295 76.4635 10.2288C76.4622 10.2282 76.4625 10.2284 76.4637 10.2288L76.2715 10.6904ZM76.2979 10.7012L76.1044 11.1622C76.1365 11.1757 76.1586 11.1845 76.2025 11.2032L76.3984 10.7432L76.5944 10.2832C76.5514 10.2648 76.5049 10.2458 76.4913 10.2401L76.2979 10.7012ZM76.3984 10.7432L76.2024 11.2031C76.287 11.2392 76.4128 11.2938 76.5738 11.3648L76.7754 10.9072L76.977 10.4497C76.8142 10.378 76.6843 10.3215 76.5944 10.2832L76.3984 10.7432ZM76.7754 10.9072L76.5738 11.3648C76.8941 11.5059 77.3534 11.7135 77.908 11.9777L78.123 11.5264L78.3381 11.075C77.7737 10.806 77.3053 10.5944 76.977 10.4497L76.7754 10.9072ZM78.123 11.5264L77.908 11.9777C79.0179 12.5067 80.5113 13.2638 82.0426 14.1774L82.2988 13.748L82.555 13.3187C80.989 12.3843 79.4662 11.6126 78.3381 11.075L78.123 11.5264ZM82.2988 13.748L82.0426 14.1774C82.9338 14.7091 83.8398 15.2975 84.6932 15.9244L84.9893 15.5215L85.2853 15.1185C84.4013 14.4692 83.4678 13.8633 82.555 13.3187L82.2988 13.748ZM84.9893 15.5215L85.4639 15.6786C86.2488 13.3069 87.3052 11.7458 89.1068 10.9387L88.9023 10.4824L88.6979 10.0261C86.5286 10.9979 85.34 12.87 84.5146 15.3644L84.9893 15.5215Z" fill="white"/>
</svg>
