<svg width="47" height="49" viewBox="0 0 47 49" fill="none" xmlns="http://www.w3.org/2000/svg">
<path d="M28.457 1C22.9326 5.59131 20.1548 9.29239 20.251 13.0781C20.2827 14.3202 20.6258 15.5414 21.2471 16.7764C20.8822 17.0653 20.5308 17.3614 20.1992 17.6641C18.9103 18.8404 17.8611 20.1623 17.5146 21.5586L18.4854 21.7988C18.7601 20.6918 19.6317 19.5354 20.873 18.4023C21.147 18.1523 21.4374 17.9071 21.7383 17.665C21.9544 18.0216 22.1927 18.3806 22.4531 18.7412C23.652 20.4013 25.3289 22.1352 27.4453 24.0215H2.52344L7.83984 15.8965L7.42188 15.623L7.00391 15.3486L1.17969 24.248L1 24.5215L1.17969 24.7959L7.00391 33.6943L7.42188 33.4209L7.83984 33.1465L2.52246 25.0215H27.5195C25.5503 26.9133 23.9749 28.6507 22.8398 30.3135C22.6006 30.664 22.3804 31.0121 22.1797 31.3584C21.7191 31.0066 21.2785 30.6464 20.873 30.2764C19.6317 29.1434 18.7601 27.9868 18.4854 26.8799L17.5146 27.1201C17.8611 28.5164 18.9103 29.8383 20.1992 31.0146C20.6671 31.4416 21.1748 31.8551 21.7041 32.2539C21.1048 33.4929 20.7663 34.717 20.7217 35.96C20.5864 39.736 23.1552 43.4363 28.4482 48.0361L28.7764 47.6592L29.1045 47.2812C23.8192 42.6881 21.6043 39.2656 21.7217 35.9951C21.7586 34.9671 22.0268 33.9297 22.5283 32.8496C23.2236 33.3342 23.9402 33.7925 24.6465 34.2139C26.1952 35.1379 27.7032 35.9023 28.8223 36.4355C29.3818 36.7022 29.8456 36.9118 30.1699 37.0547C30.3319 37.126 30.4597 37.1816 30.5469 37.2188C30.5904 37.2373 30.6246 37.2512 30.6475 37.2607C30.6588 37.2655 30.6679 37.269 30.6738 37.2715C30.6767 37.2727 30.6791 37.2738 30.6807 37.2744L30.6826 37.2754L30.874 36.8135L30.6836 37.2764L30.7256 37.293L30.7695 37.3027C35.7394 38.3654 39.0497 38.5046 41.3389 37.4795C43.683 36.4294 44.8266 34.227 45.6621 31.0527L45.1787 30.9258L44.6953 30.7979C43.8773 33.9057 42.8393 35.7113 40.9307 36.5664C38.9727 37.4434 35.9696 37.3878 31.0244 36.334C31.0037 36.3253 30.975 36.314 30.9395 36.2988C30.8558 36.2632 30.7314 36.2094 30.5732 36.1396C30.2568 36.0002 29.8023 35.795 29.2529 35.5332C28.1523 35.0087 26.6734 34.2589 25.1592 33.3555C24.4291 32.9199 23.6946 32.4491 22.9912 31.9541C23.1922 31.601 23.4171 31.2426 23.666 30.8779C24.9098 29.0558 26.7354 27.1018 29.1172 24.8877L29.5264 24.5068L29.1025 24.1426C26.5283 21.9294 24.5784 19.9758 23.2637 18.1553C22.9935 17.7811 22.7522 17.4125 22.5371 17.0508C23.3746 16.4351 24.2703 15.8536 25.1592 15.3232C26.6734 14.4198 28.1523 13.67 29.2529 13.1455C29.8023 12.8837 30.2568 12.6785 30.5732 12.5391C30.7314 12.4694 30.8557 12.4156 30.9395 12.3799C30.975 12.3647 31.0037 12.3534 31.0244 12.3447C35.9696 11.2909 38.9727 11.2353 40.9307 12.1123C42.8393 12.9674 43.8773 14.773 44.6953 17.8809L45.1787 17.7529L45.6621 17.626C44.8266 14.4517 43.683 12.2493 41.3389 11.1992C39.0497 10.1741 35.7394 10.3133 30.7695 11.376L30.7256 11.3857L30.6836 11.4023L30.874 11.8652L30.6826 11.4033L30.6807 11.4043C30.6791 11.405 30.6767 11.406 30.6738 11.4072C30.6679 11.4097 30.6588 11.4132 30.6475 11.418C30.6246 11.4276 30.5904 11.4414 30.5469 11.46C30.4596 11.4971 30.3319 11.5527 30.1699 11.624C29.8456 11.767 29.3819 11.9765 28.8223 12.2432C27.7032 12.7764 26.1953 13.5408 24.6465 14.4648C23.7795 14.9821 22.8964 15.5539 22.0576 16.1641C21.5428 15.0945 21.2769 14.0682 21.251 13.0527C21.1681 9.79085 23.5616 6.36892 29.0957 1.76953L28.457 1Z" fill="white"/>
<path d="M28.457 1L28.1374 0.615465L28.5222 0.295667L28.8418 0.680677L28.457 1ZM20.251 13.0781L19.7511 13.0909L19.7511 13.0908L20.251 13.0781ZM21.2471 16.7764L21.6937 16.5517L21.8768 16.9155L21.5575 17.1684L21.2471 16.7764ZM20.1992 17.6641L19.8622 17.2948L19.8622 17.2948L20.1992 17.6641ZM17.5146 21.5586L17.3945 22.044L16.9089 21.9238L17.0294 21.4382L17.5146 21.5586ZM18.4854 21.7988L18.9706 21.9193L18.8503 22.4042L18.3652 22.2842L18.4854 21.7988ZM20.873 18.4023L20.536 18.033L20.536 18.033L20.873 18.4023ZM21.7383 17.665L21.4248 17.2755L21.8698 16.9175L22.1658 17.4058L21.7383 17.665ZM22.4531 18.7412L22.0478 19.0339L22.0478 19.0339L22.4531 18.7412ZM27.4453 24.0215L27.778 23.6482L28.7578 24.5215H27.4453V24.0215ZM2.52344 24.0215V24.5215H1.59875L2.10504 23.7477L2.52344 24.0215ZM7.83984 15.8965L8.11357 15.4781L8.53203 15.7518L8.25824 16.1702L7.83984 15.8965ZM7.42188 15.623L7.14814 16.0415L7.14746 16.041L7.42188 15.623ZM7.00391 15.3486L6.58554 15.0748L6.85974 14.6558L7.27832 14.9307L7.00391 15.3486ZM1.17969 24.248L1.59806 24.5218L1.59754 24.5226L1.17969 24.248ZM1 24.5215L0.581699 24.7954L0.402024 24.521L0.582147 24.2469L1 24.5215ZM1.17969 24.7959L1.59799 24.522L1.59804 24.5221L1.17969 24.7959ZM7.00391 33.6943L7.27764 34.1128L6.85931 34.3864L6.58555 33.9682L7.00391 33.6943ZM7.42188 33.4209L7.69629 33.8389L7.69561 33.8393L7.42188 33.4209ZM7.83984 33.1465L8.25821 32.8727L8.53161 33.2904L8.11426 33.5645L7.83984 33.1465ZM2.52246 25.0215L2.10409 25.2953L1.59768 24.5215H2.52246V25.0215ZM27.5195 25.0215V24.5215H28.7617L27.8659 25.3821L27.5195 25.0215ZM22.8398 30.3135L22.4269 30.0316L22.4269 30.0316L22.8398 30.3135ZM22.1797 31.3584L22.6123 31.6091L22.3275 32.1004L21.8762 31.7558L22.1797 31.3584ZM20.873 30.2764L20.536 30.6457L20.536 30.6457L20.873 30.2764ZM18.4854 26.8799L18.3652 26.3945L18.8503 26.2745L18.9706 26.7594L18.4854 26.8799ZM17.5146 27.1201L17.0294 27.2405L16.9089 26.755L17.3945 26.6348L17.5146 27.1201ZM20.1992 31.0146L19.8622 31.384L19.8622 31.384L20.1992 31.0146ZM21.7041 32.2539L22.005 31.8546L22.3331 32.1018L22.1542 32.4716L21.7041 32.2539ZM20.7217 35.96L20.222 35.9421L20.222 35.942L20.7217 35.96ZM28.4482 48.0361L28.8254 48.3644L28.4974 48.7412L28.1203 48.4135L28.4482 48.0361ZM28.7764 47.6592L29.1539 47.987L29.1535 47.9875L28.7764 47.6592ZM29.1045 47.2812L29.4325 46.9038L29.8097 47.2317L29.482 47.609L29.1045 47.2812ZM21.7217 35.9951L21.222 35.9772L21.222 35.9771L21.7217 35.9951ZM22.5283 32.8496L22.0748 32.6391L22.3256 32.0989L22.8142 32.4394L22.5283 32.8496ZM24.6465 34.2139L24.3903 34.6433L24.3903 34.6432L24.6465 34.2139ZM28.8223 36.4355L28.6072 36.8869L28.6072 36.8869L28.8223 36.4355ZM30.1699 37.0547L29.9683 37.5122L29.9683 37.5122L30.1699 37.0547ZM30.5469 37.2188L30.3509 37.6787L30.3509 37.6787L30.5469 37.2188ZM30.6475 37.2607L30.4541 37.7219L30.454 37.7218L30.6475 37.2607ZM30.6738 37.2715L30.866 36.8099L30.8665 36.8101L30.6738 37.2715ZM30.6807 37.2744L30.8722 36.8126L30.8885 36.8193L30.9043 36.8272L30.6807 37.2744ZM30.6826 37.2754L31.1445 37.4668L30.9391 37.9626L30.459 37.7226L30.6826 37.2754ZM30.874 36.8135L30.4121 36.6221L31.3364 37.0037L30.874 36.8135ZM30.6836 37.2764L30.4998 37.7413L30.0283 37.555L30.2212 37.0861L30.6836 37.2764ZM30.7256 37.293L30.6171 37.7811L30.5785 37.7725L30.5418 37.7579L30.7256 37.293ZM30.7695 37.3027L30.665 37.7917L30.6611 37.7908L30.7695 37.3027ZM41.3389 37.4795L41.5433 37.9358L41.5432 37.9358L41.3389 37.4795ZM45.6621 31.0527L45.7891 30.5691L46.273 30.6962L46.1456 31.18L45.6621 31.0527ZM45.1787 30.9258L45.0517 31.4094L45.0508 31.4091L45.1787 30.9258ZM44.6953 30.7979L44.2118 30.6706L44.3392 30.1864L44.8232 30.3145L44.6953 30.7979ZM40.9307 36.5664L41.1351 37.0227L41.1351 37.0227L40.9307 36.5664ZM31.0244 36.334L30.9202 36.823L30.8741 36.8132L30.8306 36.7949L31.0244 36.334ZM30.9395 36.2988L30.7435 36.7588L30.7434 36.7588L30.9395 36.2988ZM30.5732 36.1396L30.3716 36.5972L30.3716 36.5972L30.5732 36.1396ZM29.2529 35.5332L29.0378 35.9846L29.0378 35.9846L29.2529 35.5332ZM25.1592 33.3555L24.903 33.7849L24.903 33.7849L25.1592 33.3555ZM22.9912 31.9541L22.7035 32.363L22.3319 32.1016L22.5567 31.7068L22.9912 31.9541ZM23.666 30.8779L23.2531 30.596L23.2531 30.596L23.666 30.8779ZM29.1172 24.8877L29.4578 25.2537L29.4576 25.2539L29.1172 24.8877ZM29.5264 24.5068L29.8523 24.1276L30.2762 24.492L29.867 24.8728L29.5264 24.5068ZM29.1025 24.1426L28.7766 24.5218L28.7766 24.5217L29.1025 24.1426ZM23.2637 18.1553L22.8583 18.448L22.8583 18.448L23.2637 18.1553ZM22.5371 17.0508L22.1074 17.3064L21.8756 16.9166L22.2409 16.6479L22.5371 17.0508ZM25.1592 15.3232L24.903 14.8939L24.903 14.8939L25.1592 15.3232ZM29.2529 13.1455L29.0378 12.6941L29.0378 12.6941L29.2529 13.1455ZM30.5732 12.5391L30.3716 12.0815L30.3716 12.0815L30.5732 12.5391ZM30.9395 12.3799L30.7434 11.9199L30.7435 11.9199L30.9395 12.3799ZM31.0244 12.3447L30.8306 11.8838L30.8741 11.8655L30.9202 11.8557L31.0244 12.3447ZM40.9307 12.1123L41.1351 11.656L41.1351 11.656L40.9307 12.1123ZM44.6953 17.8809L44.8232 18.3642L44.3392 18.4923L44.2118 18.0081L44.6953 17.8809ZM45.1787 17.7529L45.0508 17.2696L45.0517 17.2693L45.1787 17.7529ZM45.6621 17.626L46.1456 17.4987L46.273 17.9825L45.7891 18.1096L45.6621 17.626ZM41.3389 11.1992L41.5432 10.7429L41.5433 10.7429L41.3389 11.1992ZM30.7695 11.376L30.6611 10.8879L30.665 10.887L30.7695 11.376ZM30.7256 11.3857L30.5418 10.9208L30.5785 10.9062L30.6171 10.8976L30.7256 11.3857ZM30.6836 11.4023L30.2212 11.5926L30.0283 11.1237L30.4998 10.9374L30.6836 11.4023ZM30.874 11.8652L31.3364 11.675L30.4121 12.0566L30.874 11.8652ZM30.6826 11.4033L30.459 10.9561L30.9391 10.7161L31.1445 11.2119L30.6826 11.4033ZM30.6807 11.4043L30.9043 11.8515L30.8885 11.8594L30.8722 11.8661L30.6807 11.4043ZM30.6738 11.4072L30.8664 11.8687L30.866 11.8688L30.6738 11.4072ZM30.6475 11.418L30.454 10.9569L30.4541 10.9569L30.6475 11.418ZM30.5469 11.46L30.3509 11L30.3509 11L30.5469 11.46ZM30.1699 11.624L29.9683 11.1665L29.9683 11.1665L30.1699 11.624ZM28.8223 12.2432L28.6072 11.7918L28.6072 11.7918L28.8223 12.2432ZM24.6465 14.4648L24.3903 14.0355L24.3903 14.0355L24.6465 14.4648ZM22.0576 16.1641L22.3517 16.5684L21.867 16.921L21.6071 16.3809L22.0576 16.1641ZM21.251 13.0527L20.7511 13.0655L20.7511 13.0654L21.251 13.0527ZM29.0957 1.76953L29.4805 1.45021L29.7996 1.8347L29.4153 2.15406L29.0957 1.76953ZM28.457 1L28.7766 1.38453C23.2473 5.97992 20.6613 9.54158 20.7508 13.0654L20.251 13.0781L19.7511 13.0908C19.6483 9.0432 22.6179 5.2027 28.1374 0.615465L28.457 1ZM20.251 13.0781L20.7508 13.0654C20.7803 14.2207 21.0992 15.3698 21.6937 16.5517L21.2471 16.7764L20.8004 17.0011C20.1525 15.713 19.785 14.4197 19.7511 13.0909L20.251 13.0781ZM21.2471 16.7764L21.5575 17.1684C21.2003 17.4512 20.858 17.7397 20.5363 18.0334L20.1992 17.6641L19.8622 17.2948C20.2036 16.9832 20.564 16.6795 20.9367 16.3844L21.2471 16.7764ZM20.1992 17.6641L20.5363 18.0334C19.271 19.1882 18.3105 20.4274 17.9999 21.679L17.5146 21.5586L17.0294 21.4382C17.4117 19.8972 18.5496 18.4927 19.8622 17.2948L20.1992 17.6641ZM17.5146 21.5586L17.6348 21.0732L18.6055 21.3135L18.4854 21.7988L18.3652 22.2842L17.3945 22.044L17.5146 21.5586ZM18.4854 21.7988L18.0001 21.6784C18.3107 20.4267 19.271 19.1876 20.536 18.033L20.873 18.4023L21.2101 18.7716C19.9924 19.8831 19.2095 20.957 18.9706 21.9193L18.4854 21.7988ZM20.873 18.4023L20.536 18.033C20.8195 17.7743 21.1181 17.5223 21.4248 17.2755L21.7383 17.665L22.0517 18.0546C21.7566 18.292 21.4746 18.5303 21.2101 18.7717L20.873 18.4023ZM21.7383 17.665L22.1658 17.4058C22.3747 17.7503 22.6055 18.0982 22.8585 18.4485L22.4531 18.7412L22.0478 19.0339C21.7799 18.663 21.5342 18.2928 21.3107 17.9242L21.7383 17.665ZM22.4531 18.7412L22.8585 18.4485C24.0271 20.0667 25.674 21.7731 27.778 23.6482L27.4453 24.0215L27.1126 24.3948C24.9837 22.4974 23.2768 20.7359 22.0478 19.0339L22.4531 18.7412ZM27.4453 24.0215V24.5215H2.52344V24.0215V23.5215H27.4453V24.0215ZM2.52344 24.0215L2.10504 23.7477L7.42145 15.6227L7.83984 15.8965L8.25824 16.1702L2.94183 24.2952L2.52344 24.0215ZM7.83984 15.8965L7.56611 16.3149L7.14814 16.0415L7.42188 15.623L7.69561 15.2046L8.11357 15.4781L7.83984 15.8965ZM7.42188 15.623L7.14746 16.041L6.72949 15.7666L7.00391 15.3486L7.27832 14.9307L7.69629 15.2051L7.42188 15.623ZM7.00391 15.3486L7.42228 15.6224L1.59806 24.5218L1.17969 24.248L0.761318 23.9742L6.58554 15.0748L7.00391 15.3486ZM1.17969 24.248L1.59754 24.5226L1.41785 24.7961L1 24.5215L0.582147 24.2469L0.761835 23.9735L1.17969 24.248ZM1 24.5215L1.4183 24.2476L1.59799 24.522L1.17969 24.7959L0.761386 25.0698L0.581699 24.7954L1 24.5215ZM1.17969 24.7959L1.59804 24.5221L7.42226 33.4205L7.00391 33.6943L6.58555 33.9682L0.761332 25.0697L1.17969 24.7959ZM7.00391 33.6943L6.73018 33.2759L7.14814 33.0025L7.42188 33.4209L7.69561 33.8393L7.27764 34.1128L7.00391 33.6943ZM7.42188 33.4209L7.14746 33.0029L7.56543 32.7285L7.83984 33.1465L8.11426 33.5645L7.69629 33.8389L7.42188 33.4209ZM7.83984 33.1465L7.42147 33.4203L2.10409 25.2953L2.52246 25.0215L2.94083 24.7477L8.25821 32.8727L7.83984 33.1465ZM2.52246 25.0215V24.5215H27.5195V25.0215V25.5215H2.52246V25.0215ZM27.5195 25.0215L27.8659 25.3821C25.908 27.263 24.3601 28.9732 23.2528 30.5954L22.8398 30.3135L22.4269 30.0316C23.5896 28.3282 25.1926 26.5636 27.1731 24.6609L27.5195 25.0215ZM22.8398 30.3135L23.2528 30.5954C23.0199 30.9365 22.8064 31.2742 22.6123 31.6091L22.1797 31.3584L21.7471 31.1077C21.9545 30.7499 22.1813 30.3914 22.4269 30.0316L22.8398 30.3135ZM22.1797 31.3584L21.8762 31.7558C21.4074 31.3977 20.955 31.0281 20.536 30.6457L20.873 30.2764L21.2101 29.9071C21.6021 30.2648 22.0308 30.6155 22.4832 30.961L22.1797 31.3584ZM20.873 30.2764L20.536 30.6457C19.271 29.4911 18.3108 28.252 18.0001 27.0003L18.4854 26.8799L18.9706 26.7594C19.2095 27.7217 19.9924 28.7956 21.2101 29.9071L20.873 30.2764ZM18.4854 26.8799L18.6055 27.3652L17.6348 27.6055L17.5146 27.1201L17.3945 26.6348L18.3652 26.3945L18.4854 26.8799ZM17.5146 27.1201L17.9999 26.9997C18.3105 28.2513 19.2711 29.4906 20.5363 30.6453L20.1992 31.0146L19.8622 31.384C18.5496 30.186 17.4117 28.7815 17.0294 27.2405L17.5146 27.1201ZM20.1992 31.0146L20.5363 30.6453C20.9901 31.0595 21.4852 31.463 22.005 31.8546L21.7041 32.2539L21.4032 32.6533C20.8643 32.2472 20.344 31.8237 19.8622 31.384L20.1992 31.0146ZM21.7041 32.2539L22.1542 32.4716C21.5793 33.6601 21.2631 34.8164 21.2214 35.9779L20.7217 35.96L20.222 35.942C20.2696 34.6177 20.6302 33.3257 21.254 32.0362L21.7041 32.2539ZM20.7217 35.96L21.2214 35.9779C21.0952 39.5011 23.4872 43.0623 28.7762 47.6587L28.4482 48.0361L28.1203 48.4135C22.8232 43.8102 20.0777 39.9709 20.222 35.9421L20.7217 35.96ZM28.4482 48.0361L28.0711 47.7078L28.3992 47.3309L28.7764 47.6592L29.1535 47.9875L28.8254 48.3644L28.4482 48.0361ZM28.7764 47.6592L28.3988 47.3314L28.7269 46.9535L29.1045 47.2812L29.482 47.609L29.1539 47.987L28.7764 47.6592ZM29.1045 47.2812L28.7765 47.6587C23.4872 43.062 21.0956 39.5005 21.222 35.9772L21.7217 35.9951L22.2214 36.013C22.1131 39.0307 24.1512 42.3142 29.4325 46.9038L29.1045 47.2812ZM21.7217 35.9951L21.222 35.9771C21.2617 34.8719 21.5501 33.7692 22.0748 32.6391L22.5283 32.8496L22.9818 33.0602C22.5036 34.0902 22.2555 35.0623 22.2214 36.0131L21.7217 35.9951ZM22.5283 32.8496L22.8142 32.4394C23.4988 32.9165 24.2054 33.3685 24.9027 33.7845L24.6465 34.2139L24.3903 34.6432C23.6751 34.2165 22.9484 33.7518 22.2424 33.2598L22.5283 32.8496ZM24.6465 34.2139L24.9027 33.7845C26.4341 34.6982 27.9274 35.4552 29.0374 35.9842L28.8223 36.4355L28.6072 36.8869C27.4791 36.3493 25.9564 35.5776 24.3903 34.6433L24.6465 34.2139ZM28.8223 36.4355L29.0374 35.9842C29.592 36.2485 30.0512 36.456 30.3716 36.5971L30.1699 37.0547L29.9683 37.5122C29.64 37.3675 29.1717 37.1559 28.6072 36.8869L28.8223 36.4355ZM30.1699 37.0547L30.3715 36.5971C30.5326 36.6681 30.6583 36.7227 30.7429 36.7588L30.5469 37.2188L30.3509 37.6787C30.261 37.6404 30.1311 37.584 29.9683 37.5122L30.1699 37.0547ZM30.5469 37.2188L30.7429 36.7588C30.7868 36.7775 30.8088 36.7862 30.8409 36.7997L30.6475 37.2607L30.454 37.7218C30.4404 37.7161 30.394 37.6971 30.3509 37.6787L30.5469 37.2188ZM30.6475 37.2607L30.8408 36.7996C30.8431 36.8006 30.8456 36.8016 30.8492 36.8031C30.8503 36.8035 30.8538 36.8049 30.8557 36.8057C30.8581 36.8066 30.8619 36.8082 30.866 36.8099L30.6738 37.2715L30.4816 37.7331C30.4828 37.7336 30.4832 37.7337 30.4818 37.7332C30.4801 37.7324 30.4794 37.7322 30.4761 37.7309C30.4709 37.7288 30.4632 37.7256 30.4541 37.7219L30.6475 37.2607ZM30.6738 37.2715L30.8665 36.8101C30.8714 36.8121 30.8754 36.8139 30.8769 36.8146C30.8781 36.8151 30.8777 36.8149 30.8775 36.8148C30.8772 36.8147 30.8751 36.8138 30.8722 36.8126L30.6807 37.2744L30.4891 37.7363C30.4854 37.7347 30.4825 37.7335 30.4812 37.7329C30.4805 37.7326 30.4798 37.7323 30.4794 37.7321C30.4792 37.7321 30.479 37.732 30.4789 37.7319C30.4787 37.7318 30.4786 37.7318 30.4785 37.7318C30.4778 37.7314 30.4792 37.732 30.4812 37.7329L30.6738 37.2715ZM30.6807 37.2744L30.9043 36.8272L30.9062 36.8282L30.6826 37.2754L30.459 37.7226L30.4571 37.7216L30.6807 37.2744ZM30.6826 37.2754L30.2207 37.084L30.4121 36.6221L30.874 36.8135L31.3359 37.0049L31.1445 37.4668L30.6826 37.2754ZM30.874 36.8135L31.3364 37.0037L31.146 37.4666L30.6836 37.2764L30.2212 37.0861L30.4116 36.6232L30.874 36.8135ZM30.6836 37.2764L30.8674 36.8114L30.9094 36.828L30.7256 37.293L30.5418 37.7579L30.4998 37.7413L30.6836 37.2764ZM30.7256 37.293L30.8341 36.8049L30.878 36.8146L30.7695 37.3027L30.6611 37.7908L30.6171 37.7811L30.7256 37.293ZM30.7695 37.3027L30.8741 36.8138C35.8448 37.8767 39.0079 37.9755 41.1345 37.0232L41.3389 37.4795L41.5432 37.9358C39.0915 39.0338 35.634 38.8542 30.665 37.7917L30.7695 37.3027ZM41.3389 37.4795L41.1345 37.0232C43.2609 36.0707 44.3518 34.0668 45.1786 30.9255L45.6621 31.0527L46.1456 31.18C45.3015 34.3873 44.1052 36.7882 41.5433 37.9358L41.3389 37.4795ZM45.6621 31.0527L45.5351 31.5363L45.0517 31.4094L45.1787 30.9258L45.3057 30.4422L45.7891 30.5691L45.6621 31.0527ZM45.1787 30.9258L45.0508 31.4091L44.5674 31.2812L44.6953 30.7979L44.8232 30.3145L45.3066 30.4424L45.1787 30.9258ZM44.6953 30.7979L45.1788 30.9251C44.3521 34.0664 43.2613 36.0702 41.1351 37.0227L40.9307 36.5664L40.7262 36.1101C42.4174 35.3525 43.4026 33.7451 44.2118 30.6706L44.6953 30.7979ZM40.9307 36.5664L41.1351 37.0227C39.0147 37.9725 35.8645 37.8767 30.9202 36.823L31.0244 36.334L31.1286 35.845C36.0747 36.899 38.9308 36.9143 40.7263 36.1101L40.9307 36.5664ZM31.0244 36.334L30.8306 36.7949C30.8233 36.7918 30.815 36.7885 30.7983 36.7816C30.7832 36.7755 30.7646 36.7678 30.7435 36.7588L30.9395 36.2988L31.1354 35.8388C31.1824 35.8589 31.1709 35.8532 31.2182 35.8731L31.0244 36.334ZM30.9395 36.2988L30.7434 36.7588C30.6575 36.7222 30.5312 36.6675 30.3716 36.5972L30.5732 36.1396L30.7749 35.6821C30.9316 35.7512 31.054 35.8042 31.1355 35.8388L30.9395 36.2988ZM30.5732 36.1396L30.3716 36.5972C30.0513 36.456 29.5923 36.2488 29.0378 35.9846L29.2529 35.5332L29.468 35.0818C30.0124 35.3412 30.4623 35.5444 30.7749 35.6821L30.5732 36.1396ZM29.2529 35.5332L29.0378 35.9846C27.9281 35.4558 26.4346 34.6986 24.903 33.7849L25.1592 33.3555L25.4154 32.9261C26.9123 33.8192 28.3765 34.5617 29.468 35.0818L29.2529 35.5332ZM25.1592 33.3555L24.903 33.7849C24.1637 33.3438 23.4186 32.8662 22.7035 32.363L22.9912 31.9541L23.279 31.5452C23.9707 32.032 24.6944 32.496 25.4154 32.9261L25.1592 33.3555ZM22.9912 31.9541L22.5567 31.7068C22.765 31.3407 22.9972 30.9709 23.2531 30.596L23.666 30.8779L24.079 31.1598C23.8369 31.5144 23.6194 31.8612 23.4257 32.2014L22.9912 31.9541ZM23.666 30.8779L23.2531 30.596C24.528 28.7284 26.3851 26.7447 28.7768 24.5215L29.1172 24.8877L29.4576 25.2539C27.0856 27.4589 25.2917 29.3833 24.079 31.1598L23.666 30.8779ZM29.1172 24.8877L28.7765 24.5217L29.1857 24.1408L29.5264 24.5068L29.867 24.8728L29.4578 25.2537L29.1172 24.8877ZM29.5264 24.5068L29.2005 24.886L28.7766 24.5218L29.1025 24.1426L29.4284 23.7634L29.8523 24.1276L29.5264 24.5068ZM29.1025 24.1426L28.7766 24.5217C26.1915 22.2992 24.2071 20.3157 22.8583 18.448L23.2637 18.1553L23.669 17.8625C24.9497 19.6359 26.8651 21.5595 29.4285 23.7634L29.1025 24.1426ZM23.2637 18.1553L22.8583 18.448C22.5796 18.062 22.3301 17.681 22.1074 17.3064L22.5371 17.0508L22.9669 16.7952C23.1743 17.144 23.4074 17.5002 23.669 17.8626L23.2637 18.1553ZM22.5371 17.0508L22.2409 16.6479C23.0939 16.0208 24.0035 15.4305 24.903 14.8939L25.1592 15.3232L25.4154 15.7526C24.5372 16.2766 23.6553 16.8493 22.8333 17.4536L22.5371 17.0508ZM25.1592 15.3232L24.903 14.8939C26.4346 13.9801 27.9281 13.223 29.0378 12.6941L29.2529 13.1455L29.468 13.5969C28.3765 14.117 26.9123 14.8595 25.4154 15.7526L25.1592 15.3232ZM29.2529 13.1455L29.0378 12.6941C29.5923 12.4299 30.0513 12.2227 30.3716 12.0815L30.5732 12.5391L30.7749 12.9966C30.4623 13.1343 30.0124 13.3375 29.468 13.5969L29.2529 13.1455ZM30.5732 12.5391L30.3716 12.0815C30.5312 12.0112 30.6575 11.9565 30.7434 11.9199L30.9395 12.3799L31.1355 12.8399C31.054 12.8746 30.9316 12.9275 30.7749 12.9966L30.5732 12.5391ZM30.9395 12.3799L30.7435 11.9199C30.7646 11.9109 30.7833 11.9032 30.7983 11.8971C30.815 11.8902 30.8233 11.8869 30.8306 11.8838L31.0244 12.3447L31.2182 12.8056C31.1709 12.8255 31.1824 12.8199 31.1354 12.8399L30.9395 12.3799ZM31.0244 12.3447L30.9202 11.8557C35.8645 10.8021 39.0147 10.7063 41.1351 11.656L40.9307 12.1123L40.7263 12.5686C38.9308 11.7644 36.0747 11.7797 31.1286 12.8337L31.0244 12.3447ZM40.9307 12.1123L41.1351 11.656C43.2613 12.6086 44.3521 14.6124 45.1788 17.7536L44.6953 17.8809L44.2118 18.0081C43.4026 14.9337 42.4173 13.3262 40.7262 12.5686L40.9307 12.1123ZM44.6953 17.8809L44.5674 17.3975L45.0508 17.2696L45.1787 17.7529L45.3066 18.2363L44.8232 18.3642L44.6953 17.8809ZM45.1787 17.7529L45.0517 17.2693L45.5351 17.1424L45.6621 17.626L45.7891 18.1096L45.3057 18.2365L45.1787 17.7529ZM45.6621 17.626L45.1786 17.7532C44.3518 14.612 43.2608 12.6081 41.1345 11.6555L41.3389 11.1992L41.5433 10.7429C44.1052 11.8905 45.3015 14.2914 46.1456 17.4987L45.6621 17.626ZM41.3389 11.1992L41.1345 11.6556C39.0079 10.7032 35.8448 10.802 30.8741 11.8649L30.7695 11.376L30.665 10.887C35.634 9.82451 39.0915 9.64496 41.5432 10.7429L41.3389 11.1992ZM30.7695 11.376L30.878 11.8641L30.8341 11.8738L30.7256 11.3857L30.6171 10.8976L30.6611 10.8879L30.7695 11.376ZM30.7256 11.3857L30.9094 11.8507L30.8674 11.8673L30.6836 11.4023L30.4998 10.9374L30.5418 10.9208L30.7256 11.3857ZM30.6836 11.4023L31.146 11.2121L31.3364 11.675L30.874 11.8652L30.4116 12.0555L30.2212 11.5926L30.6836 11.4023ZM30.874 11.8652L30.4121 12.0566L30.2207 11.5947L30.6826 11.4033L31.1445 11.2119L31.3359 11.6738L30.874 11.8652ZM30.6826 11.4033L30.9062 11.8505L30.9043 11.8515L30.6807 11.4043L30.4571 10.9571L30.459 10.9561L30.6826 11.4033ZM30.6807 11.4043L30.8722 11.8661C30.8751 11.8649 30.8772 11.864 30.8775 11.8639C30.8777 11.8638 30.8782 11.8636 30.877 11.8641C30.8754 11.8648 30.8713 11.8666 30.8664 11.8687L30.6738 11.4072L30.4813 10.9458C30.4792 10.9467 30.4778 10.9473 30.4785 10.947C30.4786 10.9469 30.4787 10.9469 30.4788 10.9468C30.4789 10.9468 30.4791 10.9467 30.4794 10.9466C30.4797 10.9464 30.4804 10.9461 30.4812 10.9458C30.4824 10.9453 30.4854 10.944 30.4891 10.9425L30.6807 11.4043ZM30.6738 11.4072L30.866 11.8688C30.8619 11.8705 30.8581 11.8721 30.8557 11.873C30.8538 11.8738 30.8503 11.8752 30.8492 11.8756C30.8456 11.8771 30.8431 11.8781 30.8408 11.8791L30.6475 11.418L30.4541 10.9569C30.4632 10.9531 30.4709 10.9499 30.4761 10.9478C30.4795 10.9465 30.4801 10.9463 30.4819 10.9455C30.4832 10.945 30.4828 10.9452 30.4816 10.9456L30.6738 11.4072ZM30.6475 11.418L30.8409 11.879C30.8088 11.8925 30.7868 11.9012 30.7429 11.9199L30.5469 11.46L30.3509 11C30.394 10.9816 30.4404 10.9626 30.454 10.9569L30.6475 11.418ZM30.5469 11.46L30.7429 11.9199C30.6583 11.956 30.5326 12.0106 30.3715 12.0816L30.1699 11.624L29.9683 11.1665C30.1312 11.0947 30.261 11.0383 30.3509 11L30.5469 11.46ZM30.1699 11.624L30.3716 12.0816C30.0512 12.2227 29.592 12.4302 29.0374 12.6945L28.8223 12.2432L28.6072 11.7918C29.1717 11.5228 29.6399 11.3112 29.9683 11.1665L30.1699 11.624ZM28.8223 12.2432L29.0374 12.6945C27.9274 13.2235 26.4341 13.9805 24.9027 14.8942L24.6465 14.4648L24.3903 14.0355C25.9564 13.1011 27.479 12.3294 28.6072 11.7918L28.8223 12.2432ZM24.6465 14.4648L24.9027 14.8942C24.0462 15.4052 23.1761 15.9688 22.3517 16.5684L22.0576 16.1641L21.7635 15.7597C22.6166 15.1391 23.5128 14.559 24.3903 14.0355L24.6465 14.4648ZM22.0576 16.1641L21.6071 16.3809C21.0667 15.2582 20.7791 14.1626 20.7511 13.0655L21.251 13.0527L21.7508 13.04C21.7746 13.9739 22.019 14.9309 22.5081 15.9472L22.0576 16.1641ZM21.251 13.0527L20.7511 13.0654C20.6616 9.54161 23.247 5.98025 28.7761 1.385L29.0957 1.76953L29.4153 2.15406C23.8762 6.75759 21.6746 10.0401 21.7508 13.04L21.251 13.0527ZM29.0957 1.76953L28.711 2.08885L28.0723 1.31932L28.457 1L28.8418 0.680677L29.4805 1.45021L29.0957 1.76953Z" fill="white"/>
</svg>
