<svg width="47" height="49" viewBox="0 0 47 49" fill="none" xmlns="http://www.w3.org/2000/svg">
<path d="M18.2051 1C23.7295 5.59131 26.5073 9.29239 26.4111 13.0781C26.3794 14.3202 26.0363 15.5414 25.415 16.7764C25.7799 17.0653 26.1313 17.3614 26.4629 17.6641C27.7518 18.8404 28.801 20.1623 29.1475 21.5586L28.1768 21.7988C27.902 20.6918 27.0304 19.5354 25.7891 18.4023C25.5151 18.1523 25.2247 17.9071 24.9238 17.665C24.7077 18.0216 24.4694 18.3806 24.209 18.7412C23.0102 20.4013 21.3332 22.1352 19.2168 24.0215H44.1387L38.8223 15.8965L39.2402 15.623L39.6582 15.3486L45.4824 24.248L45.6621 24.5215L45.4824 24.7959L39.6582 33.6943L39.2402 33.4209L38.8223 33.1465L44.1396 25.0215H19.1426C21.1118 26.9133 22.6872 28.6507 23.8223 30.3135C24.0615 30.664 24.2817 31.0121 24.4824 31.3584C24.943 31.0066 25.3836 30.6464 25.7891 30.2764C27.0304 29.1434 27.902 27.9868 28.1768 26.8799L29.1475 27.1201C28.801 28.5164 27.7518 29.8383 26.4629 31.0146C25.9951 31.4416 25.4874 31.8551 24.958 32.2539C25.5573 33.4929 25.8958 34.717 25.9404 35.96C26.0757 39.736 23.5069 43.4363 18.2139 48.0361L17.8857 47.6592L17.5576 47.2812C22.8429 42.6881 25.0578 39.2656 24.9404 35.9951C24.9035 34.9671 24.6353 33.9297 24.1338 32.8496C23.4385 33.3342 22.7219 33.7925 22.0156 34.2139C20.4669 35.1379 18.9589 35.9023 17.8398 36.4355C17.2803 36.7022 16.8165 36.9118 16.4922 37.0547C16.3303 37.126 16.2025 37.1816 16.1152 37.2188C16.0717 37.2373 16.0375 37.2512 16.0146 37.2607C16.0033 37.2655 15.9943 37.269 15.9883 37.2715C15.9854 37.2727 15.983 37.2738 15.9814 37.2744L15.9795 37.2754L15.7881 36.8135L15.9785 37.2764L15.9365 37.293L15.8926 37.3027C10.9227 38.3654 7.61242 38.5046 5.32324 37.4795C2.97908 36.4294 1.83547 34.227 1 31.0527L1.4834 30.9258L1.9668 30.7979C2.78478 33.9057 3.82277 35.7113 5.73145 36.5664C7.68936 37.4434 10.6925 37.3878 15.6377 36.334C15.6584 36.3253 15.6871 36.314 15.7227 36.2988C15.8064 36.2632 15.9307 36.2094 16.0889 36.1396C16.4053 36.0002 16.8598 35.795 17.4092 35.5332C18.5098 35.0087 19.9887 34.2589 21.5029 33.3555C22.233 32.9199 22.9675 32.4491 23.6709 31.9541C23.4699 31.601 23.245 31.2426 22.9961 30.8779C21.7523 29.0558 19.9268 27.1018 17.5449 24.8877L17.1357 24.5068L17.5596 24.1426C20.1338 21.9294 22.0837 19.9758 23.3984 18.1553C23.6686 17.7811 23.9099 17.4125 24.125 17.0508C23.2875 16.4351 22.3918 15.8536 21.5029 15.3232C19.9887 14.4198 18.5098 13.67 17.4092 13.1455C16.8598 12.8837 16.4053 12.6785 16.0889 12.5391C15.9307 12.4694 15.8064 12.4156 15.7227 12.3799C15.6871 12.3647 15.6584 12.3534 15.6377 12.3447C10.6925 11.2909 7.68937 11.2353 5.73145 12.1123C3.8228 12.9674 2.78477 14.773 1.9668 17.8809L1.4834 17.7529L1 17.626C1.83546 14.4517 2.97911 12.2493 5.32324 11.1992C7.61243 10.1741 10.9227 10.3133 15.8926 11.376L15.9365 11.3857L15.9785 11.4023L15.7881 11.8652L15.9795 11.4033L15.9814 11.4043C15.983 11.405 15.9854 11.406 15.9883 11.4072C15.9943 11.4097 16.0033 11.4132 16.0146 11.418C16.0375 11.4276 16.0717 11.4414 16.1152 11.46C16.2025 11.4971 16.3302 11.5527 16.4922 11.624C16.8165 11.767 17.2802 11.9765 17.8398 12.2432C18.9589 12.7764 20.4669 13.5408 22.0156 14.4648C22.8826 14.9821 23.7658 15.5539 24.6045 16.1641C25.1193 15.0945 25.3852 14.0682 25.4111 13.0527C25.494 9.79085 23.1005 6.36892 17.5664 1.76953L18.2051 1Z" fill="white"/>
<path d="M18.2051 1L18.5247 0.615465L18.1399 0.295667L17.8203 0.680677L18.2051 1ZM26.4111 13.0781L26.911 13.0909L26.911 13.0908L26.4111 13.0781ZM25.415 16.7764L24.9684 16.5517L24.7853 16.9155L25.1046 17.1684L25.415 16.7764ZM26.4629 17.6641L26.8 17.2948L26.8 17.2948L26.4629 17.6641ZM29.1475 21.5586L29.2676 22.044L29.7532 21.9238L29.6327 21.4382L29.1475 21.5586ZM28.1768 21.7988L27.6915 21.9193L27.8118 22.4042L28.2969 22.2842L28.1768 21.7988ZM25.7891 18.4023L26.1261 18.033L26.1261 18.033L25.7891 18.4023ZM24.9238 17.665L25.2373 17.2755L24.7923 16.9175L24.4963 17.4058L24.9238 17.665ZM24.209 18.7412L24.6143 19.0339L24.6143 19.0339L24.209 18.7412ZM19.2168 24.0215L18.8841 23.6482L17.9043 24.5215H19.2168V24.0215ZM44.1387 24.0215V24.5215H45.0634L44.5571 23.7477L44.1387 24.0215ZM38.8223 15.8965L38.5485 15.4781L38.1301 15.7518L38.4039 16.1702L38.8223 15.8965ZM39.2402 15.623L39.514 16.0415L39.5146 16.041L39.2402 15.623ZM39.6582 15.3486L40.0766 15.0748L39.8024 14.6558L39.3838 14.9307L39.6582 15.3486ZM45.4824 24.248L45.0641 24.5218L45.0646 24.5226L45.4824 24.248ZM45.6621 24.5215L46.0804 24.7954L46.2601 24.521L46.08 24.2469L45.6621 24.5215ZM45.4824 24.7959L45.0641 24.522L45.0641 24.5221L45.4824 24.7959ZM39.6582 33.6943L39.3845 34.1128L39.8028 34.3864L40.0766 33.9682L39.6582 33.6943ZM39.2402 33.4209L38.9658 33.8389L38.9665 33.8393L39.2402 33.4209ZM38.8223 33.1465L38.4039 32.8727L38.1305 33.2904L38.5479 33.5645L38.8223 33.1465ZM44.1396 25.0215L44.558 25.2953L45.0644 24.5215H44.1396V25.0215ZM19.1426 25.0215V24.5215H17.9004L18.7962 25.3821L19.1426 25.0215ZM23.8223 30.3135L24.2352 30.0316L24.2352 30.0316L23.8223 30.3135ZM24.4824 31.3584L24.0498 31.6091L24.3346 32.1004L24.7859 31.7558L24.4824 31.3584ZM25.7891 30.2764L26.1261 30.6457L26.1261 30.6457L25.7891 30.2764ZM28.1768 26.8799L28.2969 26.3945L27.8119 26.2745L27.6915 26.7594L28.1768 26.8799ZM29.1475 27.1201L29.6327 27.2405L29.7532 26.755L29.2676 26.6348L29.1475 27.1201ZM26.4629 31.0146L26.8 31.384L26.8 31.384L26.4629 31.0146ZM24.958 32.2539L24.6571 31.8546L24.329 32.1018L24.5079 32.4716L24.958 32.2539ZM25.9404 35.96L26.4401 35.9421L26.4401 35.942L25.9404 35.96ZM18.2139 48.0361L17.8367 48.3644L18.1647 48.7412L18.5418 48.4135L18.2139 48.0361ZM17.8857 47.6592L17.5082 47.987L17.5086 47.9875L17.8857 47.6592ZM17.5576 47.2812L17.2296 46.9038L16.8524 47.2317L17.1801 47.609L17.5576 47.2812ZM24.9404 35.9951L25.4401 35.9772L25.4401 35.9771L24.9404 35.9951ZM24.1338 32.8496L24.5873 32.6391L24.3365 32.0989L23.8479 32.4394L24.1338 32.8496ZM22.0156 34.2139L22.2718 34.6433L22.2718 34.6432L22.0156 34.2139ZM17.8398 36.4355L18.0549 36.8869L18.0549 36.8869L17.8398 36.4355ZM16.4922 37.0547L16.6938 37.5122L16.6938 37.5122L16.4922 37.0547ZM16.1152 37.2188L16.3112 37.6787L16.3112 37.6787L16.1152 37.2188ZM16.0146 37.2607L16.208 37.7219L16.2081 37.7218L16.0146 37.2607ZM15.9883 37.2715L15.7961 36.8099L15.7956 36.8101L15.9883 37.2715ZM15.9814 37.2744L15.7899 36.8126L15.7736 36.8193L15.7578 36.8272L15.9814 37.2744ZM15.9795 37.2754L15.5176 37.4668L15.723 37.9626L16.2031 37.7226L15.9795 37.2754ZM15.7881 36.8135L16.25 36.6221L15.3257 37.0037L15.7881 36.8135ZM15.9785 37.2764L16.1623 37.7413L16.6338 37.555L16.4409 37.0861L15.9785 37.2764ZM15.9365 37.293L16.045 37.7811L16.0836 37.7725L16.1204 37.7579L15.9365 37.293ZM15.8926 37.3027L15.9971 37.7917L16.001 37.7908L15.8926 37.3027ZM5.32324 37.4795L5.11884 37.9358L5.11889 37.9358L5.32324 37.4795ZM1 31.0527L0.872994 30.5691L0.389135 30.6962L0.516467 31.18L1 31.0527ZM1.4834 30.9258L1.6104 31.4094L1.61132 31.4091L1.4834 30.9258ZM1.9668 30.7979L2.45033 30.6706L2.32289 30.1864L1.83888 30.3145L1.9668 30.7979ZM5.73145 36.5664L5.52702 37.0227L5.52705 37.0227L5.73145 36.5664ZM15.6377 36.334L15.7419 36.823L15.788 36.8132L15.8315 36.7949L15.6377 36.334ZM15.7227 36.2988L15.9186 36.7588L15.9187 36.7588L15.7227 36.2988ZM16.0889 36.1396L16.2905 36.5972L16.2905 36.5972L16.0889 36.1396ZM17.4092 35.5332L17.6243 35.9846L17.6243 35.9846L17.4092 35.5332ZM21.5029 33.3555L21.7591 33.7849L21.7591 33.7849L21.5029 33.3555ZM23.6709 31.9541L23.9586 32.363L24.3302 32.1016L24.1054 31.7068L23.6709 31.9541ZM22.9961 30.8779L23.4091 30.596L23.4091 30.596L22.9961 30.8779ZM17.5449 24.8877L17.2043 25.2537L17.2045 25.2539L17.5449 24.8877ZM17.1357 24.5068L16.8098 24.1276L16.3859 24.492L16.7951 24.8728L17.1357 24.5068ZM17.5596 24.1426L17.8855 24.5218L17.8855 24.5217L17.5596 24.1426ZM23.3984 18.1553L23.8038 18.448L23.8038 18.448L23.3984 18.1553ZM24.125 17.0508L24.5547 17.3064L24.7866 16.9166L24.4212 16.6479L24.125 17.0508ZM21.5029 15.3232L21.7591 14.8939L21.7591 14.8939L21.5029 15.3232ZM17.4092 13.1455L17.6243 12.6941L17.6243 12.6941L17.4092 13.1455ZM16.0889 12.5391L16.2905 12.0815L16.2905 12.0815L16.0889 12.5391ZM15.7227 12.3799L15.9187 11.9199L15.9186 11.9199L15.7227 12.3799ZM15.6377 12.3447L15.8315 11.8838L15.788 11.8655L15.7419 11.8557L15.6377 12.3447ZM5.73145 12.1123L5.52705 11.656L5.52702 11.656L5.73145 12.1123ZM1.9668 17.8809L1.83888 18.3642L2.32289 18.4923L2.45033 18.0081L1.9668 17.8809ZM1.4834 17.7529L1.61132 17.2696L1.6104 17.2693L1.4834 17.7529ZM1 17.626L0.516467 17.4987L0.389135 17.9825L0.872994 18.1096L1 17.626ZM5.32324 11.1992L5.11889 10.7429L5.11883 10.7429L5.32324 11.1992ZM15.8926 11.376L16.001 10.8879L15.9971 10.887L15.8926 11.376ZM15.9365 11.3857L16.1204 10.9208L16.0836 10.9062L16.045 10.8976L15.9365 11.3857ZM15.9785 11.4023L16.4409 11.5926L16.6338 11.1237L16.1623 10.9374L15.9785 11.4023ZM15.7881 11.8652L15.3257 11.675L16.25 12.0566L15.7881 11.8652ZM15.9795 11.4033L16.2031 10.9561L15.723 10.7161L15.5176 11.2119L15.9795 11.4033ZM15.9814 11.4043L15.7578 11.8515L15.7736 11.8594L15.7899 11.8661L15.9814 11.4043ZM15.9883 11.4072L15.7957 11.8687L15.7961 11.8688L15.9883 11.4072ZM16.0146 11.418L16.2081 10.9569L16.208 10.9569L16.0146 11.418ZM16.1152 11.46L16.3112 11L16.3112 11L16.1152 11.46ZM16.4922 11.624L16.6938 11.1665L16.6938 11.1665L16.4922 11.624ZM17.8398 12.2432L18.0549 11.7918L18.0549 11.7918L17.8398 12.2432ZM22.0156 14.4648L22.2718 14.0355L22.2718 14.0355L22.0156 14.4648ZM24.6045 16.1641L24.3104 16.5684L24.7951 16.921L25.055 16.3809L24.6045 16.1641ZM25.4111 13.0527L25.911 13.0655L25.911 13.0654L25.4111 13.0527ZM17.5664 1.76953L17.1817 1.45021L16.8625 1.8347L17.2468 2.15406L17.5664 1.76953ZM18.2051 1L17.8855 1.38453C23.4148 5.97992 26.0008 9.54158 25.9113 13.0654L26.4111 13.0781L26.911 13.0908C27.0138 9.0432 24.0442 5.2027 18.5247 0.615465L18.2051 1ZM26.4111 13.0781L25.9113 13.0654C25.8818 14.2207 25.5629 15.3698 24.9684 16.5517L25.415 16.7764L25.8617 17.0011C26.5097 15.713 26.8771 14.4197 26.911 13.0909L26.4111 13.0781ZM25.415 16.7764L25.1046 17.1684C25.4618 17.4512 25.8041 17.7397 26.1258 18.0334L26.4629 17.6641L26.8 17.2948C26.4585 16.9832 26.0981 16.6795 25.7254 16.3844L25.415 16.7764ZM26.4629 17.6641L26.1258 18.0334C27.3911 19.1882 28.3516 20.4274 28.6622 21.679L29.1475 21.5586L29.6327 21.4382C29.2504 19.8972 28.1125 18.4927 26.8 17.2948L26.4629 17.6641ZM29.1475 21.5586L29.0273 21.0732L28.0566 21.3135L28.1768 21.7988L28.2969 22.2842L29.2676 22.044L29.1475 21.5586ZM28.1768 21.7988L28.662 21.6784C28.3514 20.4267 27.3911 19.1876 26.1261 18.033L25.7891 18.4023L25.452 18.7716C26.6697 19.8831 27.4526 20.957 27.6915 21.9193L28.1768 21.7988ZM25.7891 18.4023L26.1261 18.033C25.8426 17.7743 25.544 17.5223 25.2373 17.2755L24.9238 17.665L24.6104 18.0546C24.9055 18.292 25.1875 18.5303 25.452 18.7717L25.7891 18.4023ZM24.9238 17.665L24.4963 17.4058C24.2874 17.7503 24.0566 18.0982 23.8036 18.4485L24.209 18.7412L24.6143 19.0339C24.8822 18.663 25.1279 18.2928 25.3514 17.9242L24.9238 17.665ZM24.209 18.7412L23.8036 18.4485C22.635 20.0667 20.9881 21.7731 18.8841 23.6482L19.2168 24.0215L19.5495 24.3948C21.6784 22.4974 23.3853 20.7359 24.6143 19.0339L24.209 18.7412ZM19.2168 24.0215V24.5215H44.1387V24.0215V23.5215H19.2168V24.0215ZM44.1387 24.0215L44.5571 23.7477L39.2407 15.6227L38.8223 15.8965L38.4039 16.1702L43.7203 24.2952L44.1387 24.0215ZM38.8223 15.8965L39.096 16.3149L39.514 16.0415L39.2402 15.623L38.9665 15.2046L38.5485 15.4781L38.8223 15.8965ZM39.2402 15.623L39.5146 16.041L39.9326 15.7666L39.6582 15.3486L39.3838 14.9307L38.9658 15.2051L39.2402 15.623ZM39.6582 15.3486L39.2398 15.6224L45.0641 24.5218L45.4824 24.248L45.9008 23.9742L40.0766 15.0748L39.6582 15.3486ZM45.4824 24.248L45.0646 24.5226L45.2443 24.7961L45.6621 24.5215L46.08 24.2469L45.9003 23.9735L45.4824 24.248ZM45.6621 24.5215L45.2438 24.2476L45.0641 24.522L45.4824 24.7959L45.9007 25.0698L46.0804 24.7954L45.6621 24.5215ZM45.4824 24.7959L45.0641 24.5221L39.2398 33.4205L39.6582 33.6943L40.0766 33.9682L45.9008 25.0697L45.4824 24.7959ZM39.6582 33.6943L39.9319 33.2759L39.514 33.0025L39.2402 33.4209L38.9665 33.8393L39.3845 34.1128L39.6582 33.6943ZM39.2402 33.4209L39.5146 33.0029L39.0967 32.7285L38.8223 33.1465L38.5479 33.5645L38.9658 33.8389L39.2402 33.4209ZM38.8223 33.1465L39.2406 33.4203L44.558 25.2953L44.1396 25.0215L43.7213 24.7477L38.4039 32.8727L38.8223 33.1465ZM44.1396 25.0215V24.5215H19.1426V25.0215V25.5215H44.1396V25.0215ZM19.1426 25.0215L18.7962 25.3821C20.7541 27.263 22.302 28.9732 23.4093 30.5954L23.8223 30.3135L24.2352 30.0316C23.0725 28.3282 21.4695 26.5636 19.489 24.6609L19.1426 25.0215ZM23.8223 30.3135L23.4093 30.5954C23.6422 30.9365 23.8557 31.2742 24.0498 31.6091L24.4824 31.3584L24.915 31.1077C24.7076 30.7499 24.4808 30.3914 24.2352 30.0316L23.8223 30.3135ZM24.4824 31.3584L24.7859 31.7558C25.2548 31.3977 25.7071 31.0281 26.1261 30.6457L25.7891 30.2764L25.452 29.9071C25.06 30.2648 24.6313 30.6155 24.1789 30.961L24.4824 31.3584ZM25.7891 30.2764L26.1261 30.6457C27.3911 29.4911 28.3514 28.252 28.662 27.0003L28.1768 26.8799L27.6915 26.7594C27.4526 27.7217 26.6697 28.7956 25.452 29.9071L25.7891 30.2764ZM28.1768 26.8799L28.0566 27.3652L29.0273 27.6055L29.1475 27.1201L29.2676 26.6348L28.2969 26.3945L28.1768 26.8799ZM29.1475 27.1201L28.6622 26.9997C28.3516 28.2513 27.3911 29.4906 26.1258 30.6453L26.4629 31.0146L26.8 31.384C28.1125 30.186 29.2504 28.7815 29.6327 27.2405L29.1475 27.1201ZM26.4629 31.0146L26.1258 30.6453C25.672 31.0595 25.1769 31.463 24.6571 31.8546L24.958 32.2539L25.2589 32.6533C25.7978 32.2472 26.3181 31.8237 26.8 31.384L26.4629 31.0146ZM24.958 32.2539L24.5079 32.4716C25.0828 33.6601 25.399 34.8164 25.4408 35.9779L25.9404 35.96L26.4401 35.942C26.3925 34.6177 26.0319 33.3257 25.4081 32.0362L24.958 32.2539ZM25.9404 35.96L25.4408 35.9779C25.567 39.5011 23.1749 43.0623 17.8859 47.6587L18.2139 48.0361L18.5418 48.4135C23.8389 43.8102 26.5844 39.9709 26.4401 35.9421L25.9404 35.96ZM18.2139 48.0361L18.591 47.7078L18.2629 47.3309L17.8857 47.6592L17.5086 47.9875L17.8367 48.3644L18.2139 48.0361ZM17.8857 47.6592L18.2633 47.3314L17.9352 46.9535L17.5576 47.2812L17.1801 47.609L17.5082 47.987L17.8857 47.6592ZM17.5576 47.2812L17.8856 47.6587C23.1749 43.062 25.5665 39.5005 25.4401 35.9772L24.9404 35.9951L24.4408 36.013C24.549 39.0307 22.5109 42.3142 17.2296 46.9038L17.5576 47.2812ZM24.9404 35.9951L25.4401 35.9771C25.4004 34.8719 25.112 33.7692 24.5873 32.6391L24.1338 32.8496L23.6803 33.0602C24.1585 34.0902 24.4066 35.0623 24.4408 36.0131L24.9404 35.9951ZM24.1338 32.8496L23.8479 32.4394C23.1633 32.9165 22.4567 33.3685 21.7594 33.7845L22.0156 34.2139L22.2718 34.6432C22.9871 34.2165 23.7137 33.7518 24.4197 33.2598L24.1338 32.8496ZM22.0156 34.2139L21.7594 33.7845C20.228 34.6982 18.7347 35.4552 17.6247 35.9842L17.8398 36.4355L18.0549 36.8869C19.1831 36.3493 20.7057 35.5776 22.2718 34.6433L22.0156 34.2139ZM17.8398 36.4355L17.6248 35.9842C17.0701 36.2485 16.6109 36.456 16.2906 36.5971L16.4922 37.0547L16.6938 37.5122C17.0222 37.3675 17.4904 37.1559 18.0549 36.8869L17.8398 36.4355ZM16.4922 37.0547L16.2906 36.5971C16.1295 36.6681 16.0038 36.7227 15.9192 36.7588L16.1152 37.2188L16.3112 37.6787C16.4011 37.6404 16.531 37.584 16.6938 37.5122L16.4922 37.0547ZM16.1152 37.2188L15.9192 36.7588C15.8753 36.7775 15.8533 36.7862 15.8212 36.7997L16.0146 37.2607L16.2081 37.7218C16.2217 37.7161 16.2681 37.6971 16.3112 37.6787L16.1152 37.2188ZM16.0146 37.2607L15.8213 36.7996C15.819 36.8006 15.8165 36.8016 15.8129 36.8031C15.8118 36.8035 15.8083 36.8049 15.8064 36.8057C15.804 36.8066 15.8002 36.8082 15.7961 36.8099L15.9883 37.2715L16.1805 37.7331C16.1793 37.7336 16.1789 37.7337 16.1803 37.7332C16.1821 37.7324 16.1827 37.7322 16.186 37.7309C16.1912 37.7288 16.1989 37.7256 16.208 37.7219L16.0146 37.2607ZM15.9883 37.2715L15.7956 36.8101C15.7907 36.8121 15.7867 36.8139 15.7852 36.8146C15.784 36.8151 15.7844 36.8149 15.7846 36.8148C15.7849 36.8147 15.787 36.8138 15.7899 36.8126L15.9814 37.2744L16.173 37.7363C16.1767 37.7347 16.1796 37.7335 16.1809 37.7329C16.1816 37.7326 16.1823 37.7323 16.1827 37.7321C16.1829 37.7321 16.1831 37.732 16.1832 37.7319C16.1834 37.7318 16.1835 37.7318 16.1836 37.7318C16.1843 37.7314 16.1829 37.732 16.1809 37.7329L15.9883 37.2715ZM15.9814 37.2744L15.7578 36.8272L15.7559 36.8282L15.9795 37.2754L16.2031 37.7226L16.2051 37.7216L15.9814 37.2744ZM15.9795 37.2754L16.4414 37.084L16.25 36.6221L15.7881 36.8135L15.3262 37.0049L15.5176 37.4668L15.9795 37.2754ZM15.7881 36.8135L15.3257 37.0037L15.5161 37.4666L15.9785 37.2764L16.4409 37.0861L16.2505 36.6232L15.7881 36.8135ZM15.9785 37.2764L15.7947 36.8114L15.7527 36.828L15.9365 37.293L16.1204 37.7579L16.1623 37.7413L15.9785 37.2764ZM15.9365 37.293L15.8281 36.8049L15.7841 36.8146L15.8926 37.3027L16.001 37.7908L16.045 37.7811L15.9365 37.293ZM15.8926 37.3027L15.788 36.8138C10.8173 37.8767 7.65421 37.9755 5.5276 37.0232L5.32324 37.4795L5.11889 37.9358C7.57063 39.0338 11.0281 38.8542 15.9971 37.7917L15.8926 37.3027ZM5.32324 37.4795L5.52765 37.0232C3.40125 36.0707 2.31031 34.0668 1.48353 30.9255L1 31.0527L0.516467 31.18C1.36062 34.3873 2.55692 36.7882 5.11884 37.9358L5.32324 37.4795ZM1 31.0527L1.12701 31.5363L1.6104 31.4094L1.4834 30.9258L1.35639 30.4422L0.872994 30.5691L1 31.0527ZM1.4834 30.9258L1.61132 31.4091L2.09472 31.2812L1.9668 30.7979L1.83888 30.3145L1.35548 30.4424L1.4834 30.9258ZM1.9668 30.7979L1.48326 30.9251C2.31003 34.0664 3.40079 36.0702 5.52702 37.0227L5.73145 36.5664L5.93587 36.1101C4.24475 35.3525 3.25953 33.7451 2.45033 30.6706L1.9668 30.7979ZM5.73145 36.5664L5.52705 37.0227C7.64738 37.9725 10.7976 37.8767 15.7419 36.823L15.6377 36.334L15.5335 35.845C10.5874 36.899 7.73134 36.9143 5.93584 36.1101L5.73145 36.5664ZM15.6377 36.334L15.8315 36.7949C15.8388 36.7918 15.8471 36.7885 15.8638 36.7816C15.8789 36.7755 15.8975 36.7678 15.9186 36.7588L15.7227 36.2988L15.5267 35.8388C15.4797 35.8589 15.4912 35.8532 15.4439 35.8731L15.6377 36.334ZM15.7227 36.2988L15.9187 36.7588C16.0046 36.7222 16.1309 36.6675 16.2905 36.5972L16.0889 36.1396L15.8872 35.6821C15.7305 35.7512 15.6081 35.8042 15.5267 35.8388L15.7227 36.2988ZM16.0889 36.1396L16.2905 36.5972C16.6108 36.456 17.0699 36.2488 17.6243 35.9846L17.4092 35.5332L17.1941 35.0818C16.6497 35.3412 16.1998 35.5444 15.8872 35.6821L16.0889 36.1396ZM17.4092 35.5332L17.6243 35.9846C18.734 35.4558 20.2275 34.6986 21.7591 33.7849L21.5029 33.3555L21.2467 32.9261C19.7498 33.8192 18.2856 34.5617 17.1941 35.0818L17.4092 35.5332ZM21.5029 33.3555L21.7591 33.7849C22.4984 33.3438 23.2435 32.8662 23.9586 32.363L23.6709 31.9541L23.3832 31.5452C22.6914 32.032 21.9677 32.496 21.2467 32.9261L21.5029 33.3555ZM23.6709 31.9541L24.1054 31.7068C23.8971 31.3407 23.6649 30.9709 23.4091 30.596L22.9961 30.8779L22.5831 31.1598C22.8252 31.5144 23.0427 31.8612 23.2364 32.2014L23.6709 31.9541ZM22.9961 30.8779L23.4091 30.596C22.1342 28.7284 20.277 26.7447 17.8853 24.5215L17.5449 24.8877L17.2045 25.2539C19.5765 27.4589 21.3704 29.3833 22.5831 31.1598L22.9961 30.8779ZM17.5449 24.8877L17.8856 24.5217L17.4764 24.1408L17.1357 24.5068L16.7951 24.8728L17.2043 25.2537L17.5449 24.8877ZM17.1357 24.5068L17.4616 24.886L17.8855 24.5218L17.5596 24.1426L17.2337 23.7634L16.8098 24.1276L17.1357 24.5068ZM17.5596 24.1426L17.8855 24.5217C20.4706 22.2992 22.455 20.3157 23.8038 18.448L23.3984 18.1553L22.9931 17.8625C21.7124 19.6359 19.797 21.5595 17.2336 23.7634L17.5596 24.1426ZM23.3984 18.1553L23.8038 18.448C24.0825 18.062 24.332 17.681 24.5547 17.3064L24.125 17.0508L23.6953 16.7952C23.4878 17.144 23.2547 17.5002 22.9931 17.8626L23.3984 18.1553ZM24.125 17.0508L24.4212 16.6479C23.5682 16.0208 22.6586 15.4305 21.7591 14.8939L21.5029 15.3232L21.2467 15.7526C22.1249 16.2766 23.0068 16.8493 23.8288 17.4536L24.125 17.0508ZM21.5029 15.3232L21.7591 14.8939C20.2275 13.9801 18.734 13.223 17.6243 12.6941L17.4092 13.1455L17.1941 13.5969C18.2856 14.117 19.7498 14.8595 21.2467 15.7526L21.5029 15.3232ZM17.4092 13.1455L17.6243 12.6941C17.0698 12.4299 16.6109 12.2227 16.2905 12.0815L16.0889 12.5391L15.8872 12.9966C16.1998 13.1343 16.6497 13.3375 17.1941 13.5969L17.4092 13.1455ZM16.0889 12.5391L16.2905 12.0815C16.1309 12.0112 16.0046 11.9565 15.9187 11.9199L15.7227 12.3799L15.5267 12.8399C15.6081 12.8746 15.7305 12.9275 15.8872 12.9966L16.0889 12.5391ZM15.7227 12.3799L15.9186 11.9199C15.8975 11.9109 15.8789 11.9032 15.8638 11.8971C15.8471 11.8902 15.8388 11.8869 15.8315 11.8838L15.6377 12.3447L15.4439 12.8056C15.4912 12.8255 15.4797 12.8199 15.5267 12.8399L15.7227 12.3799ZM15.6377 12.3447L15.7419 11.8557C10.7976 10.8021 7.64739 10.7063 5.52705 11.656L5.73145 12.1123L5.93584 12.5686C7.73135 11.7644 10.5874 11.7797 15.5335 12.8337L15.6377 12.3447ZM5.73145 12.1123L5.52702 11.656C3.40082 12.6086 2.31003 14.6124 1.48326 17.7536L1.9668 17.8809L2.45033 18.0081C3.25952 14.9337 4.24477 13.3262 5.93587 12.5686L5.73145 12.1123ZM1.9668 17.8809L2.09472 17.3975L1.61132 17.2696L1.4834 17.7529L1.35548 18.2363L1.83888 18.3642L1.9668 17.8809ZM1.4834 17.7529L1.6104 17.2693L1.12701 17.1424L1 17.626L0.872994 18.1096L1.35639 18.2365L1.4834 17.7529ZM1 17.626L1.48353 17.7532C2.3103 14.612 3.40127 12.6081 5.52765 11.6555L5.32324 11.1992L5.11883 10.7429C2.55694 11.8905 1.36062 14.2914 0.516467 17.4987L1 17.626ZM5.32324 11.1992L5.5276 11.6556C7.65422 10.7032 10.8173 10.802 15.788 11.8649L15.8926 11.376L15.9971 10.887C11.0281 9.82451 7.57063 9.64496 5.11889 10.7429L5.32324 11.1992ZM15.8926 11.376L15.7841 11.8641L15.8281 11.8738L15.9365 11.3857L16.045 10.8976L16.001 10.8879L15.8926 11.376ZM15.9365 11.3857L15.7527 11.8507L15.7947 11.8673L15.9785 11.4023L16.1623 10.9374L16.1204 10.9208L15.9365 11.3857ZM15.9785 11.4023L15.5161 11.2121L15.3257 11.675L15.7881 11.8652L16.2505 12.0555L16.4409 11.5926L15.9785 11.4023ZM15.7881 11.8652L16.25 12.0566L16.4414 11.5947L15.9795 11.4033L15.5176 11.2119L15.3262 11.6738L15.7881 11.8652ZM15.9795 11.4033L15.7559 11.8505L15.7578 11.8515L15.9814 11.4043L16.2051 10.9571L16.2031 10.9561L15.9795 11.4033ZM15.9814 11.4043L15.7899 11.8661C15.787 11.8649 15.7849 11.864 15.7846 11.8639C15.7844 11.8638 15.7839 11.8636 15.7851 11.8641C15.7867 11.8648 15.7908 11.8666 15.7957 11.8687L15.9883 11.4072L16.1808 10.9458C16.1829 10.9467 16.1843 10.9473 16.1836 10.947C16.1835 10.9469 16.1834 10.9469 16.1833 10.9468C16.1832 10.9468 16.183 10.9467 16.1828 10.9466C16.1824 10.9464 16.1817 10.9461 16.181 10.9458C16.1797 10.9453 16.1767 10.944 16.173 10.9425L15.9814 11.4043ZM15.9883 11.4072L15.7961 11.8688C15.8002 11.8705 15.804 11.8721 15.8064 11.873C15.8083 11.8738 15.8118 11.8752 15.8129 11.8756C15.8165 11.8771 15.819 11.8781 15.8213 11.8791L16.0146 11.418L16.208 10.9569C16.1989 10.9531 16.1912 10.9499 16.186 10.9478C16.1826 10.9465 16.182 10.9463 16.1803 10.9455C16.1789 10.945 16.1793 10.9452 16.1805 10.9456L15.9883 11.4072ZM16.0146 11.418L15.8212 11.879C15.8533 11.8925 15.8753 11.9012 15.9192 11.9199L16.1152 11.46L16.3112 11C16.2681 10.9816 16.2217 10.9626 16.2081 10.9569L16.0146 11.418ZM16.1152 11.46L15.9192 11.9199C16.0038 11.956 16.1295 12.0106 16.2906 12.0816L16.4922 11.624L16.6938 11.1665C16.531 11.0947 16.4011 11.0383 16.3112 11L16.1152 11.46ZM16.4922 11.624L16.2906 12.0816C16.6109 12.2227 17.0701 12.4302 17.6248 12.6945L17.8398 12.2432L18.0549 11.7918C17.4904 11.5228 17.0222 11.3112 16.6938 11.1665L16.4922 11.624ZM17.8398 12.2432L17.6247 12.6945C18.7347 13.2235 20.228 13.9805 21.7594 14.8942L22.0156 14.4648L22.2718 14.0355C20.7057 13.1011 19.1831 12.3294 18.0549 11.7918L17.8398 12.2432ZM22.0156 14.4648L21.7594 14.8942C22.6159 15.4052 23.486 15.9688 24.3104 16.5684L24.6045 16.1641L24.8986 15.7597C24.0455 15.1391 23.1493 14.559 22.2718 14.0355L22.0156 14.4648ZM24.6045 16.1641L25.055 16.3809C25.5954 15.2582 25.883 14.1626 25.911 13.0655L25.4111 13.0527L24.9113 13.04C24.8875 13.9739 24.6432 14.9309 24.154 15.9472L24.6045 16.1641ZM25.4111 13.0527L25.911 13.0654C26.0005 9.54161 23.4151 5.98025 17.886 1.385L17.5664 1.76953L17.2468 2.15406C22.7859 6.75759 24.9875 10.0401 24.9113 13.04L25.4111 13.0527ZM17.5664 1.76953L17.9512 2.08885L18.5898 1.31932L18.2051 1L17.8203 0.680677L17.1817 1.45021L17.5664 1.76953Z" fill="white"/>
</svg>
