<?xml version="1.0" encoding="iso-8859-1"?>
<!-- Uploaded to: SVG Repo, www.svgrepo.com, Generator: SVG Repo Mixer Tools -->
<svg height="800px" width="800px" version="1.1" id="Layer_1" xmlns="http://www.w3.org/2000/svg" xmlns:xlink="http://www.w3.org/1999/xlink" 
	 viewBox="0 0 512 512" xml:space="preserve">
<path style="fill:#89E8E8;" d="M463.3,147.857H159.181v306.348c0,26.762,21.694,48.456,48.456,48.456h207.206
	c26.762,0,48.456-21.694,48.456-48.456L463.3,147.857L463.3,147.857z"/>
<path style="fill:#76D3D1;" d="M215.816,454.205V147.857h-56.634v306.348c0,26.762,21.694,48.456,48.456,48.456h56.633
	C237.51,502.661,215.816,480.967,215.816,454.205z"/>
<circle style="fill:#F28941;" cx="159.181" cy="147.862" r="119.821"/>
<g>
	<polygon style="fill:#F2D546;" points="465.496,14.541 410.982,147.86 369.474,147.86 429.94,0 	"/>
	<circle style="fill:#F2D546;" cx="159.181" cy="147.862" r="79.241"/>
</g>
<polygon style="fill:#B3E281;" points="410.982,147.86 334.096,335.857 301.353,314.444 369.474,147.86 "/>
<path style="fill:#D37231;" d="M279,147.86c0,66.172-53.649,119.822-119.822,119.822V147.86C159.178,147.86,279,147.86,279,147.86z"
	/>
<path style="fill:#B3E281;" d="M238.41,147.86c0,43.758-35.473,79.231-79.231,79.231V147.86
	C159.179,147.86,238.41,147.86,238.41,147.86z"/>
<path style="fill:#F24141;" d="M431.747,343.545v105.726c0,12.041-9.787,21.84-21.84,21.84H212.564
	c-12.028,0-21.827-9.799-21.827-21.84V303.762c9.04-3.648,17.37-6.3,25.077-8.106C309.748,273.58,313.67,376.504,431.747,343.545z"
	/>
<polyline style="fill:#F28941;" points="314.795,323.731 277.608,414.678 313.163,429.219 348.54,342.689 "/>
<g>
	<path style="fill:#89E8E8;" d="M224.828,346.023c-3.738,0-7.192-2.315-8.629-5.765c-1.588-3.813-0.393-8.409,2.876-10.942
		c6.551-5.074,16.436,0.676,14.944,8.961C233.228,342.683,229.327,346.023,224.828,346.023z"/>
	<path style="fill:#89E8E8;" d="M241.277,409.114c-8.366,0-12.485-10.728-6.196-16.315c6.403-5.687,16.653-0.082,15.435,8.349
		C249.861,405.679,245.838,409.114,241.277,409.114z"/>
	<path style="fill:#89E8E8;" d="M368.855,406.375c-3.892,0-7.49-2.523-8.789-6.192c-1.321-3.727-0.118-8.037,3.012-10.477
		c6.609-5.151,16.425,0.671,14.97,8.931C377.271,403.053,373.352,406.375,368.855,406.375z"/>
</g>
<path style="fill:#BEF4F2;" d="M442.537,147.857v306.348c0,26.762-21.694,48.456-48.456,48.456h20.763
	c26.762,0,48.456-21.694,48.456-48.456V147.857H442.537z"/>
<path style="fill:#76D3D1;" d="M414.845,512H207.639c-31.868,0-57.795-25.927-57.795-57.795V138.518h18.677v315.687
	c0,21.57,17.548,39.118,39.118,39.118h207.206c21.57,0,39.118-17.548,39.118-39.118V138.518h18.677v315.687
	C472.64,486.073,446.712,512,414.845,512z"/>
<path style="fill:#DD3C3C;" d="M218.852,471.11h-6.288c-12.028,0-21.827-9.799-21.827-21.84V303.762
	c9.04-3.648,17.37-6.3,25.077-8.106v158.545C215.813,460.153,216.884,465.856,218.852,471.11z"/>
</svg>