<?xml version="1.0" ?>
<!-- Uploaded to: SVG Repo, www.svgrepo.com, Generator: SVG Repo Mixer Tools -->
<svg width="800px" height="800px" viewBox="0 0 64 64" xmlns="http://www.w3.org/2000/svg">
<g id="a"/>
<g id="b"/>
<g id="c"/>
<g id="d"/>
<g id="e"/>
<g id="f"/>
<g id="g"/>
<g id="h"/>
<g id="i"/>
<g id="j"/>
<g id="k"/>
<g id="l"/>
<g id="m"/>
<g id="n"/>
<g id="o"/>
<g id="p"/>
<g id="q"/>
<g id="r"/>
<g id="s"/>
<g id="t"/>
<g id="u"/>
<g id="v"/>
<g id="w"/>
<g id="x"/>
<g id="y"/>
<g id="a`"/>
<g id="aa"/>
<g id="ab"/>
<g id="ac"/>
<g id="ad"/>
<g id="ae"/>
<g id="af"/>
<g id="ag"/>
<g id="ah"/>
<g id="ai"/>
<g id="aj"/>
<g id="ak">
<path d="M16.22,30.6c.48-.15,.98-.23,1.49-.23,1.88,0,3.6,1.06,4.46,2.74,1.59,.02,3.07,.79,4,2.08,.44-.22,.93-.33,1.42-.33,1.8,0,3.27,1.46,3.27,3.26v2.08l-6.01,2.72-11.33-3.07,2.7-9.25Z" fill="#9af6d3" fill-rule="evenodd"/>
<path d="M59,48.2v-4.46c0-1.73-1.94-2.75-3.68-1.55-1.73,1.2-4.42,1.2-6.45-.21-2.03-1.41-4.72-1.41-6.75,0-2.03,1.41-4.72,1.41-6.75,0-1.02-.7-2.2-1.06-3.38-1.06s-2.36,.35-3.38,1.06c-2.03,1.41-4.72,1.41-6.75,0-1.02-.7-2.2-1.05-3.38-1.05s-2.36,.35-3.38,1.05c-2.03,1.41-4.72,1.41-6.45,.21-1.73-1.2-3.68-.18-3.68,1.55v4.46H59Z" fill="#62d9fa" fill-rule="evenodd"/>
<path d="M32,45.38c-1.18,0-2.36,.35-3.38,1.06-2.03,1.41-4.72,1.41-6.75,0-1.02-.7-2.2-1.05-3.38-1.05s-2.36,.35-3.38,1.05c-2.03,1.41-4.72,1.41-6.45,.21-1.73-1.2-3.68-.18-3.68,1.55v4.46l28.1,1.43,25.9-1.43v-4.46c0-1.73-1.94-2.75-3.68-1.55-1.73,1.2-4.42,1.2-6.45-.21-2.03-1.41-4.72-1.41-6.75,0-2.03,1.41-4.72,1.41-6.75,0-1.02-.7-2.2-1.06-3.38-1.06Z" fill="#0acffb" fill-rule="evenodd"/>
<path d="M48.67,27.49c0,1.3-1.06,2.36-2.36,2.36s-2.36-1.06-2.36-2.36,1.06-2.36,2.36-2.36,2.36,1.06,2.36,2.36Z" fill="#fdda5c" fill-rule="evenodd"/>
<path d="M6.44,25.06c-.8,0-1.44,.64-1.44,1.44v16.94l11.22-4.55v-8.13c0-3.16-2.54-5.7-5.7-5.7H6.44Z" fill="#f0f4f6" fill-rule="evenodd"/>
<path d="M9.59,38.89c-2.81,0-4.59,1.85-4.59,4.55v9.21l35.38-.92c.32-.67,.52-1.55,.52-2.52,0-6.87-10.84-10.33-19.68-10.33H9.59Z" fill="#feccba" fill-rule="evenodd"/>
<path d="M10.42,7.62c-1.15,0-2.08,.93-2.08,2.08s.93,2.08,2.08,2.08h9.63c.81,0,1.45,.66,1.45,1.46s-.65,1.46-1.45,1.46h-.67c-1.15,0-2.08,.93-2.08,2.08s.93,2.08,2.08,2.08h16.12c1.15,0,2.08-.93,2.08-2.08s-.93-2.08-2.08-2.08h-7.08c-.81,0-1.46-.65-1.46-1.46s.65-1.46,1.46-1.46h.89c1.15,0,2.08-.93,2.08-2.08s-.93-2.08-2.08-2.08H10.42Z" fill="#d1f1f4" fill-rule="evenodd"/>
<path d="M33.35,23.86h-6.36c-1.46,0-2.64,1.18-2.64,2.64s1.18,2.64,2.64,2.64h6.36c1.46,0,2.64-1.18,2.64-2.64s-1.18-2.64-2.64-2.64Z" fill="#d1f1f4" fill-rule="evenodd"/>
<path d="M52.34,17.66c-.93,0-1.67-.75-1.67-1.67s.75-1.67,1.67-1.67h1.12c.81,0,1.47-.66,1.47-1.47s-.66-1.47-1.47-1.47h-8.5c-1.3,0-2.35-1.05-2.35-2.35s1.05-2.35,2.35-2.35h12.5c.86,0,1.55,.69,1.55,1.55v7.88c0,.86-.69,1.55-1.55,1.55h-5.11Z" fill="#d1f1f4" fill-rule="evenodd"/>
<path d="M32,49.84c-1.18,0-2.36,.35-3.38,1.06-2.03,1.41-4.72,1.41-6.75,0-1.02-.7-2.2-1.05-3.38-1.05s-2.36,.35-3.38,1.05c-2.03,1.41-4.72,1.41-6.45,.21-1.73-1.2-3.68-.18-3.68,1.55v1.48c0,1.77,1.43,3.2,3.2,3.2H55.8c1.77,0,3.2-1.43,3.2-3.2v-1.48c0-1.73-1.94-2.75-3.68-1.55-1.73,1.2-4.42,1.2-6.45-.21-2.03-1.41-4.72-1.41-6.75,0-2.03,1.41-4.72,1.41-6.75,0-1.02-.7-2.2-1.06-3.38-1.06Z" fill="#62d9fa" fill-rule="evenodd"/>
<path d="M46.31,20.19c-.55,0-1,.45-1,1v1.37c0,.55,.45,1,1,1s1-.45,1-1v-1.37c0-.55-.45-1-1-1Z" fill="#fdda5c" fill-rule="evenodd"/>
<path d="M46.31,31.41c-.55,0-1,.45-1,1v1.37c0,.55,.45,1,1,1s1-.45,1-1v-1.37c0-.55-.45-1-1-1Z" fill="#fdda5c" fill-rule="evenodd"/>
<path d="M51.24,26.48c-.55,0-1,.45-1,1s.45,1,1,1h1.37c.55,0,1-.45,1-1s-.45-1-1-1h-1.37Z" fill="#fdda5c" fill-rule="evenodd"/>
<path d="M40.02,26.48c-.55,0-1,.45-1,1s.45,1,1,1h1.37c.55,0,1-.45,1-1s-.45-1-1-1h-1.37Z" fill="#fdda5c" fill-rule="evenodd"/>
<path d="M50.05,22.33l-.97,.97c-.39,.39-.39,1.03,0,1.41s1.03,.39,1.41,0l.97-.97c.39-.39,.39-1.03,0-1.41s-1.03-.39-1.41,0Z" fill="#fdda5c" fill-rule="evenodd"/>
<path d="M42.83,29.97c-.27,0-.52,.11-.71,.29l-.97,.97c-.39,.39-.39,1.03,0,1.41,.39,.39,1.03,.39,1.41,0l.97-.97c.39-.39,.39-1.03,0-1.41-.19-.19-.44-.29-.71-.29Z" fill="#fdda5c" fill-rule="evenodd"/>
<path d="M49.09,30.26c-.39,.39-.39,1.03,0,1.41l.97,.97c.39,.39,1.03,.39,1.41,0,.39-.39,.39-1.03,0-1.41l-.97-.97c-.39-.39-1.03-.39-1.41,0Z" fill="#fdda5c" fill-rule="evenodd"/>
<path d="M41.86,22.04c-.26,0-.52,.11-.71,.29-.39,.39-.39,1.03,0,1.41l.97,.97c.39,.39,1.03,.39,1.41,0s.39-1.03,0-1.41l-.97-.97c-.19-.19-.44-.29-.71-.29Z" fill="#fdda5c" fill-rule="evenodd"/>
<circle cx="27.81" cy="46.08" fill="#ffded4" r="1"/>
<circle cx="19.66" cy="43.54" fill="#ffded4" r="1"/>
<circle cx="13.88" cy="47.91" fill="#ffded4" r="1"/>
<path d="M11.1,27.67c-.55,0-1,.45-1,1v3.31c0,.55,.45,1,1,1s1-.45,1-1v-3.31c0-.55-.45-1-1-1Z" fill="#e2eef2" fill-rule="evenodd"/>
<path d="M11.1,34.58c-.55,0-1,.45-1,1v3.3c0,.55,.45,1,1,1s1-.45,1-1v-3.3c0-.55-.45-1-1-1Z" fill="#e2eef2" fill-rule="evenodd"/>
</g>
<g id="al"/>
<g id="am"/>
<g id="an"/>
<g id="ao"/>
<g id="ap"/>
<g id="aq"/>
<g id="ar"/>
<g id="as"/>
<g id="at"/>
<g id="au"/>
<g id="av"/>
<g id="aw"/>
<g id="ax"/>
</svg>